<mxfile host="app.diagrams.net" agent="Mozilla/5.0 (Windows NT 10.0; Win64; x64) AppleWebKit/537.36 (KHTML, like Gecko) Chrome/132.0.0.0 Safari/537.36" version="26.0.11">
  <diagram name="第 1 页" id="zCJwgfAlIP9obnGPYDEz">
    <mxGraphModel dx="9017" dy="4766" grid="1" gridSize="10" guides="1" tooltips="1" connect="1" arrows="1" fold="1" page="1" pageScale="1" pageWidth="827" pageHeight="1169" math="0" shadow="0">
      <root>
        <mxCell id="0" />
        <mxCell id="1" parent="0" />
        <mxCell id="-jIWmPzofc5P5sN-8sY--10" value="" style="whiteSpace=wrap;html=1;fillColor=#f8cecc;strokeColor=#b85450;" parent="1" vertex="1">
          <mxGeometry x="1250" y="750" width="910" height="510" as="geometry" />
        </mxCell>
        <mxCell id="p9sFb-CSKnd5xUBQKQXD-21" style="edgeStyle=orthogonalEdgeStyle;rounded=0;orthogonalLoop=1;jettySize=auto;html=1;entryX=0;entryY=0.5;entryDx=0;entryDy=0;" parent="1" source="oGX236ngwEXMZTwFb6us-1" target="oGX236ngwEXMZTwFb6us-4" edge="1">
          <mxGeometry relative="1" as="geometry" />
        </mxCell>
        <mxCell id="p9sFb-CSKnd5xUBQKQXD-23" style="edgeStyle=orthogonalEdgeStyle;rounded=0;orthogonalLoop=1;jettySize=auto;html=1;entryX=0;entryY=0.5;entryDx=0;entryDy=0;" parent="1" source="oGX236ngwEXMZTwFb6us-1" target="oGX236ngwEXMZTwFb6us-5" edge="1">
          <mxGeometry relative="1" as="geometry" />
        </mxCell>
        <mxCell id="oGX236ngwEXMZTwFb6us-1" value="&lt;span style=&quot;color: rgb(45, 49, 64); font-family: &amp;quot;Open Sans&amp;quot;; font-size: 18px; font-weight: 700; letter-spacing: 0.25px; text-align: start; background-color: rgb(255, 255, 255);&quot;&gt;表达式&lt;/span&gt;&lt;div&gt;&lt;span style=&quot;color: rgb(198, 193, 185); font-family: &amp;quot;Open Sans&amp;quot;; font-size: 14px; text-align: start; background-color: rgb(24, 26, 27);&quot;&gt;计算以产生单个输出值&lt;/span&gt;&lt;/div&gt;" style="rounded=0;whiteSpace=wrap;html=1;" parent="1" vertex="1">
          <mxGeometry x="-1300" y="570" width="150" height="80" as="geometry" />
        </mxCell>
        <mxCell id="p9sFb-CSKnd5xUBQKQXD-18" style="edgeStyle=orthogonalEdgeStyle;rounded=0;orthogonalLoop=1;jettySize=auto;html=1;entryX=0;entryY=0.5;entryDx=0;entryDy=0;" parent="1" source="oGX236ngwEXMZTwFb6us-4" target="NbkLUTGj8sX2wBvh6n6N-5" edge="1">
          <mxGeometry relative="1" as="geometry" />
        </mxCell>
        <mxCell id="p9sFb-CSKnd5xUBQKQXD-19" style="edgeStyle=orthogonalEdgeStyle;rounded=0;orthogonalLoop=1;jettySize=auto;html=1;entryX=0;entryY=0.5;entryDx=0;entryDy=0;" parent="1" source="oGX236ngwEXMZTwFb6us-4" target="rQ7jleubQa4jrmGbAYu6-6" edge="1">
          <mxGeometry relative="1" as="geometry" />
        </mxCell>
        <mxCell id="oGX236ngwEXMZTwFb6us-4" value="&lt;span style=&quot;color: rgb(45, 49, 64); font-family: &amp;quot;Open Sans&amp;quot;; font-size: 18px; font-weight: 700; letter-spacing: 0.25px; text-align: start; background-color: rgb(255, 255, 255);&quot;&gt;类型&lt;/span&gt;&lt;div&gt;&lt;span style=&quot;color: rgb(45, 49, 64); font-family: &amp;quot;Open Sans&amp;quot;; font-size: 18px; font-weight: 700; letter-spacing: 0.25px; text-align: start; background-color: rgb(255, 255, 255);&quot;&gt;（主要编译器判断上下文）&lt;/span&gt;&lt;/div&gt;" style="rounded=0;whiteSpace=wrap;html=1;" parent="1" vertex="1">
          <mxGeometry x="-1000" y="330" width="254" height="80" as="geometry" />
        </mxCell>
        <mxCell id="oGX236ngwEXMZTwFb6us-7" value="" style="edgeStyle=orthogonalEdgeStyle;rounded=0;orthogonalLoop=1;jettySize=auto;html=1;" parent="1" source="oGX236ngwEXMZTwFb6us-5" target="oGX236ngwEXMZTwFb6us-6" edge="1">
          <mxGeometry relative="1" as="geometry">
            <Array as="points">
              <mxPoint x="-693" y="820" />
              <mxPoint x="-693" y="760" />
            </Array>
          </mxGeometry>
        </mxCell>
        <mxCell id="oGX236ngwEXMZTwFb6us-9" value="" style="edgeStyle=orthogonalEdgeStyle;rounded=0;orthogonalLoop=1;jettySize=auto;html=1;" parent="1" source="oGX236ngwEXMZTwFb6us-5" target="oGX236ngwEXMZTwFb6us-8" edge="1">
          <mxGeometry relative="1" as="geometry">
            <Array as="points">
              <mxPoint x="-693" y="820" />
              <mxPoint x="-693" y="980" />
            </Array>
          </mxGeometry>
        </mxCell>
        <mxCell id="p9sFb-CSKnd5xUBQKQXD-25" style="edgeStyle=orthogonalEdgeStyle;rounded=0;orthogonalLoop=1;jettySize=auto;html=1;entryX=0;entryY=0.75;entryDx=0;entryDy=0;" parent="1" source="oGX236ngwEXMZTwFb6us-5" target="p9sFb-CSKnd5xUBQKQXD-24" edge="1">
          <mxGeometry relative="1" as="geometry">
            <Array as="points">
              <mxPoint x="-693" y="820" />
            </Array>
          </mxGeometry>
        </mxCell>
        <mxCell id="oGX236ngwEXMZTwFb6us-5" value="&lt;span style=&quot;color: rgb(45, 49, 64); font-family: &amp;quot;Open Sans&amp;quot;; font-size: 18px; font-weight: 700; letter-spacing: 0.25px; text-align: start; background-color: rgb(255, 255, 255);&quot;&gt;值类别&lt;/span&gt;" style="rounded=0;whiteSpace=wrap;html=1;" parent="1" vertex="1">
          <mxGeometry x="-1000" y="770" width="217" height="100" as="geometry" />
        </mxCell>
        <mxCell id="oGX236ngwEXMZTwFb6us-11" value="" style="edgeStyle=orthogonalEdgeStyle;rounded=0;orthogonalLoop=1;jettySize=auto;html=1;" parent="1" source="oGX236ngwEXMZTwFb6us-6" target="oGX236ngwEXMZTwFb6us-10" edge="1">
          <mxGeometry relative="1" as="geometry" />
        </mxCell>
        <mxCell id="oGX236ngwEXMZTwFb6us-13" value="" style="edgeStyle=orthogonalEdgeStyle;rounded=0;orthogonalLoop=1;jettySize=auto;html=1;" parent="1" source="oGX236ngwEXMZTwFb6us-6" target="oGX236ngwEXMZTwFb6us-12" edge="1">
          <mxGeometry relative="1" as="geometry" />
        </mxCell>
        <mxCell id="oGX236ngwEXMZTwFb6us-6" value="&lt;span style=&quot;color: rgb(45, 49, 64); font-family: Monaco, Consolas, &amp;quot;Andale Mono&amp;quot;, &amp;quot;DejaVu Sans Mono&amp;quot;, monospace; font-size: 14px; text-align: start; background-color: rgb(230, 230, 230);&quot;&gt;左值(&lt;/span&gt;&lt;span style=&quot;color: rgb(45, 49, 64); font-family: &amp;quot;Open Sans&amp;quot;; font-size: 14px; text-align: start; background-color: rgb(223, 231, 255);&quot;&gt;可识别对象&lt;/span&gt;&lt;span style=&quot;color: rgb(45, 49, 64); font-family: Monaco, Consolas, &amp;quot;Andale Mono&amp;quot;, &amp;quot;DejaVu Sans Mono&amp;quot;, monospace; font-size: 14px; text-align: start; background-color: rgb(230, 230, 230);&quot;&gt;)&lt;/span&gt;" style="rounded=0;whiteSpace=wrap;html=1;" parent="1" vertex="1">
          <mxGeometry x="-623" y="740" width="120" height="60" as="geometry" />
        </mxCell>
        <mxCell id="oGX236ngwEXMZTwFb6us-15" value="" style="edgeStyle=orthogonalEdgeStyle;rounded=0;orthogonalLoop=1;jettySize=auto;html=1;" parent="1" source="oGX236ngwEXMZTwFb6us-8" target="oGX236ngwEXMZTwFb6us-14" edge="1">
          <mxGeometry relative="1" as="geometry" />
        </mxCell>
        <mxCell id="oGX236ngwEXMZTwFb6us-17" value="" style="edgeStyle=orthogonalEdgeStyle;rounded=0;orthogonalLoop=1;jettySize=auto;html=1;" parent="1" source="oGX236ngwEXMZTwFb6us-8" target="oGX236ngwEXMZTwFb6us-16" edge="1">
          <mxGeometry relative="1" as="geometry" />
        </mxCell>
        <mxCell id="oGX236ngwEXMZTwFb6us-8" value="&lt;span style=&quot;color: rgb(45, 49, 64); font-family: Monaco, Consolas, &amp;quot;Andale Mono&amp;quot;, &amp;quot;DejaVu Sans Mono&amp;quot;, monospace; font-size: 14px; text-align: start; background-color: rgb(230, 230, 230);&quot;&gt;右值(&lt;/span&gt;&lt;span style=&quot;color: rgb(45, 49, 64); font-family: &amp;quot;Open Sans&amp;quot;; font-size: 14px; text-align: start; background-color: rgb(223, 231, 255);&quot;&gt;值&lt;/span&gt;&lt;span style=&quot;color: rgb(45, 49, 64); font-family: Monaco, Consolas, &amp;quot;Andale Mono&amp;quot;, &amp;quot;DejaVu Sans Mono&amp;quot;, monospace; font-size: 14px; text-align: start; background-color: rgb(230, 230, 230);&quot;&gt;)&lt;/span&gt;" style="rounded=0;whiteSpace=wrap;html=1;" parent="1" vertex="1">
          <mxGeometry x="-633" y="950" width="120" height="60" as="geometry" />
        </mxCell>
        <mxCell id="oGX236ngwEXMZTwFb6us-10" value="&lt;strong style=&quot;box-sizing: inherit; margin: 0px; padding: 0px; border: 0px; font-variant-numeric: inherit; font-variant-east-asian: inherit; font-variant-alternates: inherit; font-variant-position: inherit; font-stretch: inherit; font-size: 14px; line-height: inherit; font-family: &amp;quot;Open Sans&amp;quot;; font-optical-sizing: inherit; font-size-adjust: inherit; font-kerning: inherit; font-feature-settings: inherit; font-variation-settings: inherit; color: rgb(45, 49, 64); text-align: start; background-color: rgb(255, 255, 255);&quot; data-immersive-translate-walked=&quot;97a51d90-85dc-41e9-87ce-aa57213af31a&quot;&gt;可修改的左值&lt;/strong&gt;" style="rounded=0;whiteSpace=wrap;html=1;" parent="1" vertex="1">
          <mxGeometry x="-443" y="680" width="120" height="60" as="geometry" />
        </mxCell>
        <mxCell id="oGX236ngwEXMZTwFb6us-12" value="&lt;strong style=&quot;box-sizing: inherit; margin: 0px; padding: 0px; border: 0px; font-variant-numeric: inherit; font-variant-east-asian: inherit; font-variant-alternates: inherit; font-variant-position: inherit; font-stretch: inherit; font-size: 14px; line-height: inherit; font-family: &amp;quot;Open Sans&amp;quot;; font-optical-sizing: inherit; font-size-adjust: inherit; font-kerning: inherit; font-feature-settings: inherit; font-variation-settings: inherit; color: rgb(45, 49, 64); text-align: start; background-color: rgb(255, 255, 255);&quot; data-immersive-translate-walked=&quot;97a51d90-85dc-41e9-87ce-aa57213af31a&quot;&gt;不可修改的左值&lt;/strong&gt;" style="rounded=0;whiteSpace=wrap;html=1;" parent="1" vertex="1">
          <mxGeometry x="-443" y="790" width="120" height="60" as="geometry" />
        </mxCell>
        <mxCell id="oGX236ngwEXMZTwFb6us-14" value="&lt;span style=&quot;color: rgb(45, 49, 64); font-family: &amp;quot;Open Sans&amp;quot;; font-size: 14px; text-align: start; background-color: rgb(244, 244, 244);&quot;&gt;纯右值&lt;/span&gt;" style="rounded=0;whiteSpace=wrap;html=1;" parent="1" vertex="1">
          <mxGeometry x="-453" y="910" width="120" height="60" as="geometry" />
        </mxCell>
        <mxCell id="oGX236ngwEXMZTwFb6us-16" value="&lt;span style=&quot;color: rgb(45, 49, 64); font-family: &amp;quot;Open Sans&amp;quot;; font-size: 14px; text-align: start; background-color: rgb(244, 244, 244);&quot;&gt;x值&lt;/span&gt;&lt;div&gt;&lt;span style=&quot;color: rgb(45, 49, 64); font-family: &amp;quot;Open Sans&amp;quot;; font-size: 14px; text-align: start; background-color: rgb(244, 244, 244);&quot;&gt;（左值可&lt;/span&gt;&lt;span style=&quot;background-color: rgb(255, 255, 255); color: rgb(45, 49, 64); font-family: &amp;quot;Open Sans&amp;quot;; font-size: 14px; text-align: start;&quot;&gt;隐式转换为右值&lt;/span&gt;&lt;span style=&quot;background-color: rgb(244, 244, 244); color: rgb(45, 49, 64); font-family: &amp;quot;Open Sans&amp;quot;; font-size: 14px; text-align: start;&quot;&gt;）&lt;/span&gt;&lt;/div&gt;" style="rounded=0;whiteSpace=wrap;html=1;" parent="1" vertex="1">
          <mxGeometry x="-453" y="1010" width="180" height="60" as="geometry" />
        </mxCell>
        <mxCell id="rQ7jleubQa4jrmGbAYu6-3" value="&lt;font face=&quot;Open Sans&quot; color=&quot;#2d3140&quot;&gt;&lt;span style=&quot;font-size: 14px; background-color: rgb(255, 255, 255);&quot;&gt;20. 1 Function Types: Functions have their own lvalue function types&amp;nbsp;&lt;br&gt;&lt;br&gt;&lt;br&gt;&lt;br&gt;&lt;br&gt;12.9&amp;nbsp; &amp;nbsp;&lt;/span&gt;&lt;/font&gt;&lt;span style=&quot;color: rgb(45, 49, 64); font-family: &amp;quot;Open Sans&amp;quot;; font-size: 14px; background-color: rgb(255, 255, 255);&quot;&gt;要声明 const 指针，请在指针声明中星号&lt;b&gt;后&lt;/b&gt;使用&amp;nbsp;&lt;/span&gt;&lt;code style=&quot;box-sizing: inherit; margin: 0px; padding: 1px 4px; border: 0px; font-variant-numeric: inherit; font-variant-east-asian: inherit; font-variant-alternates: inherit; font-variant-position: inherit; font-stretch: inherit; font-size: 14px; line-height: inherit; font-family: Monaco, Consolas, &amp;quot;Andale Mono&amp;quot;, &amp;quot;DejaVu Sans Mono&amp;quot;, monospace; font-optical-sizing: inherit; font-size-adjust: inherit; font-kerning: inherit; font-feature-settings: inherit; font-variation-settings: inherit; overflow: auto; vertical-align: middle; background-color: rgb(230, 230, 230); border-radius: 4px; box-shadow: rgb(212, 212, 212) 0px 1px; color: rgb(45, 49, 64);&quot; data-immersive-translate-walked=&quot;1f2cb60a-0e9e-448f-9b1c-8a35acca966f&quot;&gt;const；&lt;/code&gt;&lt;span style=&quot;color: rgb(45, 49, 64); font-family: &amp;quot;Open Sans&amp;quot;; font-size: 14px; background-color: rgb(255, 255, 255);&quot;&gt;要声明指向 const 值的指针，请在指针的数据类型&lt;b&gt;之前&lt;/b&gt;使用&amp;nbsp;&lt;/span&gt;&lt;code style=&quot;box-sizing: inherit; margin: 0px; padding: 1px 4px; border: 0px; font-variant-numeric: inherit; font-variant-east-asian: inherit; font-variant-alternates: inherit; font-variant-position: inherit; font-stretch: inherit; font-size: 14px; line-height: inherit; font-family: Monaco, Consolas, &amp;quot;Andale Mono&amp;quot;, &amp;quot;DejaVu Sans Mono&amp;quot;, monospace; font-optical-sizing: inherit; font-size-adjust: inherit; font-kerning: inherit; font-feature-settings: inherit; font-variation-settings: inherit; overflow: auto; vertical-align: middle; background-color: rgb(230, 230, 230); border-radius: 4px; box-shadow: rgb(212, 212, 212) 0px 1px; color: rgb(45, 49, 64);&quot; data-immersive-translate-walked=&quot;1f2cb60a-0e9e-448f-9b1c-8a35acca966f&quot;&gt;const&lt;/code&gt;" style="shape=note;whiteSpace=wrap;html=1;backgroundOutline=1;fontColor=#000000;darkOpacity=0.05;fillColor=#FFF9B2;strokeColor=none;fillStyle=solid;direction=west;gradientDirection=north;gradientColor=#FFF2A1;shadow=1;size=20;pointerEvents=1;align=left;horizontal=1;verticalAlign=top;" parent="1" vertex="1">
          <mxGeometry x="1260" y="160" width="640" height="550" as="geometry" />
        </mxCell>
        <mxCell id="rQ7jleubQa4jrmGbAYu6-4" style="edgeStyle=orthogonalEdgeStyle;rounded=0;orthogonalLoop=1;jettySize=auto;html=1;" parent="1" source="rQ7jleubQa4jrmGbAYu6-6" target="rQ7jleubQa4jrmGbAYu6-7" edge="1">
          <mxGeometry relative="1" as="geometry">
            <mxPoint x="-320" y="-60" as="targetPoint" />
            <Array as="points">
              <mxPoint x="-490" y="140" />
              <mxPoint x="-490" y="-30" />
            </Array>
          </mxGeometry>
        </mxCell>
        <mxCell id="NbkLUTGj8sX2wBvh6n6N-18" style="edgeStyle=orthogonalEdgeStyle;rounded=0;orthogonalLoop=1;jettySize=auto;html=1;" parent="1" source="rQ7jleubQa4jrmGbAYu6-6" target="rQ7jleubQa4jrmGbAYu6-10" edge="1">
          <mxGeometry relative="1" as="geometry" />
        </mxCell>
        <mxCell id="NbkLUTGj8sX2wBvh6n6N-20" style="edgeStyle=orthogonalEdgeStyle;rounded=0;orthogonalLoop=1;jettySize=auto;html=1;entryX=0;entryY=0.5;entryDx=0;entryDy=0;" parent="1" source="rQ7jleubQa4jrmGbAYu6-6" target="NbkLUTGj8sX2wBvh6n6N-19" edge="1">
          <mxGeometry relative="1" as="geometry" />
        </mxCell>
        <mxCell id="p9sFb-CSKnd5xUBQKQXD-15" style="edgeStyle=orthogonalEdgeStyle;rounded=0;orthogonalLoop=1;jettySize=auto;html=1;entryX=0;entryY=0.5;entryDx=0;entryDy=0;" parent="1" source="rQ7jleubQa4jrmGbAYu6-6" target="p9sFb-CSKnd5xUBQKQXD-14" edge="1">
          <mxGeometry relative="1" as="geometry" />
        </mxCell>
        <mxCell id="rQ7jleubQa4jrmGbAYu6-6" value="&lt;span style=&quot;color: rgb(45, 49, 64); font-family: &amp;quot;Open Sans&amp;quot;; font-size: 14px; text-align: start; background-color: rgb(255, 255, 255);&quot;&gt;复合类型&lt;/span&gt;" style="rounded=0;whiteSpace=wrap;html=1;" parent="1" vertex="1">
          <mxGeometry x="-680" y="110" width="120" height="60" as="geometry" />
        </mxCell>
        <mxCell id="rQ7jleubQa4jrmGbAYu6-7" value="&lt;span style=&quot;color: rgb(45, 49, 64); font-family: &amp;quot;Open Sans&amp;quot;; font-size: 18px; font-weight: 700; letter-spacing: 0.25px; text-align: start; background-color: rgb(255, 255, 255);&quot;&gt;函数类型&lt;/span&gt;&lt;div&gt;&lt;span style=&quot;color: rgb(45, 49, 64); font-family: &amp;quot;Open Sans&amp;quot;; font-size: 18px; font-weight: 700; letter-spacing: 0.25px; text-align: start; background-color: rgb(255, 255, 255);&quot;&gt;（&lt;/span&gt;&lt;span style=&quot;background-color: rgb(255, 255, 255); color: rgb(45, 49, 64); font-family: &amp;quot;Open Sans&amp;quot;; font-size: 14px; text-align: start;&quot;&gt;函数有自己的左值函数类型，包含：&lt;b&gt;返回值 和 参数&lt;/b&gt;&lt;/span&gt;&lt;span style=&quot;background-color: rgb(255, 255, 255); color: rgb(45, 49, 64); font-family: &amp;quot;Open Sans&amp;quot;; font-size: 18px; font-weight: 700; letter-spacing: 0.25px; text-align: start;&quot;&gt;）&lt;/span&gt;&lt;/div&gt;" style="rounded=0;whiteSpace=wrap;html=1;" parent="1" vertex="1">
          <mxGeometry x="-414" y="-70" width="210" height="90" as="geometry" />
        </mxCell>
        <mxCell id="rQ7jleubQa4jrmGbAYu6-27" style="edgeStyle=orthogonalEdgeStyle;rounded=0;orthogonalLoop=1;jettySize=auto;html=1;" parent="1" source="rQ7jleubQa4jrmGbAYu6-10" target="rQ7jleubQa4jrmGbAYu6-24" edge="1">
          <mxGeometry relative="1" as="geometry" />
        </mxCell>
        <mxCell id="rQ7jleubQa4jrmGbAYu6-28" style="edgeStyle=orthogonalEdgeStyle;rounded=0;orthogonalLoop=1;jettySize=auto;html=1;" parent="1" source="rQ7jleubQa4jrmGbAYu6-10" target="rQ7jleubQa4jrmGbAYu6-26" edge="1">
          <mxGeometry relative="1" as="geometry" />
        </mxCell>
        <mxCell id="rQ7jleubQa4jrmGbAYu6-10" value="&lt;span style=&quot;color: rgb(45, 49, 64); font-family: &amp;quot;Open Sans&amp;quot;; font-size: 14px; text-align: left; background-color: rgb(255, 255, 255);&quot;&gt;引用类型&lt;/span&gt;&lt;div&gt;&lt;span style=&quot;color: rgb(45, 49, 64); font-family: &amp;quot;Open Sans&amp;quot;; font-size: 14px; text-align: left; background-color: rgb(255, 255, 255);&quot;&gt;（一旦初始化，无法重新绑定）&lt;/span&gt;&lt;/div&gt;" style="rounded=0;whiteSpace=wrap;html=1;" parent="1" vertex="1">
          <mxGeometry x="-415" y="110" width="210" height="60" as="geometry" />
        </mxCell>
        <mxCell id="rQ7jleubQa4jrmGbAYu6-24" value="&lt;span style=&quot;color: rgb(45, 49, 64); font-family: &amp;quot;Open Sans&amp;quot;; font-size: 14px; text-align: start; background-color: rgb(244, 244, 244);&quot;&gt;L值引用&amp;amp;&lt;/span&gt;&lt;div&gt;&lt;span style=&quot;color: rgb(45, 49, 64); font-family: &amp;quot;Open Sans&amp;quot;; font-size: 14px; text-align: start; background-color: rgb(244, 244, 244);&quot;&gt;&lt;span style=&quot;background-color: rgb(255, 255, 255);&quot;&gt;（object的别名）&lt;/span&gt;&lt;/span&gt;&lt;/div&gt;" style="rounded=0;whiteSpace=wrap;html=1;" parent="1" vertex="1">
          <mxGeometry x="-135" y="50" width="120" height="60" as="geometry" />
        </mxCell>
        <mxCell id="rQ7jleubQa4jrmGbAYu6-26" value="&lt;span style=&quot;color: rgb(45, 49, 64); font-family: &amp;quot;Open Sans&amp;quot;; font-size: 14px; text-align: start; background-color: rgb(244, 244, 244);&quot;&gt;R值引用&amp;amp;&amp;amp;&lt;/span&gt;" style="rounded=0;whiteSpace=wrap;html=1;" parent="1" vertex="1">
          <mxGeometry x="-135" y="150" width="120" height="60" as="geometry" />
        </mxCell>
        <mxCell id="Pvb7XkKKDdEXnkuy6YKq-40" style="edgeStyle=orthogonalEdgeStyle;rounded=0;orthogonalLoop=1;jettySize=auto;html=1;entryX=0;entryY=0.75;entryDx=0;entryDy=0;" parent="1" source="fvUucBqJdOx6glTmMbDe-3" target="fvUucBqJdOx6glTmMbDe-4" edge="1">
          <mxGeometry relative="1" as="geometry" />
        </mxCell>
        <mxCell id="Pvb7XkKKDdEXnkuy6YKq-41" style="edgeStyle=orthogonalEdgeStyle;rounded=0;orthogonalLoop=1;jettySize=auto;html=1;entryX=0;entryY=0.75;entryDx=0;entryDy=0;" parent="1" source="fvUucBqJdOx6glTmMbDe-3" target="Pvb7XkKKDdEXnkuy6YKq-8" edge="1">
          <mxGeometry relative="1" as="geometry" />
        </mxCell>
        <mxCell id="Pvb7XkKKDdEXnkuy6YKq-42" value="&lt;font style=&quot;font-size: 16px;&quot;&gt;属性&lt;/font&gt;" style="edgeLabel;html=1;align=center;verticalAlign=middle;resizable=0;points=[];" parent="Pvb7XkKKDdEXnkuy6YKq-41" vertex="1" connectable="0">
          <mxGeometry x="-0.2848" y="-2" relative="1" as="geometry">
            <mxPoint as="offset" />
          </mxGeometry>
        </mxCell>
        <mxCell id="5yQ3ogZ6_WC2ORXl4SrJ-5" style="edgeStyle=orthogonalEdgeStyle;rounded=0;orthogonalLoop=1;jettySize=auto;html=1;entryX=0;entryY=0.5;entryDx=0;entryDy=0;" parent="1" source="fvUucBqJdOx6glTmMbDe-3" target="Pvb7XkKKDdEXnkuy6YKq-17" edge="1">
          <mxGeometry relative="1" as="geometry">
            <Array as="points">
              <mxPoint x="180" y="2210" />
            </Array>
          </mxGeometry>
        </mxCell>
        <mxCell id="5yQ3ogZ6_WC2ORXl4SrJ-6" style="edgeStyle=orthogonalEdgeStyle;rounded=0;orthogonalLoop=1;jettySize=auto;html=1;entryX=0;entryY=0.5;entryDx=0;entryDy=0;" parent="1" source="fvUucBqJdOx6glTmMbDe-3" target="Pvb7XkKKDdEXnkuy6YKq-5" edge="1">
          <mxGeometry relative="1" as="geometry">
            <Array as="points">
              <mxPoint x="180" y="2012" />
            </Array>
          </mxGeometry>
        </mxCell>
        <mxCell id="5yQ3ogZ6_WC2ORXl4SrJ-7" value="&lt;font style=&quot;font-size: 16px;&quot;&gt;分类&lt;/font&gt;" style="edgeLabel;html=1;align=center;verticalAlign=middle;resizable=0;points=[];" parent="5yQ3ogZ6_WC2ORXl4SrJ-6" vertex="1" connectable="0">
          <mxGeometry x="-0.6768" y="2" relative="1" as="geometry">
            <mxPoint y="-1" as="offset" />
          </mxGeometry>
        </mxCell>
        <mxCell id="fvUucBqJdOx6glTmMbDe-3" value="&lt;span style=&quot;color: rgb(45, 49, 64); font-family: &amp;quot;Open Sans&amp;quot;; font-size: 14px; text-align: start; background-color: rgb(255, 255, 255);&quot;&gt;变量&lt;/span&gt;" style="rounded=0;whiteSpace=wrap;html=1;" parent="1" vertex="1">
          <mxGeometry x="120" y="2320" width="120" height="60" as="geometry" />
        </mxCell>
        <mxCell id="fvUucBqJdOx6glTmMbDe-4" value="&lt;strong style=&quot;box-sizing: inherit; margin: 0px; padding: 0px; border: 0px; font-variant-numeric: inherit; font-variant-east-asian: inherit; font-variant-alternates: inherit; font-variant-position: inherit; font-variant-emoji: inherit; font-stretch: inherit; line-height: inherit; font-family: &amp;quot;Open Sans&amp;quot;; font-optical-sizing: inherit; font-size-adjust: inherit; font-kerning: inherit; font-feature-settings: inherit; font-variation-settings: inherit; color: rgb(45, 49, 64); text-align: start; background-color: rgb(255, 255, 255);&quot; data-immersive-translate-walked=&quot;6afb6334-6282-4ce6-894a-930fbfaf0ec0&quot;&gt;&lt;font style=&quot;font-size: 18px;&quot;&gt;storage duration&lt;/font&gt;&lt;/strong&gt;&lt;div&gt;&lt;font style=&quot;font-size: 18px;&quot;&gt;&lt;strong style=&quot;box-sizing: inherit; margin: 0px; padding: 0px; border: 0px; font-variant-numeric: inherit; font-variant-east-asian: inherit; font-variant-alternates: inherit; font-variant-position: inherit; font-variant-emoji: inherit; font-stretch: inherit; line-height: inherit; font-family: &amp;quot;Open Sans&amp;quot;; font-optical-sizing: inherit; font-size-adjust: inherit; font-kerning: inherit; font-feature-settings: inherit; font-variation-settings: inherit; color: rgb(45, 49, 64); text-align: start; background-color: rgb(255, 255, 255);&quot; data-immersive-translate-walked=&quot;6afb6334-6282-4ce6-894a-930fbfaf0ec0&quot;&gt;(&lt;/strong&gt;&lt;strong style=&quot;box-sizing: inherit; margin: 0px; padding: 0px; border: 0px; font-variant-numeric: inherit; font-variant-east-asian: inherit; font-variant-alternates: inherit; font-variant-position: inherit; font-variant-emoji: inherit; font-stretch: inherit; line-height: inherit; font-family: &amp;quot;Open Sans&amp;quot;; font-optical-sizing: inherit; font-size-adjust: inherit; font-kerning: inherit; font-feature-settings: inherit; font-variation-settings: inherit; color: rgb(198, 193, 185); text-align: start; background-color: rgb(24, 26, 27);&quot; data-immersive-translate-walked=&quot;994211db-ee90-4fe0-bb27-eab9e00ce637&quot;&gt;存储持续时间&lt;/strong&gt;&lt;strong style=&quot;box-sizing: inherit; margin: 0px; padding: 0px; border: 0px; font-variant-numeric: inherit; font-variant-east-asian: inherit; font-variant-alternates: inherit; font-variant-position: inherit; font-variant-emoji: inherit; font-stretch: inherit; line-height: inherit; font-family: &amp;quot;Open Sans&amp;quot;; font-optical-sizing: inherit; font-size-adjust: inherit; font-kerning: inherit; font-feature-settings: inherit; font-variation-settings: inherit; color: rgb(45, 49, 64); text-align: start; background-color: rgb(255, 255, 255);&quot; data-immersive-translate-walked=&quot;6afb6334-6282-4ce6-894a-930fbfaf0ec0&quot;&gt;)&lt;/strong&gt;&lt;/font&gt;&lt;/div&gt;" style="rounded=0;whiteSpace=wrap;html=1;" parent="1" vertex="1">
          <mxGeometry x="290" y="2460" width="170" height="60" as="geometry" />
        </mxCell>
        <mxCell id="fvUucBqJdOx6glTmMbDe-5" style="edgeStyle=orthogonalEdgeStyle;rounded=0;orthogonalLoop=1;jettySize=auto;html=1;" parent="1" source="fvUucBqJdOx6glTmMbDe-7" target="fvUucBqJdOx6glTmMbDe-8" edge="1">
          <mxGeometry relative="1" as="geometry">
            <Array as="points">
              <mxPoint x="300.14" y="2868" />
              <mxPoint x="300.14" y="2741" />
            </Array>
          </mxGeometry>
        </mxCell>
        <mxCell id="fvUucBqJdOx6glTmMbDe-6" style="edgeStyle=orthogonalEdgeStyle;rounded=0;orthogonalLoop=1;jettySize=auto;html=1;" parent="1" source="fvUucBqJdOx6glTmMbDe-7" target="fvUucBqJdOx6glTmMbDe-9" edge="1">
          <mxGeometry relative="1" as="geometry">
            <Array as="points">
              <mxPoint x="300.14" y="2868" />
              <mxPoint x="300.14" y="2978" />
            </Array>
          </mxGeometry>
        </mxCell>
        <mxCell id="NbkLUTGj8sX2wBvh6n6N-4" value="&lt;font style=&quot;font-size: 16px;&quot;&gt;属性&lt;/font&gt;" style="edgeLabel;html=1;align=center;verticalAlign=middle;resizable=0;points=[];" parent="fvUucBqJdOx6glTmMbDe-6" vertex="1" connectable="0">
          <mxGeometry x="-0.3588" y="1" relative="1" as="geometry">
            <mxPoint as="offset" />
          </mxGeometry>
        </mxCell>
        <mxCell id="5yQ3ogZ6_WC2ORXl4SrJ-9" style="edgeStyle=orthogonalEdgeStyle;rounded=0;orthogonalLoop=1;jettySize=auto;html=1;" parent="1" source="fvUucBqJdOx6glTmMbDe-7" target="5yQ3ogZ6_WC2ORXl4SrJ-8" edge="1">
          <mxGeometry relative="1" as="geometry" />
        </mxCell>
        <mxCell id="fvUucBqJdOx6glTmMbDe-7" value="&lt;span style=&quot;color: rgb(45, 49, 64); font-family: &amp;quot;Open Sans&amp;quot;; font-size: 14px; text-align: left; background-color: rgb(255, 255, 255);&quot;&gt;标识符&lt;br&gt;&lt;/span&gt;" style="rounded=0;whiteSpace=wrap;html=1;" parent="1" vertex="1">
          <mxGeometry x="120.14" y="2838" width="120" height="60" as="geometry" />
        </mxCell>
        <mxCell id="fvUucBqJdOx6glTmMbDe-8" value="&lt;span style=&quot;color: rgb(45, 49, 64); font-family: Monaco, Consolas, &amp;quot;Andale Mono&amp;quot;, &amp;quot;DejaVu Sans Mono&amp;quot;, monospace; font-size: 14px; text-align: start; background-color: rgb(230, 230, 230);&quot;&gt;scope&lt;br&gt;(&lt;/span&gt;&lt;span style=&quot;color: rgb(45, 49, 64); font-family: &amp;quot;Open Sans&amp;quot;; font-size: 14px; text-align: start; background-color: rgb(255, 255, 255);&quot;&gt;范围是一个编译时属性&lt;/span&gt;&lt;span style=&quot;color: rgb(45, 49, 64); font-family: Monaco, Consolas, &amp;quot;Andale Mono&amp;quot;, &amp;quot;DejaVu Sans Mono&amp;quot;, monospace; font-size: 14px; text-align: start; background-color: rgb(230, 230, 230);&quot;&gt;)&lt;/span&gt;" style="rounded=0;whiteSpace=wrap;html=1;" parent="1" vertex="1">
          <mxGeometry x="509" y="2700" width="160" height="62" as="geometry" />
        </mxCell>
        <mxCell id="Pvb7XkKKDdEXnkuy6YKq-32" style="edgeStyle=orthogonalEdgeStyle;rounded=0;orthogonalLoop=1;jettySize=auto;html=1;" parent="1" source="fvUucBqJdOx6glTmMbDe-9" target="Pvb7XkKKDdEXnkuy6YKq-29" edge="1">
          <mxGeometry relative="1" as="geometry">
            <Array as="points">
              <mxPoint x="566" y="2968" />
              <mxPoint x="566" y="2941" />
            </Array>
          </mxGeometry>
        </mxCell>
        <mxCell id="Pvb7XkKKDdEXnkuy6YKq-33" style="edgeStyle=orthogonalEdgeStyle;rounded=0;orthogonalLoop=1;jettySize=auto;html=1;" parent="1" source="fvUucBqJdOx6glTmMbDe-9" target="Pvb7XkKKDdEXnkuy6YKq-30" edge="1">
          <mxGeometry relative="1" as="geometry">
            <Array as="points">
              <mxPoint x="566" y="2968" />
              <mxPoint x="566" y="3029" />
            </Array>
          </mxGeometry>
        </mxCell>
        <mxCell id="Pvb7XkKKDdEXnkuy6YKq-34" style="edgeStyle=orthogonalEdgeStyle;rounded=0;orthogonalLoop=1;jettySize=auto;html=1;entryX=0;entryY=0.5;entryDx=0;entryDy=0;" parent="1" source="fvUucBqJdOx6glTmMbDe-9" target="Pvb7XkKKDdEXnkuy6YKq-31" edge="1">
          <mxGeometry relative="1" as="geometry">
            <Array as="points">
              <mxPoint x="566" y="2968" />
              <mxPoint x="566" y="3135" />
            </Array>
          </mxGeometry>
        </mxCell>
        <mxCell id="fvUucBqJdOx6glTmMbDe-9" value="&lt;em style=&quot;box-sizing: inherit; margin: 0px; padding: 0px; border: 0px; font-variant-numeric: inherit; font-variant-east-asian: inherit; font-variant-alternates: inherit; font-variant-position: inherit; font-variant-emoji: inherit; font-stretch: inherit; font-size: 14px; line-height: inherit; font-family: &amp;quot;Open Sans&amp;quot;; font-optical-sizing: inherit; font-size-adjust: inherit; font-kerning: inherit; font-feature-settings: inherit; font-variation-settings: inherit; color: rgb(45, 49, 64); text-align: start; background-color: rgb(255, 255, 255);&quot; data-immersive-translate-walked=&quot;6afb6334-6282-4ce6-894a-930fbfaf0ec0&quot;&gt;links&amp;nbsp;&lt;/em&gt;" style="rounded=0;whiteSpace=wrap;html=1;" parent="1" vertex="1">
          <mxGeometry x="366" y="2938" width="120" height="60" as="geometry" />
        </mxCell>
        <mxCell id="fvUucBqJdOx6glTmMbDe-10" value="&lt;span style=&quot;color: rgb(45, 49, 64); font-family: &amp;quot;Open Sans&amp;quot;; font-size: 14px; text-align: start; background-color: rgb(255, 255, 255);&quot;&gt;决定了在代码中可以看到和使用单个标识符的声明&lt;/span&gt;&lt;div&gt;&lt;span style=&quot;color: rgb(45, 49, 64); font-family: &amp;quot;Open Sans&amp;quot;; font-size: 14px; text-align: start; background-color: rgb(255, 255, 255);&quot;&gt;&lt;br&gt;&lt;/span&gt;&lt;/div&gt;&lt;div&gt;&lt;span style=&quot;color: rgb(45, 49, 64); font-family: &amp;quot;Open Sans&amp;quot;; font-size: 14px; text-align: start; background-color: rgb(255, 255, 255);&quot;&gt;可用&lt;/span&gt;&lt;span style=&quot;background-color: rgb(222, 222, 222); color: rgb(67, 70, 81); font-family: &amp;quot;Open Sans&amp;quot;; font-size: 18px; text-align: left;&quot;&gt;前向声明&lt;/span&gt;&lt;/div&gt;" style="shape=note;whiteSpace=wrap;html=1;backgroundOutline=1;fontColor=#000000;darkOpacity=0.05;fillColor=#FFF9B2;strokeColor=none;fillStyle=solid;direction=west;gradientDirection=north;gradientColor=#FFF2A1;shadow=1;size=20;pointerEvents=1;" parent="1" vertex="1">
          <mxGeometry x="429" y="2750" width="160" height="70" as="geometry" />
        </mxCell>
        <mxCell id="fvUucBqJdOx6glTmMbDe-11" value="&lt;span style=&quot;color: rgb(45, 49, 64); font-family: &amp;quot;Open Sans&amp;quot;; font-size: 14px; text-align: start; background-color: rgb(255, 255, 255);&quot;&gt;确定同一标识符的多个声明是否引用同一对象&lt;/span&gt;" style="shape=note;whiteSpace=wrap;html=1;backgroundOutline=1;fontColor=#000000;darkOpacity=0.05;fillColor=#FFF9B2;strokeColor=none;fillStyle=solid;direction=west;gradientDirection=north;gradientColor=#FFF2A1;shadow=1;size=20;pointerEvents=1;" parent="1" vertex="1">
          <mxGeometry x="336" y="2998" width="180" height="62" as="geometry" />
        </mxCell>
        <mxCell id="-jIWmPzofc5P5sN-8sY--1" style="edgeStyle=orthogonalEdgeStyle;rounded=0;orthogonalLoop=1;jettySize=auto;html=1;" parent="1" source="-jIWmPzofc5P5sN-8sY--3" target="-jIWmPzofc5P5sN-8sY--4" edge="1">
          <mxGeometry relative="1" as="geometry">
            <mxPoint x="1730" y="840" as="targetPoint" />
            <Array as="points">
              <mxPoint x="1430" y="870" />
            </Array>
          </mxGeometry>
        </mxCell>
        <mxCell id="-jIWmPzofc5P5sN-8sY--2" style="edgeStyle=orthogonalEdgeStyle;rounded=0;orthogonalLoop=1;jettySize=auto;html=1;" parent="1" source="-jIWmPzofc5P5sN-8sY--3" target="-jIWmPzofc5P5sN-8sY--12" edge="1">
          <mxGeometry relative="1" as="geometry">
            <mxPoint x="1630" y="1110" as="targetPoint" />
            <Array as="points">
              <mxPoint x="1430" y="1110" />
            </Array>
          </mxGeometry>
        </mxCell>
        <mxCell id="-jIWmPzofc5P5sN-8sY--3" value="&lt;span style=&quot;color: rgb(45, 49, 64); font-family: &amp;quot;Open Sans&amp;quot;; text-align: start; background-color: rgb(255, 255, 255);&quot;&gt;&lt;font style=&quot;font-size: 20px;&quot;&gt;派生类&lt;/font&gt;&lt;/span&gt;&lt;div&gt;&lt;span style=&quot;color: rgb(45, 49, 64); font-family: &amp;quot;Open Sans&amp;quot;; text-align: start; background-color: rgb(255, 255, 255);&quot;&gt;&lt;font style=&quot;font-size: 20px;&quot;&gt;(两部分构成)&lt;/font&gt;&lt;/span&gt;&lt;/div&gt;" style="rounded=0;whiteSpace=wrap;html=1;" parent="1" vertex="1">
          <mxGeometry x="1370" y="940" width="120" height="60" as="geometry" />
        </mxCell>
        <mxCell id="-jIWmPzofc5P5sN-8sY--4" value="&lt;div style=&quot;text-align: start;&quot;&gt;&lt;font face=&quot;Open Sans&quot; color=&quot;#2d3140&quot;&gt;&lt;span style=&quot;font-size: 18px; letter-spacing: 0.25px; background-color: rgb(255, 255, 255);&quot;&gt;&lt;b&gt;基础部分&lt;/b&gt;&lt;/span&gt;&lt;/font&gt;&lt;/div&gt;&lt;div style=&quot;text-align: start;&quot;&gt;&lt;font face=&quot;Open Sans&quot; color=&quot;#2d3140&quot;&gt;&lt;span style=&quot;font-size: 18px; letter-spacing: 0.25px; background-color: rgb(255, 255, 255);&quot;&gt;&lt;b&gt;（先&lt;/b&gt;&lt;/span&gt;&lt;/font&gt;&lt;span style=&quot;background-color: rgb(255, 255, 255); color: rgb(45, 49, 64); font-family: &amp;quot;Open Sans&amp;quot;;&quot;&gt;&lt;font style=&quot;font-size: 20px;&quot;&gt;构造&lt;/font&gt;&lt;/span&gt;&lt;b style=&quot;font-size: 18px; letter-spacing: 0.25px; color: rgb(45, 49, 64); font-family: &amp;quot;Open Sans&amp;quot;;&quot;&gt;）&lt;/b&gt;&lt;/div&gt;" style="rounded=0;whiteSpace=wrap;html=1;" parent="1" vertex="1">
          <mxGeometry x="1610" y="830" width="160" height="80" as="geometry" />
        </mxCell>
        <mxCell id="-jIWmPzofc5P5sN-8sY--11" value="&lt;font style=&quot;font-size: 30px;&quot;&gt;继承&lt;/font&gt;" style="text;strokeColor=none;align=center;fillColor=none;html=1;verticalAlign=middle;whiteSpace=wrap;rounded=0;" parent="1" vertex="1">
          <mxGeometry x="1250" y="750" width="100" height="60" as="geometry" />
        </mxCell>
        <mxCell id="-jIWmPzofc5P5sN-8sY--12" value="&lt;div style=&quot;text-align: start;&quot;&gt;&lt;font face=&quot;Open Sans&quot; color=&quot;#2d3140&quot;&gt;&lt;span style=&quot;font-size: 18px; letter-spacing: 0.25px; background-color: rgb(255, 255, 255);&quot;&gt;&lt;b&gt;派生部分&lt;/b&gt;&lt;/span&gt;&lt;/font&gt;&lt;/div&gt;&lt;div style=&quot;text-align: start;&quot;&gt;&lt;font face=&quot;Open Sans&quot; color=&quot;#2d3140&quot;&gt;&lt;span style=&quot;font-size: 18px; letter-spacing: 0.25px; background-color: rgb(255, 255, 255);&quot;&gt;&lt;b&gt;（后）&lt;/b&gt;&lt;/span&gt;&lt;/font&gt;&lt;/div&gt;" style="rounded=0;whiteSpace=wrap;html=1;" parent="1" vertex="1">
          <mxGeometry x="1600" y="1070" width="160" height="80" as="geometry" />
        </mxCell>
        <mxCell id="-jIWmPzofc5P5sN-8sY--13" value="&lt;div style=&quot;text-align: start;&quot;&gt;&lt;span style=&quot;font-size: 20px; background-color: initial;&quot;&gt;按顺序遍历继承树&lt;/span&gt;&lt;span style=&quot;font-size: 20px; background-color: initial;&quot;&gt;构造，从父到子&lt;/span&gt;&lt;/div&gt;" style="shape=note;whiteSpace=wrap;html=1;backgroundOutline=1;fontColor=#ffffff;darkOpacity=0.05;fillColor=#e51400;strokeColor=#B20000;fillStyle=solid;direction=west;gradientDirection=north;shadow=1;size=20;pointerEvents=1;" parent="1" vertex="1">
          <mxGeometry x="1490" y="940" width="240" height="90" as="geometry" />
        </mxCell>
        <mxCell id="R4vnkSGysQsOYlU7WVH3-4" value="&lt;span style=&quot;font-family: &amp;quot;Open Sans&amp;quot;; text-align: start; background-color: light-dark(rgb(24, 26, 27), rgb(0, 0, 0));&quot;&gt;&lt;font style=&quot;font-size: 18px; color: light-dark(rgb(198, 193, 185), rgb(255, 255, 255));&quot;&gt;返回类型、名称和参数&lt;/font&gt;&lt;/span&gt;" style="whiteSpace=wrap;html=1;shape=partialRectangle;top=0;left=0;bottom=1;right=0;points=[[0,1],[1,1]];fillColor=none;align=center;verticalAlign=bottom;routingCenterY=0.5;snapToPoint=1;recursiveResize=0;autosize=1;treeFolding=1;treeMoving=1;newEdgeStyle={&quot;edgeStyle&quot;:&quot;entityRelationEdgeStyle&quot;,&quot;startArrow&quot;:&quot;none&quot;,&quot;endArrow&quot;:&quot;none&quot;,&quot;segment&quot;:10,&quot;curved&quot;:1,&quot;sourcePerimeterSpacing&quot;:0,&quot;targetPerimeterSpacing&quot;:0};" parent="1" vertex="1">
          <mxGeometry x="505.14" y="3270" width="220" height="40" as="geometry" />
        </mxCell>
        <mxCell id="R4vnkSGysQsOYlU7WVH3-5" value="" style="edgeStyle=entityRelationEdgeStyle;startArrow=none;endArrow=none;segment=10;curved=1;sourcePerimeterSpacing=0;targetPerimeterSpacing=0;rounded=0;exitX=1;exitY=0.5;exitDx=0;exitDy=0;" parent="1" source="R4vnkSGysQsOYlU7WVH3-8" target="R4vnkSGysQsOYlU7WVH3-4" edge="1">
          <mxGeometry relative="1" as="geometry">
            <mxPoint x="290.14" y="3190" as="sourcePoint" />
          </mxGeometry>
        </mxCell>
        <mxCell id="p9sFb-CSKnd5xUBQKQXD-10" style="edgeStyle=orthogonalEdgeStyle;rounded=0;orthogonalLoop=1;jettySize=auto;html=1;entryX=0;entryY=0.75;entryDx=0;entryDy=0;" parent="1" source="R4vnkSGysQsOYlU7WVH3-7" target="NbkLUTGj8sX2wBvh6n6N-10" edge="1">
          <mxGeometry relative="1" as="geometry" />
        </mxCell>
        <mxCell id="p9sFb-CSKnd5xUBQKQXD-11" style="edgeStyle=orthogonalEdgeStyle;rounded=0;orthogonalLoop=1;jettySize=auto;html=1;" parent="1" source="R4vnkSGysQsOYlU7WVH3-7" target="Pvb7XkKKDdEXnkuy6YKq-47" edge="1">
          <mxGeometry relative="1" as="geometry" />
        </mxCell>
        <mxCell id="p9sFb-CSKnd5xUBQKQXD-12" style="edgeStyle=orthogonalEdgeStyle;rounded=0;orthogonalLoop=1;jettySize=auto;html=1;entryX=0;entryY=0.5;entryDx=0;entryDy=0;" parent="1" source="R4vnkSGysQsOYlU7WVH3-7" target="R4vnkSGysQsOYlU7WVH3-8" edge="1">
          <mxGeometry relative="1" as="geometry" />
        </mxCell>
        <mxCell id="p9sFb-CSKnd5xUBQKQXD-13" style="edgeStyle=orthogonalEdgeStyle;rounded=0;orthogonalLoop=1;jettySize=auto;html=1;entryX=0;entryY=0.5;entryDx=0;entryDy=0;" parent="1" source="R4vnkSGysQsOYlU7WVH3-7" target="p9sFb-CSKnd5xUBQKQXD-9" edge="1">
          <mxGeometry relative="1" as="geometry" />
        </mxCell>
        <mxCell id="eFboOEVi-35JP6s5Aphw-2" style="edgeStyle=orthogonalEdgeStyle;rounded=0;orthogonalLoop=1;jettySize=auto;html=1;entryX=0;entryY=0.5;entryDx=0;entryDy=0;" parent="1" source="R4vnkSGysQsOYlU7WVH3-7" target="eFboOEVi-35JP6s5Aphw-1" edge="1">
          <mxGeometry relative="1" as="geometry" />
        </mxCell>
        <mxCell id="R4vnkSGysQsOYlU7WVH3-7" value="&lt;span style=&quot;color: rgb(45, 49, 64); font-family: &amp;quot;Open Sans&amp;quot;; text-align: start; background-color: rgb(255, 255, 255);&quot;&gt;&lt;font style=&quot;font-size: 18px;&quot;&gt;函数&lt;/font&gt;&lt;/span&gt;" style="rounded=0;whiteSpace=wrap;html=1;" parent="1" vertex="1">
          <mxGeometry x="120.14" y="3310" width="120" height="60" as="geometry" />
        </mxCell>
        <mxCell id="R4vnkSGysQsOYlU7WVH3-8" value="&lt;strong style=&quot;box-sizing: inherit; margin: 0px; padding: 0px; border: 0px; font-variant-numeric: inherit; font-variant-east-asian: inherit; font-variant-alternates: inherit; font-variant-position: inherit; font-variant-emoji: inherit; font-stretch: inherit; font-size: 14px; line-height: inherit; font-family: &amp;quot;Open Sans&amp;quot;; font-optical-sizing: inherit; font-size-adjust: inherit; font-kerning: inherit; font-feature-settings: inherit; font-variation-settings: inherit; color: rgb(45, 49, 64); text-align: start; background-color: rgb(255, 255, 255);&quot; data-immersive-translate-walked=&quot;6afb6334-6282-4ce6-894a-930fbfaf0ec0&quot;&gt;函数原型&lt;/strong&gt;" style="rounded=0;whiteSpace=wrap;html=1;" parent="1" vertex="1">
          <mxGeometry x="320.14" y="3260" width="130" height="50" as="geometry" />
        </mxCell>
        <mxCell id="R4vnkSGysQsOYlU7WVH3-10" style="edgeStyle=entityRelationEdgeStyle;rounded=0;orthogonalLoop=1;jettySize=auto;html=1;startArrow=none;endArrow=none;segment=10;curved=1;sourcePerimeterSpacing=0;targetPerimeterSpacing=0;entryX=0.5;entryY=1;entryDx=0;entryDy=0;" parent="1" source="R4vnkSGysQsOYlU7WVH3-9" target="fvUucBqJdOx6glTmMbDe-7" edge="1">
          <mxGeometry relative="1" as="geometry">
            <mxPoint x="99.99714285714312" y="2957.857142857143" as="sourcePoint" />
          </mxGeometry>
        </mxCell>
        <mxCell id="R4vnkSGysQsOYlU7WVH3-9" value="&lt;span style=&quot;font-family: &amp;quot;Open Sans&amp;quot;; text-align: start;&quot;&gt;&lt;font style=&quot;font-size: 18px; color: light-dark(rgb(198, 193, 185), rgb(255, 0, 0));&quot;&gt;定义&lt;/font&gt;&lt;font style=&quot;font-size: 18px; color: light-dark(rgb(198, 193, 185), rgb(255, 255, 255));&quot;&gt;就是实现（for 函数 or type）&lt;br&gt;&lt;/font&gt;&lt;/span&gt;&lt;span style=&quot;font-family: &amp;quot;Open Sans&amp;quot;; text-align: start; background-color: light-dark(rgb(24, 26, 27), rgb(0, 0, 0));&quot;&gt;&lt;font style=&quot;font-size: 18px; color: light-dark(rgb(198, 193, 185), rgb(255, 255, 255));&quot;&gt;或实例化（for 变量）创建一个标识符&lt;br&gt;&lt;/font&gt;&lt;/span&gt;&lt;div&gt;&lt;strong style=&quot;box-sizing: inherit; margin: 0px; padding: 0px; border: 0px; font-variant-numeric: inherit; font-variant-east-asian: inherit; font-variant-alternates: inherit; font-variant-position: inherit; font-variant-emoji: inherit; font-stretch: inherit; line-height: inherit; font-family: &amp;quot;Open Sans&amp;quot;; font-optical-sizing: inherit; font-size-adjust: inherit; font-kerning: inherit; font-feature-settings: inherit; font-variation-settings: inherit; text-align: start; background-color: rgb(24, 26, 27);&quot; data-immersive-translate-walked=&quot;d34e24df-bb25-4a0b-a7c1-2d1896ef61fb&quot;&gt;&lt;font style=&quot;font-size: 16px; color: light-dark(rgb(198, 193, 185), rgb(255, 0, 0));&quot;&gt;声明&lt;/font&gt;&lt;/strong&gt;&lt;span style=&quot;color: rgb(198, 193, 185); font-family: &amp;quot;Open Sans&amp;quot;; font-size: 14px; text-align: start; background-color: rgb(24, 26, 27);&quot;&gt;是告诉编译器标识符存在的语句&lt;/span&gt;&lt;span style=&quot;font-family: &amp;quot;Open Sans&amp;quot;; text-align: start; background-color: light-dark(rgb(24, 26, 27), rgb(0, 0, 0));&quot;&gt;&lt;font style=&quot;font-size: 18px; color: light-dark(rgb(198, 193, 185), rgb(255, 255, 255));&quot;&gt;&lt;/font&gt;&lt;/span&gt;&lt;/div&gt;" style="whiteSpace=wrap;html=1;shape=partialRectangle;top=0;left=0;bottom=1;right=0;points=[[0,1],[1,1]];fillColor=none;align=center;verticalAlign=bottom;routingCenterY=0.5;snapToPoint=1;recursiveResize=0;autosize=1;treeFolding=1;treeMoving=1;newEdgeStyle={&quot;edgeStyle&quot;:&quot;entityRelationEdgeStyle&quot;,&quot;startArrow&quot;:&quot;none&quot;,&quot;endArrow&quot;:&quot;none&quot;,&quot;segment&quot;:10,&quot;curved&quot;:1,&quot;sourcePerimeterSpacing&quot;:0,&quot;targetPerimeterSpacing&quot;:0};" parent="1" vertex="1">
          <mxGeometry x="-250" y="2910" width="340" height="80" as="geometry" />
        </mxCell>
        <mxCell id="R4vnkSGysQsOYlU7WVH3-22" style="edgeStyle=orthogonalEdgeStyle;rounded=0;orthogonalLoop=1;jettySize=auto;html=1;" parent="1" source="R4vnkSGysQsOYlU7WVH3-11" target="R4vnkSGysQsOYlU7WVH3-21" edge="1">
          <mxGeometry relative="1" as="geometry" />
        </mxCell>
        <mxCell id="R4vnkSGysQsOYlU7WVH3-11" value="&lt;span style=&quot;color: rgb(45, 49, 64); font-family: &amp;quot;Open Sans&amp;quot;; font-size: 14px; text-align: start; background-color: rgb(255, 255, 255);&quot;&gt;对象&lt;br&gt;object&lt;/span&gt;&lt;div&gt;&lt;span style=&quot;color: rgb(45, 49, 64); font-family: &amp;quot;Open Sans&amp;quot;; font-size: 14px; text-align: start; background-color: rgb(255, 255, 255);&quot;&gt;&lt;span style=&quot;color: rgb(198, 193, 185); background-color: rgb(24, 26, 27);&quot;&gt;一块可用于存储值的内存&lt;/span&gt;&lt;/span&gt;&lt;/div&gt;" style="rounded=0;whiteSpace=wrap;html=1;" parent="1" vertex="1">
          <mxGeometry x="-340" y="2570" width="160" height="60" as="geometry" />
        </mxCell>
        <mxCell id="R4vnkSGysQsOYlU7WVH3-14" style="edgeStyle=entityRelationEdgeStyle;rounded=0;orthogonalLoop=1;jettySize=auto;html=1;startArrow=none;endArrow=none;segment=10;curved=1;sourcePerimeterSpacing=0;targetPerimeterSpacing=0;" parent="1" source="R4vnkSGysQsOYlU7WVH3-13" target="R4vnkSGysQsOYlU7WVH3-11" edge="1">
          <mxGeometry relative="1" as="geometry" />
        </mxCell>
        <mxCell id="R4vnkSGysQsOYlU7WVH3-13" value="&lt;span style=&quot;font-family: &amp;quot;Open Sans&amp;quot;; text-align: start; background-color: light-dark(rgb(24, 26, 27), rgb(0, 0, 0));&quot;&gt;&lt;font style=&quot;font-size: 18px; color: light-dark(rgb(198, 193, 185), rgb(255, 255, 255));&quot;&gt;通过对象间接访问内存；&lt;/font&gt;&lt;/span&gt;" style="whiteSpace=wrap;html=1;shape=partialRectangle;top=0;left=0;bottom=1;right=0;points=[[0,1],[1,1]];fillColor=none;align=center;verticalAlign=bottom;routingCenterY=0.5;snapToPoint=1;recursiveResize=0;autosize=1;treeFolding=1;treeMoving=1;newEdgeStyle={&quot;edgeStyle&quot;:&quot;entityRelationEdgeStyle&quot;,&quot;startArrow&quot;:&quot;none&quot;,&quot;endArrow&quot;:&quot;none&quot;,&quot;segment&quot;:10,&quot;curved&quot;:1,&quot;sourcePerimeterSpacing&quot;:0,&quot;targetPerimeterSpacing&quot;:0};" parent="1" vertex="1">
          <mxGeometry x="-623" y="2550" width="240" height="40" as="geometry" />
        </mxCell>
        <mxCell id="R4vnkSGysQsOYlU7WVH3-16" style="edgeStyle=entityRelationEdgeStyle;rounded=0;orthogonalLoop=1;jettySize=auto;html=1;startArrow=none;endArrow=none;segment=10;curved=1;sourcePerimeterSpacing=0;targetPerimeterSpacing=0;" parent="1" source="R4vnkSGysQsOYlU7WVH3-15" target="R4vnkSGysQsOYlU7WVH3-11" edge="1">
          <mxGeometry relative="1" as="geometry" />
        </mxCell>
        <mxCell id="R4vnkSGysQsOYlU7WVH3-17" style="edgeStyle=entityRelationEdgeStyle;rounded=0;orthogonalLoop=1;jettySize=auto;html=1;startArrow=none;endArrow=none;segment=10;curved=1;sourcePerimeterSpacing=0;targetPerimeterSpacing=0;" parent="1" source="R4vnkSGysQsOYlU7WVH3-15" target="fvUucBqJdOx6glTmMbDe-3" edge="1">
          <mxGeometry relative="1" as="geometry" />
        </mxCell>
        <mxCell id="R4vnkSGysQsOYlU7WVH3-15" value="&lt;div style=&quot;text-align: start;&quot;&gt;&lt;font face=&quot;Open Sans&quot; color=&quot;#4a463f&quot;&gt;&lt;span style=&quot;font-size: 14px; background-color: rgb(214, 216, 217);&quot;&gt;具有名称（标识符）的对象&lt;/span&gt;&lt;/font&gt;&lt;/div&gt;" style="whiteSpace=wrap;html=1;shape=partialRectangle;top=0;left=0;bottom=1;right=0;points=[[0,1],[1,1]];fillColor=none;align=center;verticalAlign=bottom;routingCenterY=0.5;snapToPoint=1;recursiveResize=0;autosize=1;treeFolding=1;treeMoving=1;newEdgeStyle={&quot;edgeStyle&quot;:&quot;entityRelationEdgeStyle&quot;,&quot;startArrow&quot;:&quot;none&quot;,&quot;endArrow&quot;:&quot;none&quot;,&quot;segment&quot;:10,&quot;curved&quot;:1,&quot;sourcePerimeterSpacing&quot;:0,&quot;targetPerimeterSpacing&quot;:0};" parent="1" vertex="1">
          <mxGeometry x="-145" y="2520" width="210" height="30" as="geometry" />
        </mxCell>
        <mxCell id="R4vnkSGysQsOYlU7WVH3-19" style="edgeStyle=entityRelationEdgeStyle;rounded=0;orthogonalLoop=1;jettySize=auto;html=1;startArrow=none;endArrow=none;segment=10;curved=1;sourcePerimeterSpacing=0;targetPerimeterSpacing=0;" parent="1" source="R4vnkSGysQsOYlU7WVH3-18" target="fvUucBqJdOx6glTmMbDe-7" edge="1">
          <mxGeometry relative="1" as="geometry" />
        </mxCell>
        <mxCell id="R4vnkSGysQsOYlU7WVH3-20" style="edgeStyle=entityRelationEdgeStyle;rounded=0;orthogonalLoop=1;jettySize=auto;html=1;startArrow=none;endArrow=none;segment=10;curved=1;sourcePerimeterSpacing=0;targetPerimeterSpacing=0;entryX=0.5;entryY=1;entryDx=0;entryDy=0;" parent="1" source="R4vnkSGysQsOYlU7WVH3-18" target="R4vnkSGysQsOYlU7WVH3-11" edge="1">
          <mxGeometry relative="1" as="geometry" />
        </mxCell>
        <mxCell id="R4vnkSGysQsOYlU7WVH3-18" value="&lt;span style=&quot;font-family: &amp;quot;Open Sans&amp;quot;; text-align: start; background-color: light-dark(rgb(24, 26, 27), rgb(0, 0, 0));&quot;&gt;&lt;font style=&quot;font-size: 18px; color: light-dark(rgb(198, 193, 185), rgb(255, 255, 255));&quot;&gt;使用标识符命名对象&lt;/font&gt;&lt;/span&gt;" style="whiteSpace=wrap;html=1;shape=partialRectangle;top=0;left=0;bottom=1;right=0;points=[[0,1],[1,1]];fillColor=none;align=center;verticalAlign=bottom;routingCenterY=0.5;snapToPoint=1;recursiveResize=0;autosize=1;treeFolding=1;treeMoving=1;newEdgeStyle={&quot;edgeStyle&quot;:&quot;entityRelationEdgeStyle&quot;,&quot;startArrow&quot;:&quot;none&quot;,&quot;endArrow&quot;:&quot;none&quot;,&quot;segment&quot;:10,&quot;curved&quot;:1,&quot;sourcePerimeterSpacing&quot;:0,&quot;targetPerimeterSpacing&quot;:0};" parent="1" vertex="1">
          <mxGeometry x="-160" y="2688" width="200" height="40" as="geometry" />
        </mxCell>
        <mxCell id="R4vnkSGysQsOYlU7WVH3-21" value="&lt;span style=&quot;color: rgb(45, 49, 64); font-family: &amp;quot;Open Sans&amp;quot;; font-size: 14px; text-align: start; background-color: rgb(255, 255, 255);&quot;&gt;未命名（匿名）&lt;/span&gt;" style="rounded=0;whiteSpace=wrap;html=1;" parent="1" vertex="1">
          <mxGeometry x="-20" y="2570" width="120" height="60" as="geometry" />
        </mxCell>
        <mxCell id="Pvb7XkKKDdEXnkuy6YKq-2" value="&lt;span style=&quot;font-family: &amp;quot;Open Sans&amp;quot;; text-align: start; background-color: light-dark(rgb(24, 26, 27), rgb(0, 0, 0));&quot;&gt;&lt;font style=&quot;font-size: 18px; color: light-dark(rgb(198, 193, 185), rgb(255, 255, 255));&quot;&gt;函数参数和函数体内定义的变量&lt;/font&gt;&lt;/span&gt;" style="whiteSpace=wrap;html=1;shape=partialRectangle;top=0;left=0;bottom=1;right=0;points=[[0,1],[1,1]];fillColor=none;align=center;verticalAlign=bottom;routingCenterY=0.5;snapToPoint=1;recursiveResize=0;autosize=1;treeFolding=1;treeMoving=1;newEdgeStyle={&quot;edgeStyle&quot;:&quot;entityRelationEdgeStyle&quot;,&quot;startArrow&quot;:&quot;none&quot;,&quot;endArrow&quot;:&quot;none&quot;,&quot;segment&quot;:10,&quot;curved&quot;:1,&quot;sourcePerimeterSpacing&quot;:0,&quot;targetPerimeterSpacing&quot;:0};" parent="1" vertex="1">
          <mxGeometry x="579.93" y="1830" width="290" height="40" as="geometry" />
        </mxCell>
        <mxCell id="Pvb7XkKKDdEXnkuy6YKq-3" value="" style="edgeStyle=entityRelationEdgeStyle;startArrow=none;endArrow=none;segment=10;curved=1;sourcePerimeterSpacing=0;targetPerimeterSpacing=0;rounded=0;" parent="1" source="Pvb7XkKKDdEXnkuy6YKq-5" target="Pvb7XkKKDdEXnkuy6YKq-2" edge="1">
          <mxGeometry relative="1" as="geometry">
            <mxPoint x="559.93" y="1980" as="sourcePoint" />
            <Array as="points">
              <mxPoint x="319.93" y="2060" />
            </Array>
          </mxGeometry>
        </mxCell>
        <mxCell id="Pvb7XkKKDdEXnkuy6YKq-5" value="&lt;strong style=&quot;box-sizing: inherit; margin: 0px; padding: 0px; border: 0px; font-variant-numeric: inherit; font-variant-east-asian: inherit; font-variant-alternates: inherit; font-variant-position: inherit; font-variant-emoji: inherit; font-stretch: inherit; line-height: inherit; font-family: &amp;quot;Open Sans&amp;quot;; font-optical-sizing: inherit; font-size-adjust: inherit; font-kerning: inherit; font-feature-settings: inherit; font-variation-settings: inherit; text-align: start;&quot; data-immersive-translate-walked=&quot;ac7f2a82-b788-45ea-8529-8e441806963a&quot;&gt;&lt;font style=&quot;font-size: 18px; color: light-dark(rgb(198, 193, 185), rgb(255, 255, 255));&quot;&gt;局部变量&lt;/font&gt;&lt;/strong&gt;" style="rounded=0;whiteSpace=wrap;html=1;" parent="1" vertex="1">
          <mxGeometry x="344.93" y="1982" width="120" height="60" as="geometry" />
        </mxCell>
        <mxCell id="Pvb7XkKKDdEXnkuy6YKq-8" value="&lt;div style=&quot;text-align: start;&quot;&gt;&lt;b style=&quot;font-size: 18px; font-family: &amp;quot;Open Sans&amp;quot;;&quot;&gt;&lt;font style=&quot;color: light-dark(rgb(0, 0, 0), rgb(255, 255, 255));&quot;&gt;scope&lt;/font&gt;&lt;/b&gt;&lt;/div&gt;&lt;div style=&quot;text-align: start;&quot;&gt;&lt;b style=&quot;font-size: 18px; font-family: &amp;quot;Open Sans&amp;quot;;&quot;&gt;&lt;font style=&quot;color: light-dark(rgb(0, 0, 0), rgb(255, 255, 255));&quot;&gt;(作用域）&lt;/font&gt;&lt;/b&gt;&lt;/div&gt;" style="rounded=0;whiteSpace=wrap;html=1;" parent="1" vertex="1">
          <mxGeometry x="295" y="2570" width="170" height="60" as="geometry" />
        </mxCell>
        <mxCell id="Pvb7XkKKDdEXnkuy6YKq-14" style="edgeStyle=entityRelationEdgeStyle;rounded=0;orthogonalLoop=1;jettySize=auto;html=1;startArrow=none;endArrow=none;segment=10;curved=1;sourcePerimeterSpacing=0;targetPerimeterSpacing=0;" parent="1" source="Pvb7XkKKDdEXnkuy6YKq-13" target="Pvb7XkKKDdEXnkuy6YKq-5" edge="1">
          <mxGeometry relative="1" as="geometry" />
        </mxCell>
        <mxCell id="Pvb7XkKKDdEXnkuy6YKq-13" value="&lt;div&gt;&lt;span style=&quot;font-family: &amp;quot;Open Sans&amp;quot;; text-align: start; background-color: light-dark(rgb(24, 26, 27), rgb(0, 0, 0));&quot;&gt;&lt;font style=&quot;font-size: 18px; color: light-dark(rgb(198, 193, 185), rgb(255, 255, 255));&quot;&gt;auto&amp;nbsp;&lt;/font&gt;&lt;/span&gt;&lt;strong style=&quot;box-sizing: inherit; margin: 0px; padding: 0px; border: 0px; font-variant-numeric: inherit; font-variant-east-asian: inherit; font-variant-alternates: inherit; font-variant-position: inherit; font-variant-emoji: inherit; font-stretch: inherit; line-height: inherit; font-family: &amp;quot;Open Sans&amp;quot;; font-optical-sizing: inherit; font-size-adjust: inherit; font-kerning: inherit; font-feature-settings: inherit; font-variation-settings: inherit; color: rgb(45, 49, 64); text-align: start; background-color: rgb(255, 255, 255);&quot; data-immersive-translate-walked=&quot;6afb6334-6282-4ce6-894a-930fbfaf0ec0&quot;&gt;&lt;font style=&quot;font-size: 18px;&quot;&gt;storage duration&lt;/font&gt;&lt;/strong&gt;&lt;/div&gt;&lt;span style=&quot;font-family: &amp;quot;Open Sans&amp;quot;; text-align: start; background-color: light-dark(rgb(24, 26, 27), rgb(0, 0, 0));&quot;&gt;&lt;font style=&quot;font-size: 18px; color: light-dark(rgb(198, 193, 185), rgb(255, 255, 255));&quot;&gt;有自动存储持续时间&lt;/font&gt;&lt;/span&gt;" style="whiteSpace=wrap;html=1;shape=partialRectangle;top=0;left=0;bottom=1;right=0;points=[[0,1],[1,1]];fillColor=none;align=center;verticalAlign=bottom;routingCenterY=0.5;snapToPoint=1;recursiveResize=0;autosize=1;treeFolding=1;treeMoving=1;newEdgeStyle={&quot;edgeStyle&quot;:&quot;entityRelationEdgeStyle&quot;,&quot;startArrow&quot;:&quot;none&quot;,&quot;endArrow&quot;:&quot;none&quot;,&quot;segment&quot;:10,&quot;curved&quot;:1,&quot;sourcePerimeterSpacing&quot;:0,&quot;targetPerimeterSpacing&quot;:0};" parent="1" vertex="1">
          <mxGeometry x="584.93" y="1990" width="240" height="60" as="geometry" />
        </mxCell>
        <mxCell id="Pvb7XkKKDdEXnkuy6YKq-15" value="&lt;span style=&quot;font-family: &amp;quot;Open Sans&amp;quot;; text-align: start; background-color: light-dark(rgb(24, 26, 27), rgb(0, 0, 0));&quot;&gt;&lt;font style=&quot;font-size: 18px; color: light-dark(rgb(198, 193, 185), rgb(255, 255, 255));&quot;&gt;函数外部定义的变量&lt;/font&gt;&lt;/span&gt;" style="whiteSpace=wrap;html=1;shape=partialRectangle;top=0;left=0;bottom=1;right=0;points=[[0,1],[1,1]];fillColor=none;align=center;verticalAlign=bottom;routingCenterY=0.5;snapToPoint=1;recursiveResize=0;autosize=1;treeFolding=1;treeMoving=1;newEdgeStyle={&quot;edgeStyle&quot;:&quot;entityRelationEdgeStyle&quot;,&quot;startArrow&quot;:&quot;none&quot;,&quot;endArrow&quot;:&quot;none&quot;,&quot;segment&quot;:10,&quot;curved&quot;:1,&quot;sourcePerimeterSpacing&quot;:0,&quot;targetPerimeterSpacing&quot;:0};" parent="1" vertex="1">
          <mxGeometry x="605" y="2140" width="200" height="40" as="geometry" />
        </mxCell>
        <mxCell id="Pvb7XkKKDdEXnkuy6YKq-16" value="" style="edgeStyle=entityRelationEdgeStyle;startArrow=none;endArrow=none;segment=10;curved=1;sourcePerimeterSpacing=0;targetPerimeterSpacing=0;rounded=0;" parent="1" source="Pvb7XkKKDdEXnkuy6YKq-17" target="Pvb7XkKKDdEXnkuy6YKq-15" edge="1">
          <mxGeometry relative="1" as="geometry">
            <mxPoint x="540" y="2240" as="sourcePoint" />
            <Array as="points">
              <mxPoint x="300" y="2320" />
            </Array>
          </mxGeometry>
        </mxCell>
        <mxCell id="Pvb7XkKKDdEXnkuy6YKq-17" value="&lt;strong style=&quot;box-sizing: inherit; margin: 0px; padding: 0px; border: 0px; font-variant-numeric: inherit; font-variant-east-asian: inherit; font-variant-alternates: inherit; font-variant-position: inherit; font-variant-emoji: inherit; font-stretch: inherit; line-height: inherit; font-family: &amp;quot;Open Sans&amp;quot;; font-optical-sizing: inherit; font-size-adjust: inherit; font-kerning: inherit; font-feature-settings: inherit; font-variation-settings: inherit; text-align: start;&quot; data-immersive-translate-walked=&quot;ac7f2a82-b788-45ea-8529-8e441806963a&quot;&gt;&lt;font style=&quot;font-size: 18px; color: light-dark(rgb(198, 193, 185), rgb(255, 255, 255));&quot;&gt;全局变量&lt;/font&gt;&lt;/strong&gt;" style="rounded=0;whiteSpace=wrap;html=1;" parent="1" vertex="1">
          <mxGeometry x="350" y="2180" width="120" height="60" as="geometry" />
        </mxCell>
        <mxCell id="Pvb7XkKKDdEXnkuy6YKq-18" style="edgeStyle=entityRelationEdgeStyle;rounded=0;orthogonalLoop=1;jettySize=auto;html=1;startArrow=none;endArrow=none;segment=10;curved=1;sourcePerimeterSpacing=0;targetPerimeterSpacing=0;" parent="1" source="Pvb7XkKKDdEXnkuy6YKq-19" target="Pvb7XkKKDdEXnkuy6YKq-17" edge="1">
          <mxGeometry relative="1" as="geometry" />
        </mxCell>
        <mxCell id="Pvb7XkKKDdEXnkuy6YKq-19" value="&lt;div&gt;&lt;font style=&quot;font-size: 18px;&quot;&gt;static&lt;/font&gt;&amp;nbsp;&lt;strong style=&quot;box-sizing: inherit; margin: 0px; padding: 0px; border: 0px; font-variant-numeric: inherit; font-variant-east-asian: inherit; font-variant-alternates: inherit; font-variant-position: inherit; font-variant-emoji: inherit; font-stretch: inherit; line-height: inherit; font-family: &amp;quot;Open Sans&amp;quot;; font-optical-sizing: inherit; font-size-adjust: inherit; font-kerning: inherit; font-feature-settings: inherit; font-variation-settings: inherit; color: rgb(45, 49, 64); text-align: start; background-color: rgb(255, 255, 255);&quot; data-immersive-translate-walked=&quot;6afb6334-6282-4ce6-894a-930fbfaf0ec0&quot;&gt;&lt;font style=&quot;font-size: 18px;&quot;&gt;duration&lt;/font&gt;&lt;/strong&gt;&lt;/div&gt;&lt;span style=&quot;font-family: &amp;quot;Open Sans&amp;quot;; text-align: start; background-color: light-dark(rgb(24, 26, 27), rgb(0, 0, 0));&quot;&gt;&lt;font style=&quot;font-size: 18px; color: light-dark(rgb(198, 193, 185), rgb(255, 255, 255));&quot;&gt;静态存储持续时间&lt;/font&gt;&lt;/span&gt;" style="whiteSpace=wrap;html=1;shape=partialRectangle;top=0;left=0;bottom=1;right=0;points=[[0,1],[1,1]];fillColor=none;align=center;verticalAlign=bottom;routingCenterY=0.5;snapToPoint=1;recursiveResize=0;autosize=1;treeFolding=1;treeMoving=1;newEdgeStyle={&quot;edgeStyle&quot;:&quot;entityRelationEdgeStyle&quot;,&quot;startArrow&quot;:&quot;none&quot;,&quot;endArrow&quot;:&quot;none&quot;,&quot;segment&quot;:10,&quot;curved&quot;:1,&quot;sourcePerimeterSpacing&quot;:0,&quot;targetPerimeterSpacing&quot;:0};" parent="1" vertex="1">
          <mxGeometry x="605" y="2270" width="180" height="60" as="geometry" />
        </mxCell>
        <mxCell id="Pvb7XkKKDdEXnkuy6YKq-24" style="edgeStyle=entityRelationEdgeStyle;rounded=0;orthogonalLoop=1;jettySize=auto;html=1;startArrow=none;endArrow=none;segment=10;curved=1;sourcePerimeterSpacing=0;targetPerimeterSpacing=0;" parent="1" source="Pvb7XkKKDdEXnkuy6YKq-22" target="Pvb7XkKKDdEXnkuy6YKq-5" edge="1">
          <mxGeometry relative="1" as="geometry" />
        </mxCell>
        <mxCell id="Pvb7XkKKDdEXnkuy6YKq-22" value="&lt;span style=&quot;font-family: &amp;quot;Open Sans&amp;quot;; text-align: start; background-color: light-dark(rgb(24, 26, 27), rgb(0, 0, 0));&quot;&gt;&lt;font style=&quot;font-size: 18px; color: light-dark(rgb(198, 193, 185), rgb(255, 255, 255));&quot;&gt;block scope&lt;br&gt;块作用域&lt;/font&gt;&lt;/span&gt;" style="whiteSpace=wrap;html=1;shape=partialRectangle;top=0;left=0;bottom=1;right=0;points=[[0,1],[1,1]];fillColor=none;align=center;verticalAlign=bottom;routingCenterY=0.5;snapToPoint=1;recursiveResize=0;autosize=1;treeFolding=1;treeMoving=1;newEdgeStyle={&quot;edgeStyle&quot;:&quot;entityRelationEdgeStyle&quot;,&quot;startArrow&quot;:&quot;none&quot;,&quot;endArrow&quot;:&quot;none&quot;,&quot;segment&quot;:10,&quot;curved&quot;:1,&quot;sourcePerimeterSpacing&quot;:0,&quot;targetPerimeterSpacing&quot;:0};" parent="1" vertex="1">
          <mxGeometry x="589.93" y="1900" width="140" height="60" as="geometry" />
        </mxCell>
        <mxCell id="Pvb7XkKKDdEXnkuy6YKq-28" style="edgeStyle=entityRelationEdgeStyle;rounded=0;orthogonalLoop=1;jettySize=auto;html=1;startArrow=none;endArrow=none;segment=10;curved=1;sourcePerimeterSpacing=0;targetPerimeterSpacing=0;" parent="1" source="Pvb7XkKKDdEXnkuy6YKq-27" target="Pvb7XkKKDdEXnkuy6YKq-17" edge="1">
          <mxGeometry relative="1" as="geometry" />
        </mxCell>
        <mxCell id="Pvb7XkKKDdEXnkuy6YKq-27" value="&lt;span style=&quot;font-family: &amp;quot;Open Sans&amp;quot;; text-align: start; background-color: light-dark(rgb(24, 26, 27), rgb(0, 0, 0));&quot;&gt;&lt;font style=&quot;font-size: 18px; color: light-dark(rgb(198, 193, 185), rgb(255, 255, 255));&quot;&gt;file scope&lt;/font&gt;&lt;/span&gt;&lt;div&gt;&lt;span style=&quot;font-family: &amp;quot;Open Sans&amp;quot;; text-align: start; background-color: light-dark(rgb(24, 26, 27), rgb(0, 0, 0));&quot;&gt;&lt;font style=&quot;font-size: 18px; color: light-dark(rgb(198, 193, 185), rgb(255, 255, 255));&quot;&gt;文件作用域&lt;/font&gt;&lt;/span&gt;&lt;/div&gt;" style="whiteSpace=wrap;html=1;shape=partialRectangle;top=0;left=0;bottom=1;right=0;points=[[0,1],[1,1]];fillColor=none;align=center;verticalAlign=bottom;routingCenterY=0.5;snapToPoint=1;recursiveResize=0;autosize=1;treeFolding=1;treeMoving=1;newEdgeStyle={&quot;edgeStyle&quot;:&quot;entityRelationEdgeStyle&quot;,&quot;startArrow&quot;:&quot;none&quot;,&quot;endArrow&quot;:&quot;none&quot;,&quot;segment&quot;:10,&quot;curved&quot;:1,&quot;sourcePerimeterSpacing&quot;:0,&quot;targetPerimeterSpacing&quot;:0};" parent="1" vertex="1">
          <mxGeometry x="625" y="2190" width="130" height="60" as="geometry" />
        </mxCell>
        <mxCell id="Pvb7XkKKDdEXnkuy6YKq-29" value="&lt;div style=&quot;text-align: start;&quot;&gt;&lt;font face=&quot;Monaco, Consolas, Andale Mono, DejaVu Sans Mono, monospace&quot; color=&quot;#bfc2cf&quot;&gt;&lt;span style=&quot;font-size: 14px; background-color: rgb(39, 39, 39);&quot;&gt;局部变量没有链接&lt;/span&gt;&lt;/font&gt;&lt;/div&gt;" style="rounded=0;whiteSpace=wrap;html=1;" parent="1" vertex="1">
          <mxGeometry x="656" y="2910" width="160" height="62" as="geometry" />
        </mxCell>
        <mxCell id="Pvb7XkKKDdEXnkuy6YKq-30" value="&lt;div style=&quot;text-align: start;&quot;&gt;&lt;font face=&quot;Monaco, Consolas, Andale Mono, DejaVu Sans Mono, monospace&quot; color=&quot;#bfc2cf&quot;&gt;&lt;span style=&quot;font-size: 14px; background-color: rgb(39, 39, 39);&quot;&gt;&amp;nbsp; &amp;nbsp; &amp;nbsp;内部链接&lt;/span&gt;&lt;/font&gt;&lt;/div&gt;&lt;div style=&quot;text-align: start;&quot;&gt;&lt;font face=&quot;Monaco, Consolas, Andale Mono, DejaVu Sans Mono, monospace&quot; color=&quot;#bfc2cf&quot;&gt;&lt;span style=&quot;font-size: 14px; background-color: rgb(39, 39, 39);&quot;&gt;（单个文件中查看）&lt;/span&gt;&lt;/font&gt;&lt;/div&gt;" style="rounded=0;whiteSpace=wrap;html=1;" parent="1" vertex="1">
          <mxGeometry x="656" y="2998" width="160" height="62" as="geometry" />
        </mxCell>
        <mxCell id="Pvb7XkKKDdEXnkuy6YKq-31" value="&lt;div style=&quot;text-align: start;&quot;&gt;&lt;font face=&quot;Monaco, Consolas, Andale Mono, DejaVu Sans Mono, monospace&quot; color=&quot;#bfc2cf&quot;&gt;&lt;span style=&quot;font-size: 14px; background-color: rgb(39, 39, 39);&quot;&gt;&amp;nbsp; &amp;nbsp; &amp;nbsp; &amp;nbsp; &amp;nbsp;外部链接&lt;br&gt;（其他文件通过前向声明查看）&lt;/span&gt;&lt;/font&gt;&lt;/div&gt;" style="rounded=0;whiteSpace=wrap;html=1;" parent="1" vertex="1">
          <mxGeometry x="656" y="3100" width="200" height="70" as="geometry" />
        </mxCell>
        <mxCell id="Pvb7XkKKDdEXnkuy6YKq-36" style="edgeStyle=entityRelationEdgeStyle;rounded=0;orthogonalLoop=1;jettySize=auto;html=1;startArrow=none;endArrow=none;segment=10;curved=1;sourcePerimeterSpacing=0;targetPerimeterSpacing=0;" parent="1" source="Pvb7XkKKDdEXnkuy6YKq-35" edge="1">
          <mxGeometry relative="1" as="geometry">
            <mxPoint x="814.927142857143" y="2050.7142857142862" as="targetPoint" />
          </mxGeometry>
        </mxCell>
        <mxCell id="Pvb7XkKKDdEXnkuy6YKq-35" value="&lt;div style=&quot;text-align: start;&quot;&gt;&lt;font style=&quot;color: light-dark(rgb(0, 0, 0), rgb(255, 255, 255));&quot; face=&quot;Open Sans&quot;&gt;&lt;span style=&quot;font-size: 18px;&quot;&gt;可通过static指定静态持续时间&lt;/span&gt;&lt;/font&gt;&lt;/div&gt;" style="whiteSpace=wrap;html=1;shape=partialRectangle;top=0;left=0;bottom=1;right=0;points=[[0,1],[1,1]];fillColor=none;align=center;verticalAlign=bottom;routingCenterY=0.5;snapToPoint=1;recursiveResize=0;autosize=1;treeFolding=1;treeMoving=1;newEdgeStyle={&quot;edgeStyle&quot;:&quot;entityRelationEdgeStyle&quot;,&quot;startArrow&quot;:&quot;none&quot;,&quot;endArrow&quot;:&quot;none&quot;,&quot;segment&quot;:10,&quot;curved&quot;:1,&quot;sourcePerimeterSpacing&quot;:0,&quot;targetPerimeterSpacing&quot;:0};" parent="1" vertex="1">
          <mxGeometry x="825.0699999999999" y="2010" width="280" height="40" as="geometry" />
        </mxCell>
        <mxCell id="Pvb7XkKKDdEXnkuy6YKq-47" value="&lt;strong style=&quot;box-sizing: inherit; margin: 0px; padding: 0px; border: 0px; font-variant-numeric: inherit; font-variant-east-asian: inherit; font-variant-alternates: inherit; font-variant-position: inherit; font-variant-emoji: inherit; font-stretch: inherit; font-size: 14px; line-height: inherit; font-family: &amp;quot;Open Sans&amp;quot;; font-optical-sizing: inherit; font-size-adjust: inherit; font-kerning: inherit; font-feature-settings: inherit; font-variation-settings: inherit; color: rgb(45, 49, 64); text-align: start; background-color: rgb(255, 255, 255);&quot; data-immersive-translate-walked=&quot;6afb6334-6282-4ce6-894a-930fbfaf0ec0&quot;&gt;函数重载&lt;/strong&gt;" style="rounded=0;whiteSpace=wrap;html=1;" parent="1" vertex="1">
          <mxGeometry x="320.14" y="3344" width="130" height="50" as="geometry" />
        </mxCell>
        <mxCell id="Pvb7XkKKDdEXnkuy6YKq-51" style="edgeStyle=entityRelationEdgeStyle;rounded=0;orthogonalLoop=1;jettySize=auto;html=1;startArrow=none;endArrow=none;segment=10;curved=1;sourcePerimeterSpacing=0;targetPerimeterSpacing=0;" parent="1" source="Pvb7XkKKDdEXnkuy6YKq-50" target="Pvb7XkKKDdEXnkuy6YKq-47" edge="1">
          <mxGeometry relative="1" as="geometry" />
        </mxCell>
        <mxCell id="Pvb7XkKKDdEXnkuy6YKq-50" value="&lt;span style=&quot;font-family: &amp;quot;Open Sans&amp;quot;; text-align: start; background-color: light-dark(rgb(24, 26, 27), rgb(0, 0, 0));&quot;&gt;&lt;font style=&quot;font-size: 18px; color: light-dark(rgb(198, 193, 185), rgb(255, 255, 255));&quot;&gt;不同参数类型集，返回类型不考虑区分&lt;/font&gt;&lt;/span&gt;" style="whiteSpace=wrap;html=1;shape=partialRectangle;top=0;left=0;bottom=1;right=0;points=[[0,1],[1,1]];fillColor=none;align=center;verticalAlign=bottom;routingCenterY=0.5;snapToPoint=1;recursiveResize=0;autosize=1;treeFolding=1;treeMoving=1;newEdgeStyle={&quot;edgeStyle&quot;:&quot;entityRelationEdgeStyle&quot;,&quot;startArrow&quot;:&quot;none&quot;,&quot;endArrow&quot;:&quot;none&quot;,&quot;segment&quot;:10,&quot;curved&quot;:1,&quot;sourcePerimeterSpacing&quot;:0,&quot;targetPerimeterSpacing&quot;:0};" parent="1" vertex="1">
          <mxGeometry x="490.14" y="3344" width="350" height="40" as="geometry" />
        </mxCell>
        <mxCell id="NbkLUTGj8sX2wBvh6n6N-1" value="&lt;span style=&quot;color: rgb(45, 49, 64); font-family: &amp;quot;Open Sans&amp;quot;; font-size: 14px; text-align: start; background-color: rgb(255, 255, 255);&quot;&gt;指示表达式是否解析为值、函数或某种类型的对象&lt;/span&gt;" style="shape=note;whiteSpace=wrap;html=1;backgroundOutline=1;fontColor=#000000;darkOpacity=0.05;fillColor=#FFF9B2;strokeColor=none;fillStyle=solid;direction=west;gradientDirection=north;gradientColor=#FFF2A1;shadow=1;size=20;pointerEvents=1;" parent="1" vertex="1">
          <mxGeometry x="-963" y="870" width="180" height="62" as="geometry" />
        </mxCell>
        <mxCell id="NbkLUTGj8sX2wBvh6n6N-2" value="&lt;span style=&quot;color: rgb(45, 49, 64); font-family: &amp;quot;Open Sans&amp;quot;; font-size: 14px; text-align: start; background-color: rgb(255, 255, 255);&quot;&gt;计算结果为具有标识符的函数或对象的表达式&lt;/span&gt;" style="shape=note;whiteSpace=wrap;html=1;backgroundOutline=1;fontColor=#000000;darkOpacity=0.05;fillColor=#FFF9B2;strokeColor=none;fillStyle=solid;direction=west;gradientDirection=north;gradientColor=#FFF2A1;shadow=1;size=20;pointerEvents=1;" parent="1" vertex="1">
          <mxGeometry x="-683" y="780" width="180" height="62" as="geometry" />
        </mxCell>
        <mxCell id="NbkLUTGj8sX2wBvh6n6N-3" value="&lt;span style=&quot;color: rgb(45, 49, 64); font-family: &amp;quot;Open Sans&amp;quot;; font-size: 14px; text-align: start; background-color: rgb(255, 255, 255);&quot;&gt;包括文字（字符串文字除外）和函数或运算符的返回值（当按值返回时）&lt;/span&gt;" style="shape=note;whiteSpace=wrap;html=1;backgroundOutline=1;fontColor=#000000;darkOpacity=0.05;fillColor=#FFF9B2;strokeColor=none;fillStyle=solid;direction=west;gradientDirection=north;gradientColor=#FFF2A1;shadow=1;size=20;pointerEvents=1;" parent="1" vertex="1">
          <mxGeometry x="-693" y="990" width="180" height="62" as="geometry" />
        </mxCell>
        <mxCell id="NbkLUTGj8sX2wBvh6n6N-5" value="&lt;span style=&quot;color: rgb(45, 49, 64); font-family: &amp;quot;Open Sans&amp;quot;; font-size: 14px; text-align: start; background-color: rgb(255, 255, 255);&quot;&gt;基本数据类型&lt;/span&gt;" style="rounded=0;whiteSpace=wrap;html=1;" parent="1" vertex="1">
          <mxGeometry x="-683" y="510" width="120" height="60" as="geometry" />
        </mxCell>
        <mxCell id="NbkLUTGj8sX2wBvh6n6N-9" value="&lt;div style=&quot;text-align: start;&quot;&gt;&lt;span style=&quot;color: rgb(45, 49, 64); font-family: &amp;quot;Open Sans&amp;quot;; font-size: 14px; background-color: rgb(223, 231, 255);&quot;&gt;类中的static成员是存在于&lt;/span&gt;&lt;span style=&quot;font-family: &amp;quot;Open Sans&amp;quot;; font-size: 14px; background-color: rgb(223, 231, 255); color: rgb(45, 49, 64);&quot;&gt;&lt;font style=&quot;color: rgb(255, 0, 0);&quot;&gt;类的作用域区域内的全局变量&lt;/font&gt;&lt;/span&gt;&lt;span style=&quot;color: rgb(45, 49, 64); font-family: &amp;quot;Open Sans&amp;quot;; font-size: 14px; background-color: rgb(223, 231, 255);&quot;&gt;。&lt;/span&gt;&lt;/div&gt;" style="shape=note;whiteSpace=wrap;html=1;backgroundOutline=1;fontColor=#000000;darkOpacity=0.05;fillColor=#FFF9B2;strokeColor=none;fillStyle=solid;direction=west;gradientDirection=north;gradientColor=#FFF2A1;shadow=1;size=20;pointerEvents=1;" parent="1" vertex="1">
          <mxGeometry x="885.0699999999999" y="2050" width="220" height="80" as="geometry" />
        </mxCell>
        <mxCell id="NbkLUTGj8sX2wBvh6n6N-10" value="&lt;strong style=&quot;box-sizing: inherit; margin: 0px; padding: 0px; border: 0px; font-variant-numeric: inherit; font-variant-east-asian: inherit; font-variant-alternates: inherit; font-variant-position: inherit; font-variant-emoji: inherit; font-stretch: inherit; font-size: 14px; line-height: inherit; font-family: &amp;quot;Open Sans&amp;quot;; font-optical-sizing: inherit; font-size-adjust: inherit; font-kerning: inherit; font-feature-settings: inherit; font-variation-settings: inherit; color: rgb(45, 49, 64); text-align: start; background-color: rgb(255, 255, 255);&quot; data-immersive-translate-walked=&quot;6afb6334-6282-4ce6-894a-930fbfaf0ec0&quot;&gt;函数参数&lt;/strong&gt;" style="rounded=0;whiteSpace=wrap;html=1;" parent="1" vertex="1">
          <mxGeometry x="320.14" y="3450" width="130" height="50" as="geometry" />
        </mxCell>
        <mxCell id="NbkLUTGj8sX2wBvh6n6N-13" style="edgeStyle=entityRelationEdgeStyle;rounded=0;orthogonalLoop=1;jettySize=auto;html=1;startArrow=none;endArrow=none;segment=10;curved=1;sourcePerimeterSpacing=0;targetPerimeterSpacing=0;" parent="1" source="NbkLUTGj8sX2wBvh6n6N-12" target="NbkLUTGj8sX2wBvh6n6N-10" edge="1">
          <mxGeometry relative="1" as="geometry" />
        </mxCell>
        <mxCell id="NbkLUTGj8sX2wBvh6n6N-12" value="&lt;div style=&quot;text-align: start;&quot;&gt;&lt;span style=&quot;color: rgb(45, 49, 64); font-family: &amp;quot;Open Sans&amp;quot;; font-size: 14px; background-color: rgb(255, 255, 255);&quot;&gt;基本数据类型和枚举器使用&lt;/span&gt;&lt;span style=&quot;font-family: &amp;quot;Open Sans&amp;quot;; font-size: 14px; background-color: rgb(255, 255, 255); color: rgb(45, 49, 64);&quot;&gt;&lt;font style=&quot;color: rgb(204, 102, 0);&quot;&gt;按值传递&lt;/font&gt;&lt;/span&gt;&lt;/div&gt;" style="whiteSpace=wrap;html=1;shape=partialRectangle;top=0;left=0;bottom=1;right=0;points=[[0,1],[1,1]];fillColor=none;align=center;verticalAlign=bottom;routingCenterY=0.5;snapToPoint=1;recursiveResize=0;autosize=1;treeFolding=1;treeMoving=1;newEdgeStyle={&quot;edgeStyle&quot;:&quot;entityRelationEdgeStyle&quot;,&quot;startArrow&quot;:&quot;none&quot;,&quot;endArrow&quot;:&quot;none&quot;,&quot;segment&quot;:10,&quot;curved&quot;:1,&quot;sourcePerimeterSpacing&quot;:0,&quot;targetPerimeterSpacing&quot;:0};" parent="1" vertex="1">
          <mxGeometry x="505.14" y="3417" width="260" height="30" as="geometry" />
        </mxCell>
        <mxCell id="NbkLUTGj8sX2wBvh6n6N-15" style="edgeStyle=entityRelationEdgeStyle;rounded=0;orthogonalLoop=1;jettySize=auto;html=1;startArrow=none;endArrow=none;segment=10;curved=1;sourcePerimeterSpacing=0;targetPerimeterSpacing=0;" parent="1" source="NbkLUTGj8sX2wBvh6n6N-14" target="NbkLUTGj8sX2wBvh6n6N-10" edge="1">
          <mxGeometry relative="1" as="geometry" />
        </mxCell>
        <mxCell id="NbkLUTGj8sX2wBvh6n6N-14" value="&lt;div style=&quot;text-align: start;&quot;&gt;&lt;span style=&quot;color: rgb(45, 49, 64); font-family: &amp;quot;Open Sans&amp;quot;; font-size: 14px; background-color: rgb(255, 255, 255);&quot;&gt;对结构、类或需要函数修改参数时使用&lt;/span&gt;&lt;span style=&quot;font-family: &amp;quot;Open Sans&amp;quot;; font-size: 14px; background-color: rgb(255, 255, 255); color: rgb(45, 49, 64);&quot;&gt;&lt;font style=&quot;color: rgb(204, 102, 0);&quot;&gt;引用传递&lt;/font&gt;&lt;/span&gt;&lt;/div&gt;" style="whiteSpace=wrap;html=1;shape=partialRectangle;top=0;left=0;bottom=1;right=0;points=[[0,1],[1,1]];fillColor=none;align=center;verticalAlign=bottom;routingCenterY=0.5;snapToPoint=1;recursiveResize=0;autosize=1;treeFolding=1;treeMoving=1;newEdgeStyle={&quot;edgeStyle&quot;:&quot;entityRelationEdgeStyle&quot;,&quot;startArrow&quot;:&quot;none&quot;,&quot;endArrow&quot;:&quot;none&quot;,&quot;segment&quot;:10,&quot;curved&quot;:1,&quot;sourcePerimeterSpacing&quot;:0,&quot;targetPerimeterSpacing&quot;:0};" parent="1" vertex="1">
          <mxGeometry x="515.14" y="3467" width="330" height="30" as="geometry" />
        </mxCell>
        <mxCell id="NbkLUTGj8sX2wBvh6n6N-17" style="edgeStyle=entityRelationEdgeStyle;rounded=0;orthogonalLoop=1;jettySize=auto;html=1;startArrow=none;endArrow=none;segment=10;curved=1;sourcePerimeterSpacing=0;targetPerimeterSpacing=0;" parent="1" source="NbkLUTGj8sX2wBvh6n6N-16" target="NbkLUTGj8sX2wBvh6n6N-10" edge="1">
          <mxGeometry relative="1" as="geometry" />
        </mxCell>
        <mxCell id="NbkLUTGj8sX2wBvh6n6N-16" value="&lt;div style=&quot;text-align: start;&quot;&gt;&lt;span style=&quot;color: rgb(45, 49, 64); font-family: &amp;quot;Open Sans&amp;quot;; font-size: 14px; background-color: rgb(255, 255, 255);&quot;&gt;按&lt;/span&gt;&lt;span style=&quot;font-family: &amp;quot;Open Sans&amp;quot;; font-size: 14px; background-color: rgb(255, 255, 255); color: rgb(45, 49, 64);&quot;&gt;&lt;font style=&quot;color: rgb(204, 102, 0);&quot;&gt;地址传递&lt;/font&gt;&lt;/span&gt;&lt;span style=&quot;color: rgb(45, 49, 64); font-family: &amp;quot;Open Sans&amp;quot;; font-size: 14px; background-color: rgb(255, 255, 255);&quot;&gt;来传递指针或内置数组&lt;/span&gt;&lt;/div&gt;" style="whiteSpace=wrap;html=1;shape=partialRectangle;top=0;left=0;bottom=1;right=0;points=[[0,1],[1,1]];fillColor=none;align=center;verticalAlign=bottom;routingCenterY=0.5;snapToPoint=1;recursiveResize=0;autosize=1;treeFolding=1;treeMoving=1;newEdgeStyle={&quot;edgeStyle&quot;:&quot;entityRelationEdgeStyle&quot;,&quot;startArrow&quot;:&quot;none&quot;,&quot;endArrow&quot;:&quot;none&quot;,&quot;segment&quot;:10,&quot;curved&quot;:1,&quot;sourcePerimeterSpacing&quot;:0,&quot;targetPerimeterSpacing&quot;:0};" parent="1" vertex="1">
          <mxGeometry x="525.14" y="3527" width="250" height="30" as="geometry" />
        </mxCell>
        <mxCell id="NbkLUTGj8sX2wBvh6n6N-19" value="&lt;div style=&quot;text-align: left;&quot;&gt;&lt;font face=&quot;Open Sans&quot; color=&quot;#2d3140&quot;&gt;&lt;span style=&quot;font-size: 14px; background-color: rgb(255, 255, 255);&quot;&gt;指针类型&lt;/span&gt;&lt;/font&gt;&lt;/div&gt;" style="rounded=0;whiteSpace=wrap;html=1;" parent="1" vertex="1">
          <mxGeometry x="-420" y="272" width="210" height="60" as="geometry" />
        </mxCell>
        <mxCell id="NbkLUTGj8sX2wBvh6n6N-21" value="&lt;span style=&quot;color: rgb(45, 49, 64); font-family: &amp;quot;Open Sans&amp;quot;; font-size: 14px; text-align: start; background-color: rgb(255, 255, 255);&quot;&gt;一般只&lt;/span&gt;&lt;span style=&quot;color: rgb(45, 49, 64); font-family: &amp;quot;Open Sans&amp;quot;; font-size: 14px; text-align: start; background-color: rgb(255, 255, 255);&quot;&gt;编写采用右值引用参数的函数&lt;/span&gt;" style="shape=note;whiteSpace=wrap;html=1;backgroundOutline=1;fontColor=#000000;darkOpacity=0.05;fillColor=#FFF9B2;strokeColor=none;fillStyle=solid;direction=west;gradientDirection=north;gradientColor=#FFF2A1;shadow=1;size=20;pointerEvents=1;" parent="1" vertex="1">
          <mxGeometry x="-180" y="210" width="180" height="62" as="geometry" />
        </mxCell>
        <mxCell id="p9sFb-CSKnd5xUBQKQXD-3" value="" style="shape=flexArrow;endArrow=classic;html=1;rounded=0;fillColor=light-dark(#FFFFFF,#FF0000);" parent="1" source="fvUucBqJdOx6glTmMbDe-7" target="R4vnkSGysQsOYlU7WVH3-7" edge="1">
          <mxGeometry width="50" height="50" relative="1" as="geometry">
            <mxPoint x="-29.86" y="3070" as="sourcePoint" />
            <mxPoint x="100.14" y="3200" as="targetPoint" />
          </mxGeometry>
        </mxCell>
        <mxCell id="p9sFb-CSKnd5xUBQKQXD-4" value="&lt;font style=&quot;font-size: 16px;&quot;&gt;代表&lt;/font&gt;" style="edgeLabel;html=1;align=center;verticalAlign=middle;resizable=0;points=[];" parent="p9sFb-CSKnd5xUBQKQXD-3" vertex="1" connectable="0">
          <mxGeometry x="-0.1338" y="-2" relative="1" as="geometry">
            <mxPoint as="offset" />
          </mxGeometry>
        </mxCell>
        <mxCell id="p9sFb-CSKnd5xUBQKQXD-5" value="" style="shape=flexArrow;endArrow=classic;html=1;rounded=0;fillColor=light-dark(#FFFFFF,#FF0000);" parent="1" source="fvUucBqJdOx6glTmMbDe-7" target="fvUucBqJdOx6glTmMbDe-3" edge="1">
          <mxGeometry width="50" height="50" relative="1" as="geometry">
            <mxPoint x="170" y="2710" as="sourcePoint" />
            <mxPoint x="605" y="2828" as="targetPoint" />
          </mxGeometry>
        </mxCell>
        <mxCell id="p9sFb-CSKnd5xUBQKQXD-6" value="&lt;font style=&quot;font-size: 16px;&quot;&gt;代表&lt;/font&gt;" style="edgeLabel;html=1;align=center;verticalAlign=middle;resizable=0;points=[];" parent="p9sFb-CSKnd5xUBQKQXD-5" vertex="1" connectable="0">
          <mxGeometry x="-0.1338" y="-2" relative="1" as="geometry">
            <mxPoint as="offset" />
          </mxGeometry>
        </mxCell>
        <mxCell id="p9sFb-CSKnd5xUBQKQXD-7" value="&lt;span style=&quot;font-family: &amp;quot;Open Sans&amp;quot;; text-align: start; background-color: light-dark(rgb(24, 26, 27), rgb(0, 0, 0));&quot;&gt;&lt;font style=&quot;font-size: 18px; color: light-dark(rgb(198, 193, 185), rgb(255, 255, 255));&quot;&gt;返回类型、参数&lt;/font&gt;&lt;/span&gt;" style="whiteSpace=wrap;html=1;shape=partialRectangle;top=0;left=0;bottom=1;right=0;points=[[0,1],[1,1]];fillColor=none;align=center;verticalAlign=bottom;routingCenterY=0.5;snapToPoint=1;recursiveResize=0;autosize=1;treeFolding=1;treeMoving=1;newEdgeStyle={&quot;edgeStyle&quot;:&quot;entityRelationEdgeStyle&quot;,&quot;startArrow&quot;:&quot;none&quot;,&quot;endArrow&quot;:&quot;none&quot;,&quot;segment&quot;:10,&quot;curved&quot;:1,&quot;sourcePerimeterSpacing&quot;:0,&quot;targetPerimeterSpacing&quot;:0};" parent="1" vertex="1">
          <mxGeometry x="515.14" y="3180" width="170" height="40" as="geometry" />
        </mxCell>
        <mxCell id="p9sFb-CSKnd5xUBQKQXD-8" value="" style="edgeStyle=entityRelationEdgeStyle;startArrow=none;endArrow=none;segment=10;curved=1;sourcePerimeterSpacing=0;targetPerimeterSpacing=0;rounded=0;exitX=1;exitY=0.5;exitDx=0;exitDy=0;" parent="1" source="p9sFb-CSKnd5xUBQKQXD-9" target="p9sFb-CSKnd5xUBQKQXD-7" edge="1">
          <mxGeometry relative="1" as="geometry">
            <mxPoint x="290.14" y="3120" as="sourcePoint" />
          </mxGeometry>
        </mxCell>
        <mxCell id="p9sFb-CSKnd5xUBQKQXD-9" value="&lt;span style=&quot;color: rgb(45, 49, 64); font-family: &amp;quot;Open Sans&amp;quot;; font-size: 18px; font-weight: 700; letter-spacing: 0.25px; text-align: start; background-color: rgb(255, 255, 255);&quot;&gt;函数类型&lt;/span&gt;" style="rounded=0;whiteSpace=wrap;html=1;" parent="1" vertex="1">
          <mxGeometry x="320.14" y="3180" width="130" height="50" as="geometry" />
        </mxCell>
        <mxCell id="5yQ3ogZ6_WC2ORXl4SrJ-19" style="edgeStyle=orthogonalEdgeStyle;rounded=0;orthogonalLoop=1;jettySize=auto;html=1;" parent="1" source="p9sFb-CSKnd5xUBQKQXD-14" target="5yQ3ogZ6_WC2ORXl4SrJ-18" edge="1">
          <mxGeometry relative="1" as="geometry" />
        </mxCell>
        <mxCell id="p9sFb-CSKnd5xUBQKQXD-14" value="&lt;div style=&quot;text-align: left;&quot;&gt;&lt;font face=&quot;Open Sans&quot; color=&quot;#2d3140&quot;&gt;&lt;span style=&quot;font-size: 14px; background-color: rgb(255, 255, 255);&quot;&gt;&lt;span style=&quot;background-color: rgb(24, 26, 27); color: rgb(198, 193, 185);&quot;&gt;Class&lt;/span&gt;&lt;span style=&quot;background-color: rgb(24, 26, 27); color: rgb(198, 193, 185);&quot;&gt;&amp;nbsp;&lt;/span&gt;类型&lt;/span&gt;&lt;/font&gt;&lt;/div&gt;" style="rounded=0;whiteSpace=wrap;html=1;" parent="1" vertex="1">
          <mxGeometry x="-420" y="400" width="210" height="60" as="geometry" />
        </mxCell>
        <mxCell id="p9sFb-CSKnd5xUBQKQXD-20" value="&lt;span style=&quot;color: rgb(198, 193, 185); font-family: &amp;quot;Open Sans&amp;quot;; font-size: 14px; text-align: start; background-color: rgb(24, 26, 27);&quot;&gt;&lt;span style=&quot;color: rgb(198, 193, 185); background-color: rgb(24, 26, 27);&quot;&gt;表达式的类型必须在编译时确定；&lt;/span&gt;&lt;/span&gt;&lt;div&gt;&lt;span style=&quot;color: rgb(198, 193, 185); font-family: &amp;quot;Open Sans&amp;quot;; font-size: 14px; text-align: start; background-color: rgb(24, 26, 27);&quot;&gt;表达式的值可以在编译时（如果表达式是 constexpr）或运行时确定（如果表达式不是 constexpr）&lt;/span&gt;&lt;/div&gt;" style="shape=note;whiteSpace=wrap;html=1;backgroundOutline=1;fontColor=#000000;darkOpacity=0.05;fillColor=#FFF9B2;strokeColor=none;fillStyle=solid;direction=west;gradientDirection=north;gradientColor=#FFF2A1;shadow=1;size=20;pointerEvents=1;" parent="1" vertex="1">
          <mxGeometry x="-966" y="400" width="220" height="110" as="geometry" />
        </mxCell>
        <mxCell id="p9sFb-CSKnd5xUBQKQXD-32" style="edgeStyle=orthogonalEdgeStyle;rounded=0;orthogonalLoop=1;jettySize=auto;html=1;entryX=0;entryY=0.5;entryDx=0;entryDy=0;" parent="1" source="p9sFb-CSKnd5xUBQKQXD-24" target="p9sFb-CSKnd5xUBQKQXD-26" edge="1">
          <mxGeometry relative="1" as="geometry" />
        </mxCell>
        <mxCell id="p9sFb-CSKnd5xUBQKQXD-33" style="edgeStyle=orthogonalEdgeStyle;rounded=0;orthogonalLoop=1;jettySize=auto;html=1;" parent="1" source="p9sFb-CSKnd5xUBQKQXD-24" target="p9sFb-CSKnd5xUBQKQXD-28" edge="1">
          <mxGeometry relative="1" as="geometry" />
        </mxCell>
        <mxCell id="p9sFb-CSKnd5xUBQKQXD-34" style="edgeStyle=orthogonalEdgeStyle;rounded=0;orthogonalLoop=1;jettySize=auto;html=1;entryX=0;entryY=0.5;entryDx=0;entryDy=0;" parent="1" source="p9sFb-CSKnd5xUBQKQXD-24" target="p9sFb-CSKnd5xUBQKQXD-29" edge="1">
          <mxGeometry relative="1" as="geometry" />
        </mxCell>
        <mxCell id="p9sFb-CSKnd5xUBQKQXD-24" value="&lt;span style=&quot;color: rgb(198, 193, 185); font-family: Monaco, Consolas, &amp;quot;Andale Mono&amp;quot;, &amp;quot;DejaVu Sans Mono&amp;quot;, monospace; font-size: 14px; text-align: start; background-color: rgb(38, 41, 43);&quot;&gt;move semantics&lt;/span&gt;" style="rounded=0;whiteSpace=wrap;html=1;" parent="1" vertex="1">
          <mxGeometry x="-633" y="1200" width="120" height="60" as="geometry" />
        </mxCell>
        <mxCell id="p9sFb-CSKnd5xUBQKQXD-26" value="&lt;code style=&quot;box-sizing: inherit; margin: 0px; padding: 1px 4px; border: 0px; font-variant-numeric: inherit; font-variant-east-asian: inherit; font-variant-alternates: inherit; font-variant-position: inherit; font-variant-emoji: inherit; font-stretch: inherit; font-size: 14px; line-height: inherit; font-family: Monaco, Consolas, &amp;quot;Andale Mono&amp;quot;, &amp;quot;DejaVu Sans Mono&amp;quot;, monospace; font-optical-sizing: inherit; font-size-adjust: inherit; font-kerning: inherit; font-feature-settings: inherit; font-variation-settings: inherit; overflow: auto; vertical-align: middle; background-color: rgb(38, 41, 43); border-radius: 4px; box-shadow: rgb(48, 52, 54) 0px 1px 0px 0px; color: rgb(198, 193, 185); text-align: start;&quot; data-immersive-translate-walked=&quot;be52873e-8f6d-4f8a-b36f-54e4d5abaeca&quot;&gt;glvalue&lt;/code&gt;&lt;span style=&quot;color: rgb(198, 193, 185); font-family: &amp;quot;Open Sans&amp;quot;; font-size: 14px; text-align: start; background-color: rgb(24, 26, 27);&quot;&gt;&amp;nbsp;&lt;/span&gt;" style="rounded=0;whiteSpace=wrap;html=1;" parent="1" vertex="1">
          <mxGeometry x="-453" y="1110" width="120" height="60" as="geometry" />
        </mxCell>
        <mxCell id="p9sFb-CSKnd5xUBQKQXD-28" value="&lt;span style=&quot;color: rgb(198, 193, 185); font-family: Monaco, Consolas, &amp;quot;Andale Mono&amp;quot;, &amp;quot;DejaVu Sans Mono&amp;quot;, monospace; font-size: 14px; text-align: start; background-color: rgb(38, 41, 43);&quot;&gt;prvalue&lt;/span&gt;" style="rounded=0;whiteSpace=wrap;html=1;" parent="1" vertex="1">
          <mxGeometry x="-453" y="1200" width="120" height="60" as="geometry" />
        </mxCell>
        <mxCell id="p9sFb-CSKnd5xUBQKQXD-29" value="&lt;code style=&quot;box-sizing: inherit; margin: 0px; padding: 1px 4px; border: 0px; font-variant-numeric: inherit; font-variant-east-asian: inherit; font-variant-alternates: inherit; font-variant-position: inherit; font-variant-emoji: inherit; font-stretch: inherit; font-size: 14px; line-height: inherit; font-family: Monaco, Consolas, &amp;quot;Andale Mono&amp;quot;, &amp;quot;DejaVu Sans Mono&amp;quot;, monospace; font-optical-sizing: inherit; font-size-adjust: inherit; font-kerning: inherit; font-feature-settings: inherit; font-variation-settings: inherit; overflow: auto; vertical-align: middle; background-color: rgb(38, 41, 43); border-radius: 4px; box-shadow: rgb(48, 52, 54) 0px 1px 0px 0px; color: rgb(198, 193, 185); text-align: start;&quot; data-immersive-translate-walked=&quot;be52873e-8f6d-4f8a-b36f-54e4d5abaeca&quot;&gt;xvalue&lt;/code&gt;&lt;span style=&quot;color: rgb(198, 193, 185); font-family: &amp;quot;Open Sans&amp;quot;; font-size: 14px; text-align: start; background-color: rgb(24, 26, 27);&quot;&gt;&amp;nbsp;&lt;/span&gt;" style="rounded=0;whiteSpace=wrap;html=1;" parent="1" vertex="1">
          <mxGeometry x="-453" y="1290" width="120" height="60" as="geometry" />
        </mxCell>
        <mxCell id="5yQ3ogZ6_WC2ORXl4SrJ-17" style="edgeStyle=entityRelationEdgeStyle;rounded=0;orthogonalLoop=1;jettySize=auto;html=1;startArrow=none;endArrow=none;segment=10;curved=1;sourcePerimeterSpacing=0;targetPerimeterSpacing=0;" parent="1" source="5yQ3ogZ6_WC2ORXl4SrJ-1" target="R4vnkSGysQsOYlU7WVH3-11" edge="1">
          <mxGeometry relative="1" as="geometry" />
        </mxCell>
        <mxCell id="5yQ3ogZ6_WC2ORXl4SrJ-1" value="&lt;span style=&quot;font-family: &amp;quot;Open Sans&amp;quot;; text-align: start; background-color: light-dark(rgb(24, 26, 27), rgb(0, 0, 0));&quot;&gt;&lt;font style=&quot;font-size: 18px; color: light-dark(rgb(198, 193, 185), rgb(255, 255, 255));&quot;&gt;运行时（生命周期）&lt;/font&gt;&lt;/span&gt;" style="whiteSpace=wrap;html=1;shape=partialRectangle;top=0;left=0;bottom=1;right=0;points=[[0,1],[1,1]];fillColor=none;align=center;verticalAlign=bottom;routingCenterY=0.5;snapToPoint=1;recursiveResize=0;autosize=1;treeFolding=1;treeMoving=1;newEdgeStyle={&quot;edgeStyle&quot;:&quot;entityRelationEdgeStyle&quot;,&quot;startArrow&quot;:&quot;none&quot;,&quot;endArrow&quot;:&quot;none&quot;,&quot;segment&quot;:10,&quot;curved&quot;:1,&quot;sourcePerimeterSpacing&quot;:0,&quot;targetPerimeterSpacing&quot;:0};" parent="1" vertex="1">
          <mxGeometry x="-614" y="2610" width="200" height="40" as="geometry" />
        </mxCell>
        <mxCell id="5yQ3ogZ6_WC2ORXl4SrJ-3" value="&lt;div style=&quot;text-align: start;&quot;&gt;&lt;span style=&quot;color: rgb(198, 193, 185); font-family: &amp;quot;Open Sans&amp;quot;; font-size: 14px; background-color: rgb(24, 26, 27);&quot;&gt;意味着它们在程序启动时创建，并在程序结束时销毁&lt;/span&gt;&lt;/div&gt;" style="shape=note;whiteSpace=wrap;html=1;backgroundOutline=1;fontColor=#000000;darkOpacity=0.05;fillColor=#FFF9B2;strokeColor=none;fillStyle=solid;direction=west;gradientDirection=north;gradientColor=#FFF2A1;shadow=1;size=20;pointerEvents=1;" parent="1" vertex="1">
          <mxGeometry x="625" y="2330" width="220" height="60" as="geometry" />
        </mxCell>
        <mxCell id="5yQ3ogZ6_WC2ORXl4SrJ-4" value="&lt;div style=&quot;text-align: start;&quot;&gt;&lt;span style=&quot;color: rgb(198, 193, 185); font-family: &amp;quot;Open Sans&amp;quot;; font-size: 14px; background-color: rgb(24, 26, 27);&quot;&gt;意味着它们在定义时创建，并在&lt;/span&gt;&lt;span style=&quot;font-family: &amp;quot;Open Sans&amp;quot;; font-size: 14px; background-color: rgb(24, 26, 27);&quot;&gt;&lt;font style=&quot;color: light-dark(rgb(198, 193, 185), rgb(255, 0, 0));&quot;&gt;退出块&lt;/font&gt;&lt;/span&gt;&lt;span style=&quot;color: rgb(198, 193, 185); font-family: &amp;quot;Open Sans&amp;quot;; font-size: 14px; background-color: rgb(24, 26, 27);&quot;&gt;时销毁&lt;/span&gt;&lt;/div&gt;" style="shape=note;whiteSpace=wrap;html=1;backgroundOutline=1;fontColor=#000000;darkOpacity=0.05;fillColor=#FFF9B2;strokeColor=none;fillStyle=solid;direction=west;gradientDirection=north;gradientColor=#FFF2A1;shadow=1;size=20;pointerEvents=1;" parent="1" vertex="1">
          <mxGeometry x="595" y="2050" width="220" height="60" as="geometry" />
        </mxCell>
        <mxCell id="5yQ3ogZ6_WC2ORXl4SrJ-8" value="&lt;span style=&quot;color: rgb(198, 193, 185); font-family: &amp;quot;Open Sans&amp;quot;; font-size: 18px; font-weight: 700; letter-spacing: 0.25px; text-align: start; background-color: rgb(24, 26, 27);&quot;&gt;Duration&amp;nbsp;&lt;/span&gt;&lt;div&gt;&lt;span style=&quot;color: rgb(198, 193, 185); font-family: &amp;quot;Open Sans&amp;quot;; font-size: 18px; font-weight: 700; letter-spacing: 0.25px; text-align: start; background-color: rgb(24, 26, 27);&quot;&gt;（持续时间）&lt;/span&gt;&lt;/div&gt;" style="rounded=0;whiteSpace=wrap;html=1;" parent="1" vertex="1">
          <mxGeometry x="490" y="2838" width="120" height="60" as="geometry" />
        </mxCell>
        <mxCell id="5yQ3ogZ6_WC2ORXl4SrJ-12" style="edgeStyle=entityRelationEdgeStyle;rounded=0;orthogonalLoop=1;jettySize=auto;html=1;startArrow=none;endArrow=none;segment=10;curved=1;sourcePerimeterSpacing=0;targetPerimeterSpacing=0;" parent="1" source="5yQ3ogZ6_WC2ORXl4SrJ-10" target="5yQ3ogZ6_WC2ORXl4SrJ-8" edge="1">
          <mxGeometry relative="1" as="geometry" />
        </mxCell>
        <mxCell id="5yQ3ogZ6_WC2ORXl4SrJ-10" value="&lt;strong style=&quot;box-sizing: inherit; margin: 0px; padding: 0px; border: 0px; font-variant-numeric: inherit; font-variant-east-asian: inherit; font-variant-alternates: inherit; font-variant-position: inherit; font-variant-emoji: inherit; font-stretch: inherit; font-size: 14px; line-height: inherit; font-family: &amp;quot;Open Sans&amp;quot;; font-optical-sizing: inherit; font-size-adjust: inherit; font-kerning: inherit; font-feature-settings: inherit; font-variation-settings: inherit; color: rgb(198, 193, 185); text-align: left; background-color: rgb(24, 26, 27);&quot; data-immersive-translate-walked=&quot;06ba64b4-df55-47fb-b6fd-704270b29748&quot;&gt;自动持续时间&lt;/strong&gt;" style="whiteSpace=wrap;html=1;shape=partialRectangle;top=0;left=0;bottom=1;right=0;points=[[0,1],[1,1]];fillColor=none;align=center;verticalAlign=bottom;routingCenterY=0.5;snapToPoint=1;recursiveResize=0;autosize=1;treeFolding=1;treeMoving=1;newEdgeStyle={&quot;edgeStyle&quot;:&quot;entityRelationEdgeStyle&quot;,&quot;startArrow&quot;:&quot;none&quot;,&quot;endArrow&quot;:&quot;none&quot;,&quot;segment&quot;:10,&quot;curved&quot;:1,&quot;sourcePerimeterSpacing&quot;:0,&quot;targetPerimeterSpacing&quot;:0};" parent="1" vertex="1">
          <mxGeometry x="696" y="2762" width="120" height="30" as="geometry" />
        </mxCell>
        <mxCell id="5yQ3ogZ6_WC2ORXl4SrJ-15" style="edgeStyle=entityRelationEdgeStyle;rounded=0;orthogonalLoop=1;jettySize=auto;html=1;startArrow=none;endArrow=none;segment=10;curved=1;sourcePerimeterSpacing=0;targetPerimeterSpacing=0;" parent="1" source="5yQ3ogZ6_WC2ORXl4SrJ-13" target="5yQ3ogZ6_WC2ORXl4SrJ-8" edge="1">
          <mxGeometry relative="1" as="geometry" />
        </mxCell>
        <mxCell id="5yQ3ogZ6_WC2ORXl4SrJ-13" value="&lt;strong style=&quot;box-sizing: inherit; margin: 0px; padding: 0px; border: 0px; font-variant-numeric: inherit; font-variant-east-asian: inherit; font-variant-alternates: inherit; font-variant-position: inherit; font-variant-emoji: inherit; font-stretch: inherit; font-size: 14px; line-height: inherit; font-family: &amp;quot;Open Sans&amp;quot;; font-optical-sizing: inherit; font-size-adjust: inherit; font-kerning: inherit; font-feature-settings: inherit; font-variation-settings: inherit; color: rgb(198, 193, 185); text-align: left; background-color: rgb(24, 26, 27);&quot; data-immersive-translate-walked=&quot;06ba64b4-df55-47fb-b6fd-704270b29748&quot;&gt;静态持续时间&lt;/strong&gt;" style="whiteSpace=wrap;html=1;shape=partialRectangle;top=0;left=0;bottom=1;right=0;points=[[0,1],[1,1]];fillColor=none;align=center;verticalAlign=bottom;routingCenterY=0.5;snapToPoint=1;recursiveResize=0;autosize=1;treeFolding=1;treeMoving=1;newEdgeStyle={&quot;edgeStyle&quot;:&quot;entityRelationEdgeStyle&quot;,&quot;startArrow&quot;:&quot;none&quot;,&quot;endArrow&quot;:&quot;none&quot;,&quot;segment&quot;:10,&quot;curved&quot;:1,&quot;sourcePerimeterSpacing&quot;:0,&quot;targetPerimeterSpacing&quot;:0};" parent="1" vertex="1">
          <mxGeometry x="695" y="2808" width="120" height="32" as="geometry" />
        </mxCell>
        <mxCell id="5yQ3ogZ6_WC2ORXl4SrJ-16" style="edgeStyle=entityRelationEdgeStyle;rounded=0;orthogonalLoop=1;jettySize=auto;html=1;startArrow=none;endArrow=none;segment=10;curved=1;sourcePerimeterSpacing=0;targetPerimeterSpacing=0;" parent="1" source="5yQ3ogZ6_WC2ORXl4SrJ-14" target="5yQ3ogZ6_WC2ORXl4SrJ-8" edge="1">
          <mxGeometry relative="1" as="geometry" />
        </mxCell>
        <mxCell id="5yQ3ogZ6_WC2ORXl4SrJ-14" value="&lt;strong style=&quot;box-sizing: inherit; margin: 0px; padding: 0px; border: 0px; font-variant-numeric: inherit; font-variant-east-asian: inherit; font-variant-alternates: inherit; font-variant-position: inherit; font-variant-emoji: inherit; font-stretch: inherit; font-size: 14px; line-height: inherit; font-family: &amp;quot;Open Sans&amp;quot;; font-optical-sizing: inherit; font-size-adjust: inherit; font-kerning: inherit; font-feature-settings: inherit; font-variation-settings: inherit; color: rgb(198, 193, 185); text-align: left; background-color: rgb(24, 26, 27);&quot; data-immersive-translate-walked=&quot;06ba64b4-df55-47fb-b6fd-704270b29748&quot;&gt;动态持续时间&lt;/strong&gt;" style="whiteSpace=wrap;html=1;shape=partialRectangle;top=0;left=0;bottom=1;right=0;points=[[0,1],[1,1]];fillColor=none;align=center;verticalAlign=bottom;routingCenterY=0.5;snapToPoint=1;recursiveResize=0;autosize=1;treeFolding=1;treeMoving=1;newEdgeStyle={&quot;edgeStyle&quot;:&quot;entityRelationEdgeStyle&quot;,&quot;startArrow&quot;:&quot;none&quot;,&quot;endArrow&quot;:&quot;none&quot;,&quot;segment&quot;:10,&quot;curved&quot;:1,&quot;sourcePerimeterSpacing&quot;:0,&quot;targetPerimeterSpacing&quot;:0};" parent="1" vertex="1">
          <mxGeometry x="695" y="2853" width="120" height="30" as="geometry" />
        </mxCell>
        <mxCell id="5yQ3ogZ6_WC2ORXl4SrJ-18" value="&lt;strong style=&quot;box-sizing: inherit; margin: 0px; padding: 0px; border: 0px; font-variant-numeric: inherit; font-variant-east-asian: inherit; font-variant-alternates: inherit; font-variant-position: inherit; font-stretch: inherit; font-size: 14px; line-height: inherit; font-family: &amp;quot;Open Sans&amp;quot;; font-optical-sizing: inherit; font-size-adjust: inherit; font-kerning: inherit; font-feature-settings: inherit; font-variation-settings: inherit; color: rgb(45, 49, 64); text-align: start; background-color: rgb(255, 255, 255);&quot; data-immersive-translate-walked=&quot;97a51d90-85dc-41e9-87ce-aa57213af31a&quot;&gt;成员与非成员的&lt;/strong&gt;&lt;div&gt;&lt;strong style=&quot;box-sizing: inherit; margin: 0px; padding: 0px; border: 0px; font-variant-numeric: inherit; font-variant-east-asian: inherit; font-variant-alternates: inherit; font-variant-position: inherit; font-stretch: inherit; font-size: 14px; line-height: inherit; font-family: &amp;quot;Open Sans&amp;quot;; font-optical-sizing: inherit; font-size-adjust: inherit; font-kerning: inherit; font-feature-settings: inherit; font-variation-settings: inherit; color: rgb(45, 49, 64); text-align: start; background-color: rgb(255, 255, 255);&quot; data-immersive-translate-walked=&quot;97a51d90-85dc-41e9-87ce-aa57213af31a&quot;&gt;区别&lt;/strong&gt;&lt;/div&gt;" style="rounded=0;whiteSpace=wrap;html=1;" parent="1" vertex="1">
          <mxGeometry y="340" width="120" height="60" as="geometry" />
        </mxCell>
        <mxCell id="eFboOEVi-35JP6s5Aphw-4" style="edgeStyle=orthogonalEdgeStyle;rounded=0;orthogonalLoop=1;jettySize=auto;html=1;" parent="1" source="eFboOEVi-35JP6s5Aphw-1" target="eFboOEVi-35JP6s5Aphw-3" edge="1">
          <mxGeometry relative="1" as="geometry" />
        </mxCell>
        <mxCell id="eFboOEVi-35JP6s5Aphw-1" value="&lt;span style=&quot;color: rgb(198, 193, 185); font-family: &amp;quot;Open Sans&amp;quot;; font-size: 18px; font-weight: 700; letter-spacing: 0.25px; text-align: start; background-color: rgb(24, 26, 27);&quot;&gt;Lambda&amp;nbsp;&lt;/span&gt;" style="rounded=0;whiteSpace=wrap;html=1;" parent="1" vertex="1">
          <mxGeometry x="320.14" y="3590" width="130" height="50" as="geometry" />
        </mxCell>
        <mxCell id="eFboOEVi-35JP6s5Aphw-3" value="" style="shape=image;verticalLabelPosition=bottom;labelBackgroundColor=default;verticalAlign=top;aspect=fixed;imageAspect=0;image=data:image/png,iVBORw0KGgoAAAANSUhEUgAAAeMAAACYCAIAAABYhxbZAAAdq0lEQVR4Ae2d+XMcZ5nH+TOU6fvSYeu+rzkgkMVcy5GSOII5NwKyhAKWkhbWgM0SCjZECQhBig0LIhMOFSwBh6CKii0HcAoTkoXFhCSO5cSJ7Vj/xNL9Tr/99jVq9fTMvNPzrdIPrZ633+738779eZ9+uqfnFT0FAX8gAAIgAAI8E3gFzweHYwMBEAABEOgpCDA1LilAAARAgHcCMDXvPYSAAgRAAARgapgaBEAABHgnAFN7PbRkyU8tWntFc3fWuHdM+9QR5a2WPCyLN+CmKwiAAAi0lQBM7Zn6/KK5X7HCfxdL1iMzxrfGtH85qrzFlIckuNuDhstSEACBFhCAqT3pPLUYoemwuPcr1nO2u/VvjmqfPKq82ZQHZQFxdwsGK3YBAl1LAKb2TL1kyXFhdaSv2ZUXiubOjP6NMe0TR9R/NOWjyJm09VKxa89nNDyvBGBqz9Q9BTs0HpHFt1ryp44o945pu7PGpVJ0SoTVdOTys0XzV9PGxpj28SPqGw1pQBLzOobQLhAAgWYT6DxTnxxSH5k1DLFF4ruhIIzK4tssafWo+u1x7dezxvNp3f1M0fzljPG1UfVjA8obTKkf7kbcDQIgkIxAc009LIvn5o2bdIlOOIYoPjJrnF80h+U0qiWb71es470yrbPFCzcUhDFFvNmS146q/zmu/c+s8UJadz+9aD40Y9wzqt4+oLzOkPvg7mSjtsU9jt2BQNsJxJr65JAaeVGfZCWNeRc06bE5O3tAxUpUSwukaP9NurRXNBupIcVO629SEIRxRVqy5E8PqveNa2dmjculpDcnAzyfWrR+Ma3fPaJ9dEA5Zsi9oi85U/8w8CkIgEBeCcSa+lANJlqnOg5sW53U9yvWySG1pyAkNDWNnQMiO/BfTgxeEIQJRVq25M8MKt8Z1x+dNV4sp3T3X4vmz6f19RHttgHltYZkwd2Iu0Gg+wi0wtR/v1N375j24QGlpyAMy+L5xYMj4oRCZ6eEFJuwmzd7WRCEKUV8R698YlD97rj+2znjpbTuPr9oPkjdrcPduOwAgfwTaJGpqQeJqauTOl0TuRCp3eqkTgJzssnxXvuhOprvjtwksnJOVgqCMK2I7+yVTwzV3H0lrbv/smg+OGV8dUT98IByky617HYrJyRxGCCQewLNMjXx5oHJinAB1sWUPvH7fsWiyQ22/gO9T+vhfEEUxBlVelev/NlB9XsT2u/mjNTu/vOC+bMp484R9UP9ymt0SW/VozKcE8bhgUCHEjjA1Md75bBMyRrWj/Xz1Cwacj+Q3ZZ+SvYVNjVJc+8VTfYZEroV+ZS9aUk/ysGCKIizqnRLn/y5QfX7E9rZOfNK1Pfd4/qIXf+nBfOnU/pXRtSVfuVGXdLg7u7LdebgjOjaJiQydeBWIYlnWdsmN3WdksTU7L7oPMHuK9xVxP5sxB0uk5s1UkGYV6V398qfH1Lvn9AfmzOvllN+N+dPC8ZPpvQvD6u39iuv0iUV9yrhbhDglUCrTV2d1OOiY9bUVL5xhcPmzXdwHW4vXSMVhAVNOt4rnxpSH5jUfz9vpHP39Yr15Ly5PaV/aVj7YL/8Sl1ShPzfqKEYsQACPBNoqanZBz+qkzobPvcUBDbcPt4rPzZnhjMh9VEe75VpIrt+yXx/KglCURPf0yd/YUj9wYR+bt64lupe5fWK9cSC+eNJ/Y5h9QP9clmTZLib15gr30MarWupqamL6f1AVtb0U/RK5gRsd6vS+/qULw6rP5zUH583Xk7l7pfL1uML5o8mtTuG1ff3KXB35j2FCkEgkkDrTE3szD5XR/IVVNYnh9RAroMKnb0zFreMaDqyg+NWSoJQ0qT39yl3DKs/mtQeXzDTu3ve+OGk/sVh9X19SlGVJMTdiLtBIGsCiUwdKUf2Ll+ScJiUYRMaVMRE1nVS2Kxu2HQ2u75Jy8uW/EzRfLZo3j+hf2RAGVPSvK6kSceWbbWKIJQ16QP98h3D6o8n9ScWzOupnjO5VrbOzRs/mND/fVh9b59S1ES4O9ueQm1dSCCRqWnYGwfoQFPHvazDEMUfTOjk2yt8mvqvxeCTFefmjXtGtWVLzuQh5Vcyr6+Kw9uu9YogVDTpg/3yl4a17Sn9yfmU7r5aNn8/bzwwqZ8aUv9+L2FBk6SsI44kiDBhJKGEMnwSaIWpSewcyGwEcIRzI4EC9N8Wx9TPhExNrzCuVKyHp40TQ+qrdUlIe8n/i2n9d3MGbR3nC6oovEqXbu1Xvjys/mRK/98Fg9I41MKVivXYnH2ZcnJIfXevPK+2wt0Pzxgr/fYrDfAHAh1H4ABTJ2xP/Zg6kI+OrJN9LCSyAF3ZYlMvW3I4rA5b6ULa9Mit/fILJevx+Y6RNe0IsqCJ4o26tNKvfGVE/emU/qeF4CVImFXkmisV6+yc+f0J7XOD6i198qwqiULGiaYvjagvlMwHJg54k0GggfgXBHgg0FxTBzLRdRpMbM5mseMKt9jUPQVBEIQbdenEkPrLGSPJVwT/4KZHkrx/QxKEl8vW9Yr1XNGMa3JnrTdE8TW69KF+5c4R9b+n9D+ndnfZOjtvbE1onx1U39Urz6jpL1wIQEMUr5StK2XrQsmaU713pncWXhxtdxLIwNRxyQ0SJkcmPajB2fCK1TR90QdbIMky+2xJM3pUF8UlS757RDs3f/CF/9Wy/QNdJwYPSI88PONVRV841YyDb1edhijepEsfHlC+OqI+OGX8JeY34A/s3ytl67dzxnfH9RND6jt75WlFPGzS6XsTGnnE5VLJ/Nej9mt48QcCHUEgpalJYMueWoG7jnG3EDsCSsKDHFPEjwwo90/oF+Jz2RTRhaL59+uG26KeHvmnfvmS+8sDL5TMf9Db9nM2CRveeDFLFF6rS7cNKHeNag9O6al/aPgl6u5B9R298pQiFureMJhVpT33B3r2SubOTKcmnRrvAtTQWQRSmrqzGtnso6XpkYenE32Tm6RH3m7JJD1CEiDU6RdL5nv7uu7Gl+1uw3b3+oj282k9yb0BSoxdeLFsPTprfGdc/8ygsmzJE4oUcPcOcwVzrWxeK1uvN/M/NTb7FED9zSYAU2d8/WuI4rIl3zOq/eEw6ZFHZ70EyH7FulAyPz3Y7dfmvba75X8+otw9ov1iWn9qMeWP5lwuWWdmjfvGtU8PqkuW/L4+5aJ7BUMUf7Fk3jWiNftMQ/0g0AgBmDpjU7Odcaj0SOBrJheL5tfHoA9f7/RJ4usM+fYB5Z5R9aEZ4+m0+e4A6v2K9ULJ/P28meQOMNu/WAaBlhGAqX0uaBJ3QRBerUsnBtVfJUuPkFjv+ZK1fdCP4zTpgDul2n5JfL0pfWxA+dqo/WROnYff2QxJ3PKVsvXePmRCWnFGdMoA4+c4YepWj0tDFN+eOD1Csq78DBf+j2RAEt9oSB8/om6Mab+aNp5NcLOXFfdzRfN7E7iUafVJwf+4avsRwtTtHJTjinjbgPKbuXrf0r5Wsc4v5uRR69YP9xsKwhFZfJMhfeKI+o0xbWdGv+Q++8EKml2+UjYv5eXZ9tYDxx6bRACmbqepewrC18fU5xLEfVcrVpNGQFdVu6h5T+mxdibL1yvWxaJ5tWw9NIPvMbb5vOiqYZmksTB1O0fkz6b15/3PIbD6uFy29or2Aw9PzJvfH8cleaM9NSyJl6N+yexaxdqzX5do3TuuvRlP7OHbQFwSgKkbPf+TzIeRZc7NGy/5X+dP1fzHBeO/xrXbBhSe37QX2ShuV6qicDVAu2RdLpt/XDC+MKSWNHy5vG0nArdjhqsDg6nbMEDlgnC5ZO2XrRfL5p4TU0PNzT4rrrnv2r5UMl+uWLuz+seOKENSxi+BanYrUH/XEoCp22DqR2eNJxaN7zhRcwXRXJMvNkXBfjHTpZJ5uWz9cEK7pU/O/C19XasPNLxlBGDqNpi6Zb2LHfUUhLf1St8Y1V5n4EFpDPUOJsC5qVeqZ3bOntnZXT/WRdJZPrXrtPrs1gpfrV7dPGsf2PbGcooRv1I9fWqpyeEzX7gybOzqZnedAhmiy0tV3Ju6TbZaWt9M5aNDKaw2D9n621oJ7XGl2qa21/dd6DgTNXlpfbu6mqhk/b2379P2dsexjdObax0kneVT1aZGV7WgwQ7j6F+HD7ADzg6YOhpQOh8dxiMrVSY4XVrfDsWq7VVDNJaegpCKzEr1TEeJJsKJbe6OpfXtLMLqYxunW3KF2nxT12isbhJBd34oEHvGEavkytSO78gcu72xXuvCnoI9Ot2J171yJxkGO5Lddj+iKmFCXV8WgtRDitXqpCfP2pa9C/tfd7anMzz5iOyFlk/guwg1sFXR+kkT6Hi1d8TmGdzjOXtmp7rlXUQzDbcj+uRzTIIjD4251c0ku3Bat72x7PGnuHoKQmTb6foo8rH9vru16eSXNtdqiSZ3VBS8XbMTp49VIP9DU1X2ejqEhJ7a+s01Ovy8TmEO7PRmNWGwvHxq16shRDhiaokt43KOLeAfDISJjcjtAreZMW13i9GTrla+zkCtEd5acbnVphNnvX0u105SSoCmg0KmrlVVK0nP0484EqA9bh8bPYN6YvrdzyEhrmYVy4+p7R7yjGMPL7cnjq2t0jQ3G9w5Q5Bu4j8TYnzkvwilw4WcJ2TgukOktlN/mbWt2lGtbVE7xHVtlKlXqVKPbZz2avAHFGxG+NjGFs0O26O25r7lU7u04XaYfIh4LYZMXCvs9cnrr52Zbh6c4rKNHNN2+3SKJF+I6Xe7sOMOew6rLRAs/k5hh4pgn8wMMfcc9o8H/xCis0htHK6u1NIXrlzsSugxHKzawPEcANyNP1xdBg+e+Nd17kF7J/pzB8/Kmt1BddseE1PHD1SHMDPb0e62d+0K2r+5Q4CFWWuF72rVGRu1ZjpTCG2ydwbV7fd6nN1h0IoyuTE1q6cgOP8kT7squAnrIHaZ6Q//6PRbuCdqdPp37Zw2zjnjHxzBA3b2GKEGcsK4J2ESU9uWdMt7sbNvJblucE8GprGRR5Um+7G25c4QCYzgzq9k7x4E/zF7bbcPOIo8FaXbfLffaWG6UOtHIi9XbQ4W5mC8I/EQ+YJKsqHvwNa23J36Gs7uyFfeq9lX3kXBpMvqlozuuIhNfDNcva0iTof6bads/Q3xqzZwAkYRDmTbAmecM9UxfVRrgj1U3JmJHXvBk652kGx31Ho/XGcEPX/Tml0g/6b2B3SsaoMjgx1GEUPT7hh2czsgqkUZpM+iRmdwcLi9y+4rpo+Dh2fHX+74czTkneT+2gIngHcGUhT+8l6BmCPxFYgh4ysTqIfuN7A+/G+ocrct8W23K4ki798p03G0MF2gpq43XYW6g8TyTI+EmxNjapZV8kg5eUm2/vjlQ4TzUdOz/7Is2HbK1h3wpIB/4LmdWysTRTiVqZ1shnN20OsnZxfB7qg1IXAY8cT8bQk2ucmf5sbUdhKN9Sb9l3WlE5fRMMeeS5nJk00U2KGo+5GdNGCWXT86MQW7x0hf2Bdf0ee/d/HldHng34jLbeaQyFWzeyS+9IKTmKN79J9OjLzSn/YhmSYY2X7P1hnidgfRg2cipjptt2uL8kJsv9PCdMGdcRk+4UYx5/PqJj1INj8TbldQDTVfeB3nOIUOyPBOmTWxA4kpk1AWiUNp2qLITq/XdmbgsREuQ9g/UO0jz9DUzqXk1gqVAGmIfYHLzKy0UcxRHR5mQuYNF8uPqQNXu4xDmaubrVO1Gwu1kUH+jbrkYS7uXE07vejdoNtcc5adHTG7cK6amb0TqzLX1N5Y8W1F9xJOmLgfOYPbTVZs2Pcw6TnvVVVddZaJ75hW2EkAb9dubpfUFrgJWXdU0fFNT+MEC0knBrtyevvId1RxbfcaTrIcDHnmI9rvFIh788ou7/UjvWkWMSS8fmHnEnrDsEay1iNOTMB0OnOz0avH3oT24AGOyMgmhEmyuYEMA2/Ak+awB8x0SrAtzEfsqGPu3TEDlSlMMLqbUIz2KeAeCeli+lGo3wnJiJaubW1uRCUDA+rw32w8oF8SDP5sasiVqQ9JLXoOP2Ql2XRDB+00lanZa5R6xNJV3kH00h4qk72pO4+mrb9ep3RmnbapmWnbbmDkJU6ntI57UztzbIB4RnBh6kOen7Wgho2qktfAZA/iXQNTR49tNz8T/Wk8z+4tb4/V4KUDTJ38dOWmJL0KDk283Tu4233CM2mB4DmGTgGBhASYUcSm+5gEiy95xY2RDjr7OI+pO4ZjwmGEYiAAAiCQggBMjckABEAABHgnAFPz3kMppl9sAgIgkDMCMDVMDQIgAAK8E4Cpee+hnIUGaE7XEsBP7TTS9TA1TA0CINB0ApYkXq9YG6NaI7bq5m1h6qaP0W4eXmg7CPQUhCFZuOL8MPxD0zqApCMAU8PUIAACTSQwrYqXHU3vV6wnF8x0nsJWMHUTxyiGFwh0OYGKJj1fMvcrFvm7XLa6HEjq5sPUMDUIgEBTCBzTpYulmqOJqa+ULUMUU9uqmzeEqZsyRrt5SKHtINBTEN5iSs8VvWiamHqvZBZVCXxSEODd1Pa3+Dvze/opOgObgEA+CLyrT75Q9EXTrqmtt1tyPtrY4lZwbmq87g4hPwh0GIEP9isXQtE0MfWLZfMTR9QWOy4fu4OpO+w0yMewQyvySuD2I0pkNE1MvV+x7sYj1Qe9Ni9ybMDUMDUIgEA2BNaOqnHRNDX1z/FIdQ5NzfwaW+Q8g5UgAAKcEDg5rNJo+nrF2vM/9UFN/ccFg5MD7qzD4DimjvrVhs6Ci6MFgS4h8PVR7XLJvFQyr1WsP8wbd41onzyiUDuzC8+X8Eh1misYjk3t/Ob0rvvbl10y4tFMEOhEAk8umHePqjdbsiLUNLQ+olFB78wYz7nff7latlQxjao6EUuGx8y3qWN+WD7D9qMqEACBzAmIgvi3Re9h6nf3yl8ZUZ938iGXSuY8Hqk+fKoapsb0DgIgkDGBt1oyDaj3iqbsBNq/mTOul62LJfNmPFINU2ceHaBCEACBwxK4b9xLfXx73HvT6X7FerFk3T6gHLZClOc8phbwHUWMURDoLAKKILBvZXqL6X0p8U2m9GLZ+o8Rz92d1bQ2Hi3vpm4jGuwaBEAgBYH39Hmpj78WTcG9x0iq+tqo+pMpvKX60OkmmPrQyFKMXWwCAt1D4MeTOk1S34VvJB4+JR05VGBqmBoEQCAzAn2SeMV9G/V+xbpRx5vzsmELU2fDMXIaxEoQ6DYCHx3wvvDy+LxxQ0YRZbdhDLcXpoapQQAEMiOwM+OlPj4/hNfmZQYWps4MZXgaxBoQ6CoC44pIM9T7FWtawc+7ZKYXmDozlF11TqKxIBAm8G+DXurj17N4E1OWboGps6QZHrtYAwLdQ+DsnPcN8k8exddbsnQLTJ0lze45J9FSEAgQKGkSTX28XLaOykh9ZOkWmDpLmoGxi39BoHsIfHlYpaZ+EN9tyfqhF5gapgYBEGiUQEEQ/o95ed6t/Uh9NIo0MMfD1BkDDfDFvyDQDQTeYHqpj5fKliEi9ZGxWGDqaKBL65sby9EfxZ14a1uba1lf8sTtK7y+vXsPHw/WdBWBb415L8+7fwKv9TicOpIMFZg6milMnWT0oAwIEALPFr2nPt7R6708D3yyItDdpl4+tXtm56zzt7u16f4S2ErVXUk+Osv8Qpj9Flb30+qqa3mmnlpt68doD7Gb7Drrl9a3z57Zrm5t24W3Vpx/d86ePrVUC8nZA9imoT3ZamN9s3YAtHzdvffYP0dZO+bq1iY5gNqxkQ1pPe27IKCssNChBJ52k9TPFE3J//K8Dm0Rb4fd1aZmMwa2Txkjx8XUa6srbhce2zjtabSnILC1uWWEnlWfHNe2dojfbe06u6P7Xduq1UYXnEpWqme8pIq9lSvWpfVtb6qI23vh2MYWnQCObZzegam9rsHMlB2Bmy35b4vm04v4PRc3esuOLRmxXW1qNt6kBiRc4kxdi39rUerBpmYD6lps6wia1k8XXEGzAbUbC7vBOy1sH2RwDvCEzsrId8DMVMSWwTIIgADnBLrb1Oy8t7p5cEztL+O6tTaLRsbUgTJ0NFDn0gW35ErVjZppYbpAC9trkpmabttTEJbWt30xNdt8LIMACHBMoJtN7Xei38JMbsFOGtCUhZdwsPO/gZia/rtSpR8tn9qNMi91Ll1wTV3Pp7RwlKlj9s7E0QFTk3Ab7mYnMyyDAJ8EutvU7q02Oy8R8Clzm86zc8G2Nr2ht2HfXaR+tINc994ds9IJft31zrb0FuIZewJwdGmXd/IktQ0DORM6T5B67H/dfXmeddf4Dolphb0tY20nsR5qNccxBZ/nD44KBFpDoJtN3azcf2t6ruG92AlxZhLqchpoPghwTQCm5rp7GtZxfOtWN4OXEQioQQAEeCUAU8e7jNc+a6K+0WQQAAEuCcDUMDUIgAAI8E4Apua9hxBBgwAIgABMDVODAAiAAO8EYGreewjRBAiAAAjA1DA1CIAACPBOAKbmvYcQTYAACIAATA1TgwAIgADvBGBq3nsI0QQIgECAwE26tFc0q5Nd9OMyMDVMDQIg0EQChig+MmvsV6zj2f0WzMkhda9o3qRLAYPn+F+YuoljNMfjBk3LN4GTQ+p+xUr398iswf7i7fFeeb9iHTb+rU7q4b2fHFJ7CsKwLJ53f2ImUCbDyYC3/uXY1KHXivLGDscDAiDQUxCI1iMtWceqAcnuVyw2TK5O6sT41Um9OqmTwJyYujqpsyVJF1Qn9fOL5rCc299E59jUoZfl46wAARDgkECcqcN5j+O9MpUskTiNtQMJjThTkwh9v2KxkTtZGTlVcIgr3SHxberlU1Xmp2PTtRBbgQAINJVApKnDmiZrqGEDeg1EypGm/uaodn7RvpFI7iiSELtL7i7C1MhTgwAINEQg0tQnh9RAOiLOxWQWCaQvIk1975h2/4StaZpyuXPEvrVIA/OmTkjtrZx3U+/6f6akvbCwdxDoKgI01RDOKbNyjDR1AFSgTCCg7ikISUxNgmhaM7nrGJgP6Kc5W+Db1M6PtAZ+UypnHYDmgAC3BMI+7SkIJIlxKFMTpdI8Mpu7IG0PJEaIuOPuKJJNSJ0/mzL2ima2jwDy2R18m3r5FGJqPscNjqobCDRuaiJlNuwldbKipw/esSvrPKVHPqL5bpoJybeveTc17ih2gxHQRj4JNGhqkvFgUxZEsuwa0vBAbiQupiYRNCt0llvkHMAW6OhlmLqheykd3fc4eBCoT6BBU7OVk/wGfUSPuJhNfwf0HXlHMVCGrT/3y3ybenVzF0/pcfmrbrk/MdDAnoKQoakpz5NDahLh1jE1CcBZy5NlNsdCd5ebBY5Nje8owtEg0FYCxNRhJwa+HR7OXdAbj/SuINEoiaz3K1ZA1sOy+OtZg/2GYX1Th6UceHQkN4KmDeHY1G0doxQQFkCgawlExtRhGpGmZr+QEtAoKU9kPSyL5+aNO0fs14yw/oWpA5xhauSpQQAEogk0Ymr22+EBU5MkNTE1fWKPLNAnOmBqmDp6UAa44F8QAIGEBMIxNXmnB6tdNl5mq2XfBMLG2nWe0gt/+5GoP24X7O46dxkxNcQNAiDQEIGwqQPBOBtfs66M/MLLvWOaIYo0piblSUkShsPUDfUW2wFYBgEQ6BIC4cfvwg2nNxLDNyfZ5/bCG0auIRNDuCrE1DA4CIAACHgEws+E0G+KR7o125WIqb2eyJYsagMBEAABEGiEAPLUmJ9AAARAgHcCMDXvPdTIPIxtQQAE8kEApoapQQAEQIB3AjA17z2Uj4gArQABEGiEAEwNU4MACIAA7wRgat57qJF5GNuCAAjkgwBMDVODAAiAAO8EYGreeygfEQFaAQIg0AgBmBqmBgEQAAHeCcDUvPdQI/MwtgUBEMgHAZgapgYBEAAB3gnA1Lz3UD4iArQCBECgEQIwNUwNAiAAArwTgKl576FG5mFsCwIgkA8CMDVMDQIgAAK8E4Cpee+hfEQEaAUIgEAjBGBqmBoEQAAEeCcAU/PeQ43Mw9gWBEAgHwRgapgaBEAABHgnAFPz3kP5iAjQChAAgUYIwNQwNQiAAAjwTgCm5r2HGpmHsS0IgEA+CMDUMDUIgAAI8E4Apua9h/IREaAVIAACjRCAqWFqEAABEOCdwP8DPpRExem8TyIAAAAASUVORK5CYII=;" parent="1" vertex="1">
          <mxGeometry x="493.5" y="3570" width="483" height="152" as="geometry" />
        </mxCell>
        <mxCell id="oQZ1bZ7hL0mkDEgHOyI8-3" value="" style="group" vertex="1" connectable="0" parent="1">
          <mxGeometry x="-6000" y="-2338" width="2690" height="2948" as="geometry" />
        </mxCell>
        <mxCell id="oQZ1bZ7hL0mkDEgHOyI8-1" value="&lt;div&gt;&lt;br&gt;&lt;/div&gt;&lt;div&gt;&lt;br&gt;&lt;/div&gt;&lt;div&gt;&lt;br&gt;&lt;/div&gt;&lt;div&gt;&lt;br&gt;&lt;/div&gt;&lt;div&gt;&lt;br&gt;&lt;/div&gt;&lt;div&gt;问题：&lt;/div&gt;&lt;div&gt;1、typeid用法需要查一下&lt;/div&gt;&lt;div&gt;&lt;img alt=&quot;&quot; src=&quot;data:image/png;base64,iVBORw0KGgoAAAANSUhEUgAABtMAAACGCAIAAAAgk+KJAAAgAElEQVR4Aey9iVdTa5rv33+Cdbvu6q66/SSBQBjCEAxzCIFASMI8RZyn4zygoOAEyqCgiKgMMgQFARkUlHgsj6fweHAAtRwOLUcPuX1uV62urh5u963q7urT9etyrVq/9e6dbHaSnZBAQNDHxTrnzd7v+HnfvbP3N8/zPn/Gw39IAAkgASSABJAAEkACSAAJIAEkgASQABJAAkgACSABdxP4M3dXiPUhASSABJAAEkACSAAJIAEkgASQABJAAkgACSABJIAEeKg84iJAAkgACSABJIAEkAASQAJIAAkgASSABJAAEkACSMD9BFB5dD9TrBEJIAEkgASQABJAAkgACSABJIAEkAASQAJIAAkgAVQecQ0gASSABJAAEkACSAAJIAEkgASQABJAAkgACSABJOB+Aqg8up8p1ogEkAASQAJIAAkgASSABJAAEkACSAAJIAEkgASQACqPuAaQABJAAkgACSABJIAEkAASQAJIAAkgASSABJAAEnA/AVQe3c8Ua0QCSAAJIAEkgASQABJAAkgACSABJIAEkAASQAJIAJVHXANIAAkgASSABJAAEkACSAAJIAEkgASQABJAAkgACbifACqP7meKNSKBj48AKILjT0qXxwsAYIFGFx2guBAfv8mLv2AtznZgvjujVUeCAoL5Cwdntl3FckgACSABJIAEkAASQAJIAAkgASSABBaSwIdQHjNCNaeCRQJn9QsQ+MbURYfFuIDFe2u0ttjPecECIoMT60KDvJztkgtdwaxIYLYEALwjyqLCtbMU+6gLRy7L9rAnh0G8RFkmcVIvA0WItlOr61GnHw/0clEK9N4cmdqSkNHq0l9iVqcmrzdZ16NOOSL25s/jtQnA89stS9jixXNxXMzE+u6Oze3R6jqV8lzm2EeYgGBx7OmwoMB5nIuPkBoOCQkgASSABJAAEkACSAAJIAEk8GkTWGjlEcBDWqFKOSByXhYUbojKrpf6ezj7ugsCH1m9KmGDs3oNAE9cqMg6GeA5W93h015COPr5IkCUx3NqXVdSpmuanVng0yfperS6nsSE9Z6c4iOluMmzuxI1xTNLeyblsSkiJNLZK5HhAsATqXxEyzkuSdMYm8IChC5Xy9Q/lwSBsE2W3qXVdSUmzlZ8pJXHpO12RV4ejwfBfsHJHATm0vmFLAsCUWQtWVG5DWFBfh9mshZyvNgWEkACSAAJIAEkgASQABJAAkgACbiFwIIrjyppcnu0NMDZF1cAUdRFF2REHo/nsS4yyyWl0j9Q2a6QqdzC8wNV4icKORAemcL/QM1js7MkAMATJIhlx0I4dTcA/vKKJF1PvDyde2YlJSpdT0yYHRkIVkRk92gzyxxJ6gDCsGoiJ2VVBYkc2hWalMfTQQK3CvRzUR5B5Cc7Z5ZZZyfOklKJ2d3avN5kYl/ZFS/PnI04SCuPqq0Ce+sAgsVxzWpdpyImYzb126vWmeMQ7Cd3A6WEDErIpkHNuFqc6RjmQQJIAAkgASSABJAAEkACSAAJIIFPgcCCKo8A/JAyVdohX+e9GomM6Io9FK1UJm4Vchp5cc6o//64rKogL56zYihnJR/kIK3amEQT+/rUB+nbp9JoQnAiUZQSXPXVpYU809zZX+GUtjgn5XHGy83sRq2Ijnc0aeAfqOzQ6lxUHgF4kv1SB/sYOKM8AngEHVJoinw9bERPCPYWJwg9bewlOasF8I+77NoQIDJI2eCEuNmu1vVoc9rt5szsIJ7jRNz8EOIjL9onKNFL6GP3FmfChfcQR1cAnkMCSAAJIAEkgASQABJAAkgACSCB2RBYWOVREaLtkEc47a1JvQ8nqXe5ICN6rIzIaI4I8rb7jm0FCfzFca3K2Byrw0vpIwhEUXVqB5ZxS2kwS62vtLEbUZRcMbOdHmVCiKZTq/uwyiP1e4CuJz4mmVhWAnh4RfBshXt7sh0Aj29/JwQQ+Mmbk7IcGSSS/Rxn8ihX5XZrdT2qxO3eTu7S4LzyCAKe4zr5Ch9xDIe4aZpEagZpVVG11SOwSBYzK6vJ6SXxIVKoPH4I6tgmEkACSAAJIAEkgASQABJAAkjgkyCwcMojAC/osDK9xN/xe74F9ezwdJdkRBCGn3FNqfTeHpN9VuK9BA0e2aAcW8axc2LazQQSQjQdGl2PWpPvwtalTB9Mct4HVR5JZxKC5fl+JovC7FD5eg6PYE7lEcBDUhKfad9Tm/wS0GXXH5wSOqm9LO0T4PF4ZKfXrsTk8tCIVSJbs0dSSUygLF8sYv3e4KTySPVfmXk6xF/k7G8VzNxRWzdSPtQ9qtT6hJwerWqrAIIDlM2ysOjZ1MaueYHTqDwuMHBsDgkgASSABJAAEkACSAAJIAEk8OkQWEDlMTI4yTWDR5dlRJ6rSiUxyHK/waPXFlmKKx7lc19tS1F5BPCVN8vs7VE4dyYLV4OfpzdX7BRnOrBYlEdzX8l+CCUR0jBReEV8urWhItkPUdepsgxRTawR83qTOTf+M21uaH8nSmeURxIw6kKcYpXQwRYNJodxi75xmlLaDsG0yWNmeaDQxpXbTIX7/+aIK+qUIl8xFdua3ufRe6ssqyFC4rRlN3ftC3sUlceF5Y2tIQEkgASQABJAAkgACSABJIAEPiECC6Q8AvACDynTS8ScJkvcvDPC0pojJP7OWg9RsTJUmt1eDhQKq4aIRlAb4jiwhlURZz6KC+NTUXmciRS1b6Aja7iZKvgYzn8Q5RH8vQMSOawaiQ4YGaw8JuYDQLBPUIqXVyBJ0qA5bR4dz0HwsUQSCpmyKYaY4MRLltsglgWSUNB0/G7K5jGwON5S1kyI3yjw3hqpnCnktG30G3a1TCdth2DK1hzuYCdKpjg7wZYdPQDYEWZoO8rc5iipnMNpnV3J4kmj8rh45gJ7ggSQABJAAkgACSABJIAEkAAS+MgILJTyGByg1CuinY4fDeAhrUhMLnDFg1UrTdFHhYidVioFPrL6ROU6bglm1tNMv8PPGNZj1vVzFlyKNo+8vIisblQeqZgn9n2NHc8sddYuQzq2te1SpFSzxLQKidhG1vffL7O356mtbMe5FC0O+onEyfZ3SKSyckqEFpWI+DPuz2DbN85qncxm0TrXB/ASRZ5R6XpUmv0mF3W28kgEXIEosjZJ16mM3+Q1Y+e5WljoY6g8LjRxbA8JIAEkgASQABJAAkgACSABJPDJEFgg5ZHEjz4Z4Gm2n5oRL6ikye3R0gCnZUQqSkbKAReUShI1e3ZRQRz2XrgqIr1Layv3OCw015OO9am51j4P5c0mY3ZVs3loczFWadLCZlAe1dl6S2tBsx90JrXFpN34LfokXQ/3UjT5QbcrotOnlXdihVor9bcTLsZWtnMLUE6J0NWabfvGWa2T2WZoXSqW1yfpOhWxLAdwWnlMLhAxBtcgEIWdSsjtUWfWhkvV05BnqPwDnTYrj0rFCmKH+oF6gc0iASSABJAAEkACSAAJIAEkgASQwEdIYCGUR6JotCtkLhg88kPKVC7JiK4rlaKoi6qEDe5UBMDLw39DREqnJq83eakrjyAQRRCrLrKHnQsO8k5cIAA8gcwvqjoht0erc7gDoBOVfeAsADxhpE/wrghtXViAcDZ6jXPKY7w8nUSdtv03O5tHuh7hmsiMLq2ua9oS2Xt7jNa+dm8r29n2x8ER0bZo640jTd7Wfgq9ho7uzelt7aBO5pRt3+ZDeQTgeWVK1Zc1OfXhITEWntS08mh11YPAU1KsyCJRudWZ5yOiVvt4zmqRMMN0nADwCDggTy42RwpynNvyrFl5TNSeicvUK1RFwUHxHoyKapkXPyEBJIAEkAASQAJIAAkgASSABJAAEnCBwEIoj8TgsSrIy+n40ZSMKAsLd1bKIWExylRWr/2OGRCDR/uGZuyyAOK/jM/6sSb7z9WJP/Hk7hLt1prXm2zvT3c6SMBlSURpGZK4M/FZlF6p61Sl1UVEZDv00JT6RZYp0tvVZAe9jgTN8ZCgcHBg8wgCz6BdEUmNpkggOe1KzfGQwGgL3YQ9XjrttUWW00Mih+h6FNHxtuc5jvyVRPVjTfaPNdn/U+rLcZrHo9UNe4iotiwkNlpOYuenI3jweDxa6GFO0boVgDBgY1Do5uDo4/K0kwQ4XxEop9jqetTZeoWq0CL8sVUnwct7+YFobRuxE9T1qLPqZTGbfDhVV3oguR2JZFNCaiLoDlhVaPWRnuv4OmVWJ4mFnd2siN/t58V3xtvarmXoXJRHal/UaaNIAFHURXmE/bgotuqe1QBn9xHAP7YlXlUU6GvH1pJUGy3ydRh7GgTi+Mta9lXmduXRJCN2KhN2cKwK353RqiNBAcHT22LSNKhJD1E1k6uVrPCupMz6GOXh4IAQ7jvJ7BhS/t1e0jIlpebP5tcCs/JILkC+IlBxgSyMnFZF/G5/Xz83d3XWY8SCSAAJIAEkgASQABJAAkgACSABJLAUCcy78gj+4rhWF+JHA/AlJQnpJf7O749G4ku4FjXbO+JcknqXcEa/QgDvn0Sn0YIaER/jY34qmOE93N7meraLA8Aj6JAip1ulMWsW/GCR9FhcVrc65YjYm8/RkDBdqu3Q5OrlsZt8RVFC3/TAqLK4LL1MeSZJ12Mh29HNQbA/8QxtV8RuIvZWxEYvKYDICpa+orZ9c1V5BHHs/1QTfZaSaFP/IlBoWyf7iFnpsKupmfoPPO91xHtd1xEdKrEAAl5+8gZ1bkMEY30GIAoriVLVU9Lh6SDRqoi0jkTNkeCgRC9RlE9IflRqpyZXHx0WbVGPqVcJwaoWdVZdmDSZmHox5qtZddJAh8oLFSdHO6PySNmjxWZ3U7636V6iKO/ATcuVF5OyqqKSOuwWB+Avr0hyYBk6F+WRDJxstak1+Qhnh6efkXjb/3nAsfIIAr7AgXTInntX09GBymZ1Tn2og4mYS2xrIgQ7/BHCrB6qqJ0xPYN3SoIVTtlKA/D8dsdojoi9vTyD8qNTiWu8SlMc4McSKAXxkoQGbld6q2A7M3ykPOtpLV7Xo0raLeL8qcMee/P1aLqHAPB815vMt3VdSalcW4LaqwqPIwEkgASQABJAAkgACSABJIAEkAASYBOYd+XRe3tMNhXclt2qgzREBie5JiPygg4rXVIqednh6c0RQd5cCpRlzxiDR7OmZtfskSnnpPJIqRLy7G5V4laLYNzm42rb6DqgkGg6NLqm8KBAi57zk0LIcRvl0bSXYrvMSmszHWe52TKdZxKuelszBo+OzR6n66cjGjvhbQ0gDD+TpOuShQVZjBrAV97MoWibRKgmRUqLLDzW0rQzIUTTqc1tCLXyjKY3Pcw+HWwV5ZzesjPrlCNzXZMe51C6Ikaau+TZ3dq0Y/7srU4BeP755Lg95cusB9nVZ+eoPIJAFHowJFgKdFx41VZHe/w5UB7pFWWr0grSpZrmucpqmR1k+4K83uSsqmAfO9esbWxrYgYoDVKUSWztEJlFSPKQdZiUWSe1F9uarwiQnYrVms2EzVqw3Z03LfXBxOxuYuqYc1biIwDwEgbk+AhttF2h2i8gZoY4POw+z0favNIsf72gd7SkrTU7FTEZTumt89E9rBMJIAEkgASQABJAAkgACSABJIAEli6B+VUeQeAnb1bG5Vk7IdrjBUDLiGJOL1fOUialMsZCluLMSR+klSzNbgu9z17+ebR51EpTrmqzygNtR0rF9VbpuuQRrEHRHuW6niTOvSltva0BeOJCRU6PijN4NwQHKC9rcmtDrLQ2exxmPD5PNo90u8Q1vlttZaMK6WGc8rFJhOqKl2daCyX06sq1ZEjb2OZa0qbbBfAIPZWk60mwF+6Zkq5mcJcmecg+pxpdB0fEJMfCpVkPmi/lkZlWZptUh1oh0dF0nSpLcY0SFimXc0ocDLJaUcJ4H79IuzsGigvjc3rUqYdmszUh03lCOCZQdsDa2dljfVR2j1bXlaDaaTfwFADfO9pu9wTq4Ohd1u7GttcauyfstGly9dGhUc7endjFFzJtXmmWyiMVpJuKk0O5is8kry9kh7EtJIAEkAASQAJIAAkgASSABJAAElgqBOZXefTeKss6bzdari0jiAxWtU+HvLDNYHUEgBd4SJnJpd9Z5Zz+mBGWpo8KETurBTBmjw72eZyunMdzxubRLCNav+dP10O5wWawXM6JwNqp1ekjJFwb3tmqISa1y45YAMCjijjS1KY741yKMXu0t88juxqz0mFXU7PITCl3uZaWs4GHuA1dOc3fpmtbFZnVo809FcQIviaw50I4HY1pr3MHW4g6lg7pdr23x+T0aDNLxLYbCDguDuAjq1frmsPtWeRRk2iXoTNLkRJPidyfVR5I++cSrTDag+FDD4HW6zNrQxnf9mmks03RayCrylqsnG19FuVMprJOy5pk64NdwQEOPevpBmyvNYuGWR8cTy4r44dPmq9HjjuSOQy9VteTGJfHHenoww8Ae4AEkAASQAJIAAkgASSABJAAEkACi5XAPCqPIPCR1bsQP5o208s6GcD2SHXMjbLdcylqtoe0wrWo2Y47YHvWGbkHBOI4vcaejGiykuvQsiUn2oCLLZmxm+ZQQyjtklPtogvSFaYf9rOVw9g1z1ParHTYVc3Y7ZptFWOZ+Ce0qzVnxGfHyqPpLEuQpTnY0xbp2dSdCRZyBQiiZLsZbB4Z/1zVZgF7UHTasThlOtuVlNnK7bOcSbzs1Vl2zmZQe//ZGxrTGUp7nUmDpkx0SYzmMxJ/F/dzBPAN2x9gG6gEpEGqC2FBDsU+AI+Qw9ExK4Uux1nOCEvr0uZecOpnDxCIaMu+3IYZ+sPj0ZI9h0LH8GQSjieXybYYEubrkXtc9HYEzgebWgwjwj4gASSABJAAEkACSAAJIAEkgASQwCIhMI/KI3GSrXfqzZ9mQZnpuSAj8ng8EjXbJaVSJU1u53B6deNkOKU8KkK0nVpdY6jYXrBs8FPoNbqemPBgk20mHc3ZnopkqzzS+VOLfOxJNpAbntmtdaCpuZGJbVVmpcMp5ZEIfCpp8lVzLBQej7haX+ReWjMoj9IglaXpqG9+bG6PNmk79xaHJuWRpVRajWVGdck8UjuaDjgSLok216nVXZDai/s8d5tH2mo4t9XRtqcm9/8e7ezsE02IbN209Uk5dHxwe8opOU5isut6VCrL7VB5PJ4gXapu4hZkM1oT6N0hc9rtZrDwGTd7i+f1Js8oPtpea1ZLgvk449pgcn7whONVSronFUftnatT/AcfJnYACSABJIAEkAASQAJIAAkgASSABBaewHwpjwCiqIuqxK0zx49mxkxkxCpH0TyYnHSCUiq5BR2rnKb8wA8pU9kT7ziLzOKgU8rjigiyA93pIHvxZ22FAFeVR0mJKq83WbWVw87ORINWP+1rarMYu/NFzAN0Wnkky0mtMwvZgYeUyQe4N++bQXmklT5WZBsaFB3DxN5/7UWAcc7m0TvinNo2/o9pFhwrj/FEoc42+0Hb4p278sijou44vig8VkZkdGlnlORsu+dgjCZVjnUJmJaE5YI0Zatb7ssVW8beJpLCNZEZXfZ1Utp+s92FLRfYQ6OYuxBhxsHiYVf7YdPm69GF2+mH7TC2jgSQABJAAkgACSABJIAEkAASQAJLhcB8KY9ErXAufjRNCvzFca0coYodcPTdHeta1GxFiNaVqNkOmnZwyinlkVKUHNiyUd7Ec7N5pEz5kgtEdm0e08PSu5aMzSOPx6N2S4yTqXgUHJLg/DeD8hgj0XRauLE7tnnkbIJ9cEa7NseazgzFqV0pNbvtyvezUx5BKpZVyFNJ1OnErE6OqOgWA/T3VzSrdZYR0sHf08uhl7RFDSCKqlNbCXCuKY8sgZJdM2cauDrM5KSieCfpetROxphiCjKJT9TmkRk/JpAAEkACSAAJIAEkgASQABJAAkgACbhCYF6URzq8g1UwYse98t4e45qMSEXNdhB02Ko5c9Rs//ne1tAp5dE/UGm5jaN1bwXi+MsW8WToUCf2tmW0VUNm3saRUrUcbARp1SX3fjTrcc7aPDJ7XxLrvPSw9PN2HZBnUB5tNN8ZY8g4HvgM0iGPB+AZVp2k61HKMzlqclycCv2siI7nKEgfmp3ySJcFL+/QcmVuj1bXERXiwx1wCcBDUqLMtQkUDsF+0adkTm6/6MiYkSUpOpnNLgvqBAA/+Jgyt0eVuJlbrhVuiMru1s4lqrvttWavS44n116pD3LcfD2izeMHwY+NIgEkgASQABJAAkgACSABJIAEPmYC86I88rLD05sjJP7ccoYtTqBkxLg8PtiJ42FbhCiVtSEivtNNRAYndcgjYpzNb9uik0c4lUcAoThlOkqGWY2yKyqRfQy7LNxsQStNvarVcYVgNscwsVANZtwiMPCQMrcnSbnuwwSrNSsd1sqjR4KPL1fwbsqvmTjL61ojY44nOLLlpL3IWZIWe+JondEiaDi1g6SD/S5BwBfYj6nijLpECYhaTtNFsmNAh9bKHpDusGmRWHofs8dijnZizZDJw7kUmbOMmOtgv1HittyZmLjFy9Zyloo6kpRyRCzi8oO2aAUof3PLgZi4sabJLcqjcFVEepc257TEXyrguJkkhGg6NLqOmPDo2d8HUHlkTy6mkQASQAJIAAkgASSABJAAEkACSAAJOCbgfuWR8mdUJRdwb8PH2RvvrbKs89wBQzjzg8BXfilRuY5LXOAqQIfRyCwP9HBa2eSqxqljdOQWq43zQBGSdCLQYldHKvZuCtdmhaZQzl3xMWnTsiC1b6Za1yVn4jszvaFiE2utdhI0RQ7p4fZKpqReTW5DaICQW4IBgSjijErXo04p8p0PaABeEbVqHWu/RUpb5ElK5A5M/Iii3aXV9UwHuWYgMAmTzWMdhypNm+LqLJmYDnZxq9IAPL98edIubgM6qs+OQsTQvaLD4+SelXjzrGlTLuR2lEdKlORcIcxg52LzOK08suQ/pmaSIDqdKtEmtMt0HkrIy7kUGSrncch85nxOSopOZjPXyvF/AJ5A6h24Jih8f3h8dWx6a2Jma0JanUxZFh61JUiSHRjXrNb1OBwRR63Wh1B5tCaCn5EAEkACSAAJIAEkgASQABJAAkgACdgn4H7lkaeVpuhdiN4AAh9ZvQsyIo/HE26IynRJqQwOUOoV0XZ2BrQPZzZnaGNDtsxEeYDGWjmG2/NjJaMjdlvq1EPWkWQ9VhDdzSq+MAg8Q07EphNJJTEub1qpJLpSsDiuWW0bGMRB08yAadvAvN5kXY9dw0wm8+wSlNFlAhsLKCRJVRzyHFM/vf0lmy1zikmYlEcbgYloiLvl2d3atMPWYCmJTZPbEB4UaKEMAvC81kak1dvVZ51VHhkXYCsVTxoYX6dMv2rhVs8MhPjLcwnNTAY32DzSe31yKo/RgcrmxMTt3o53J6BtDHWdipgMuz8DOCkpOpmNPfwZ0yAQeEX6BG+Vxp5NyO3RkvXclZhcFR61wZ/bKHLGGnk8Snl0JcKMfWd2J1pboCwm+D0WdtML1DY2gwSQABJAAkgACSABJIAEkAASQAIfNQE3K49AxY92bKhlxdNjXWSWOWax1SnOj3TU7IQNdpUO21IkavbJAM/5N3ikpCjTTnOaI8FBiV6ieL+wkriMqiBbx3AQeEnLlDldyoQ9/r7BlKe5n1dwviy9U51S7G/bW6Kd7ZJnd6sza8PDckSiKKG/ThJ3ITG5yDeEimSt61RltMqjtSz9MTow/pI6tzk6UicSUnZ7Aplf1CllTqdCnuPhwE5tAZRHUEg0HZrc5ujo1b5kLKulquY4eaajaaX8ylWO9w812zxGyM8laI8EBYRRFfqJpMfisrrVmac4JoKovTlhKZ2a3I54VRE1a1FC3/TAqLK4LH10mGPPXGlwYodW1xEToXBo90fbkHYlmlZFlE/wrohkfVxMRmDcZaKI5bQnZNRKxZ4m6ZO2xMwoETs2OKVtHsODLQRTZv3Te31amd8yZ3k8Hu0GbuXCT/TWTKn6sippt4i20qVsCYWiKPLnrwsM3RwUupmyKyyLii+JVDUk6Xq0ui67yr6TkqKT2dj9dyYNXsIgck1pdJ3KhD0B0n1RmjbSYYq5IunI8hCth60vuYOaXbZ57IyW2tlG00ErC3wKlccFBo7NIQEkgASQABJAAkgACSABJIAEPh0C7lYeVdLk9mhpALcUYot1FjKiy0qlf6CyXWEvFLJtl+Z+BAReIYdiUvVqXY82tyMhqUjsbWc/SgCed44kvk6Z1akhBlmdqpQzYWFau+obpQpJ4usSs7u1uh51drM8ZrUXH0BSkpB6KoyWIz0tHaiJ8rIrStOsyu1m1JZg8UxbcM63tzUNWZg+PZas+qgw1QwbfZJdEfUc/ubsKZuOMCPwJAOnZCZdjzqrXha9irBiZ7ZI+4mkB6K106CUmuPcoGiZJq83mfNPx2lCyOMBuz9dSelnQkNieAD+sS1muTNsWgIjDtrtsrBw+72lum6lgnnlSePLouLLouT5QaHbQ1Ut6rze5NQiH05ljd5Hkqw61g6MxD63hJgH6rqSMttMa4YeZm5HYsbFGJPncqqXyNxb2nM/rzc5u9xyPwEzXM6tMJ3d55HeB9MOUnMLdv7vJwo5EJ3aQTRHVeH0fpRESE0QR5UpMqmLjkiQrXKno+WQeEE5rbLwODuNsg4DiJZv9/elgoADeATtCg5wOiA4q5qFSKLyuBCUsQ0kgASQABJAAkgACSABJIAEkMAnScCdyiMAn0hgh3w5lQ5OvB4rIzIaw+ztNmhbhHpDTkzcanffPdsivrtjM6uCvGy22LPNiUcWOQGPdZGZ1UG21qDsbk8rjw5ERnaBxZemDIeVqu0ccV3YnQXgSU4k6XriY5JNVq6UcaJPSH5U8mUiZFPO8naDCJGdQIvic7qtd5mkd6Wkyqqz6mPiDkhCUr2EDq326N0q7RlX2lUe9Umph6ZjzZNL+7XL0WUAACAASURBVEx8wjZiaOm3Myq5UZnRmpDRTsn3p4Ic236ysfCDvQO3hiZeSMztVmc3yGI2+Vhp8UxmWpSnWel6VM7sGwvAF6m8LDZsZaqznzDtb9CjzaqTBi5K8RGVR/uzh2eQABJAAkgACSABJIAEkAASQAJIYE4E3Ko8+vjL62W2IVDsdRBAEFSsUO10QUaEmGDVhfCgmcLpMi0CeIVXx8lzmAOYWGIEhGqxdJWIeIaT/UAt9oXkHMlHoDzytFK1Ha9w9pABPIN3SgKjuby8pQFxzcTgMaduub/9wNw8Ho8fLGSsF+nKSYSostj43SZjPXaL9tLEFvVSdKgdC007yqOHVwRXz81tEBPRA7GUbe8MmqA5sExITIU8VZ+U05GYciZCttW8g4G5Qnv/By/v5SVxOd1aTuUUgv3k5xKIBjqXP73JvzuvN3lxio8Afgq9xipKlT1ieBwJIAEkgASQABJAAkgACSABJIAEkIDzBNypPDrfKuZEAs4QAGlQ4mWNrkedeV6WWKvMLJs5Ojk/PTT1qlbXZB0uxpnmFkMeIvwddoNlnNemCFXRtIvxBxwagJ+8Lioy26GrO1f/AIShJ+Sxm7gLglQsK4lKrI3VnjVHr0718gqcwWGfqx1ioi1aGypb48m982m0T1Ci0J7hJGeFS+4g8fqvl8fatw9dciPCDiMBJIAEkAASQAJIAAkgASSABJDAIiGAyuMimQjsBgcBAO+wk0riEdyZoDkS6OPQ1pW2rWPvvcjewZCjdjyEBJAAEkACSAAJIAEkgASQABJAAkgACSABJDCfBFB5nE+6WDcSQAJIAAkgASSABJAAEkACSAAJIAEkgASQABL4VAmg8vipzjyOGwkgASSABJAAEkACSAAJIAEkgASQABJAAkgACcwnAVQe55Mu1o0EkAASQAJIAAkgASSABJAAEkACSAAJIAEkgAQ+VQKoPH6qM4/jRgJIAAkgASSABJAAEkACSAAJIAEkgASQABJAAvNJAJXH+aSLdSMBJIAEkAASQAJIAAkgASSABJAAEkACSAAJIIFPlcCfBeI/JLD4CNRduaW/9ehT+2u/+VAmVyy+2cAeIQEkgASQABJAAkgACSABJIAEkAASQAJIYDYE/iwJ/yGBxUfgiuFJzObagNyKT+qv4/OnObq8xTcb2CMkgASQABJAAkgACSABJIAEkAASQAJIAAnMhgAqj7OhhmXmm8AVw5OA3IqfqA59Un/thnFUHud7aWH9SAAJIAEkgASQABJAAkgACSABJIAEkMCCEUDlccFQY0MuEEDl0QVYmBUJIAEkgASQABJAAkgACSABJIAEkAASQAKLksCfLcd/SGDxEWi/9cg368T/jD/wSf3pbz1RJiYtvtnAHn3MBEKk6cWNV87uiHNykCFMgZAQJ4t8fNlC0480tp7cHPvpEviAcypNL2q8cm5nHML/gJOATX+6BEJCwlcev9R0fLXsE/4K+HSn3x0jD5FtPtPRWpJJ7uEhIarCi/qa7Up3VIx1IAEkgASQwJwIhERtOtXacCgnfE612C+Msa15+G8REmgbeuidduxH8n2f1F/bzceS5aGLcDqwSx8rAeAr9lzs6z67TeYBzowRWAWcyf+x5gFYvqG6Z6CxMEnoFLePlcPCj4u1YJH8wuPHFpEAIcCX7ai7dq1ul8ID8DLEJeEaAfBbUdF5o/Vomg+1eACmD7hWEeZGAkjAHQTARzdo+NlvngzeLwzm8XgAsobuW3//ZPCrg2HuqB7rWEQEwDP92tDnvxm7OXo4HMi/0JrLN349dvNRSQyYv80B+AkFjQM9pzeH8eej66g8zgdVrHOuBFB5nCtBLI8EZiIAIF5RdmWo6+RKsbNvj0yBmer++M+Dl6ao+cZAY0EC31l6Hz+UeR4hWbCXh7pOrhKbn5DmuUGsHgkgAW4Cflkl+sHecztkfLwYuQnhUQ4CwJfnNw4MNu6PYS0boI8OtR3SenCUwUNIAAnMGwEAWHOu+5+ej/xm/N6vOrbyeLyA/Rf/z/i9f3o+8vfDJ1azrtN56wJWvHAEMqs6fk1Pbk++L4DX9lrjGJnr3/zs1HbB9LsMQNCak51D3dXrJdMH3dVL9yuP/MB1yw/cilaL3NVFN9YD4CcM2xD0WXdS3e1QP/fTdGNXP/GqUHn8xBfA4h8+CP3ySg7c0GcFLs0vZtp6cWBIfzTNx0naxNyMLrA0h0wPk/ysF/SZdF93qGyuXwEQtbf+xlBrsRbfvZ1cQlbZwEsTsPF6zEo/q+OcHylz2/4h/bEMn7lOHGf9eBAJIAHnCQDwE4tbh6435ivmxSyCmN4EK8p6zg2ULaLrHURBWy+c/EKf4DyopZVTFJlS3Vdav2pemFPWjVdv9Z3davM2CxCwre76rY7jmc65Xywtqp9mbwFAqKxY1/98Vdq8LCdnqIJfXPimhg19v6wZMUQs5QdXZwY7uzwQte/JKKU9PekeWOEB/Kzhu9TH8Ztfo83j7Jgu1lKwfOdXD6jJHeszrPcBSO43fEGJzsNjLJtHuvvAzyy9cqu/bluYuy8cdyqPwQdfrWh/t6L9XW7bE7lmESmPANnhJyfovpl7eBeVx8V6aZB+Mcqj4NDNL8bGntn5N/bV0NqYfLd4ZC+Lr9jYaBgaefxkbOzJw1HD0I3iwjPpJ/pqq066pX66kmUxR9a3/XzkydiDu4Ob0617vjDe1gCC4psd339/3fGf8XFB9mL1JM1oPPfW2E/3/xvDquWWt0WA3BsTprN0ngeNEjeudnbrL27kzlp5ZNdjby6Mxu4va5czNvBuHAVfkd94ffjKiUza42nGmoFVYMbM85oBBJrlxWM5rRMZJy76sn6jm7FREO6U106avgIujYTPXXkESnu81VGe55R2NmMPl1YGAE+/TXfSmiez625Jw11THyRFr5lv5MS1/jMOnAjle+sHhjvKMi2EcgDwrm1Jfz7s+C/t55Xij/23RghWBzVeTHwwkDo+lDY+qL2vj72wwcv7g73yzTin7AwAYtG+QzJDp+bhYPrz4bSxfvXNmvCTuyQ1J2VVGnZOTC8eArT2ONR6NM3dy0xUc5r+TjQae24vDuXRY+vh59RTh9HY+6T9Y1MewSPl2nPTU5NxqqF9HpRH4lWdd7LbcOP8Tu7nMUp7HL5WvQFN2ud+jYPk3IGX79u//1P7939qe/ubLXnWXwQhTb+mz5ryvH6ZbPkgPZc+WLT+7a82zlZ5ZNfD7q1Vus34vm7gtIDVf1D+rNxoGj6duek+Ko8cUwrgc7R1kGhPT7oH1/gAQFy5/u/H7/1m/ObXh2RebKTAP3qo9N3lU47/Jitz1DzrxcbR8FI+5BmacOlYwdPGskl95aS+7EVtfv+6iMV/1wLwKGgYIJM71vf5ZwEAEHH00q/IXA+PHVf6suaamRxKe7zRVJjg3m1V3Kk8kp8oBXGhJa8Xm/LIQCQ9FO6KqZnIbUPlkU1l0aUZ5ZFR/ZbF7Fte/fn9sbGxrz8vyHHz/o/L0pvq742NPRxpqKz2UOQvSyxJqxoaGiWK5887Gpg+zD2xTNPQOEKqHRt71HPmhFWFC6U8pnY/7516faa5IEpCOYqua294Z+x/NbQimGz6IJCk6TpHrxrfnj4dsXi/PwACK253GI39xre1jRkC2xUMPmlXx9s+Pxk6H/ZoAALdpfNvjf1zUR6p29Hy6rud339//cXNVTEsp10AYeTajQOPO6eM/W+/+MztP9UCyPZcvG7orl7ttJ81U8AW9QIfAb+zqjYiIOa2PJWnuLxEwW+vvHYy1x3KI5lBD/VR/fCtKyXprOlbYCAfqjmA3Mgq0096ybtW87geXBz0DSA65PAvctomnVIeZbsvDhi6q9dYPd4BRIYMXE8dbY4oTPSg5A/Po7Xa8SHtwG4vag8bvixNcrUz9UlraI7LS8VB5xfbKX7mvtiRAdXV/f5KP/ou7l93KXl8UHNth9DFeVn4oYE0N2yoN+Vhu6wyVxjIBwB+eLz4TK3q4VD682FNx0b3PvUu/AA/4hZ9csqvDg+1FCW6/XsWQFxiuLx4lEdytwdhhv7CR6k80ksU/NP7nvfPl/IozKnoNtxsLmD7WbMvDQC+7GDz8HD3yVXoc80GM/u059qvq6betxn/WDtwTmTzRQDAX376b+oefZ0wP24EENlw8OX7tjkoj9RFB6LNY6eN79u+/bstqyx+4gW/JEXJ1yUv/7v9+z+1PH2caDNAdnFUHjmXESgOvxi7R8uOBJfv+i9+ziE7UiQVXecr3pzfcT45MJhCvXH3wTf6yrGCOOqZgy+JVF4+dWLy0pYToo/5WSsmZ9NYS8mXu5Oy/cmLJ3iH1JSUTurLR3dFchJePAchomDs4bTsCJ4rDHe/cCA7UpPut76613Cjfk+kO+fUzcojj8cLPvhqUSuPlP0jKo+L52Lg7Imt8vgj+T7a/tGNdo608LdMdf7c3bGx0S+Ob7YQNP9ic3fv6NjocJfcTWaVP5LvWxZzZHPnA2JW+dXnBXkfyOYxZef9b/WDxYGMJR1tfMcW0SBx28hkW//eRWS5bLtOGJtBds+ZbADyxgc1jTHuvF0ylZM7cmHpxJyVRx6PV3iD2J9yWmWCcHnJYMt38yABi9dWXxseaj6gYNYAe2i2aWAVsD27wEdAkBJW+jK3bTK7pjPAFZtHup8A0rATblMeeTye5LNz/YYbjfvkC8zhgzdHbB63jWS3EpiRCs9Z9Md321fZTiiPAOK1p7qHbzYfiLO+nGH5muif98aeiGVWskd+tXp8SNu7i1HcICgv8l6v/Gj4LHq4JIpA0IrIu4PawQIR63KgOaR9XSeJt4a2qAYF0tURt/vTHunDPxNbdYyvOxj3cCj1bgnnr/FWmfHjByFAfsRqvGGgPLLc2wEA/tZrLYtKeeTxeKKa0x+z8gieNffmRXkkRuvFrcPD106tdqQqgvea6l7DLX0xp4rk3gX2KdTG2Azak/98ir45OXBqnlAApG4enavySB62KQPGNjtWmcDXZt/8bcvUv+z6jPubji6OyqPtLAP4VF+5NS07Aqypufr3NtaOdEGIyhlpLu5OIT/p0keyt+RP6Cuf7ItlRG0Iz7zbXNyZxGELYtv6UjxCILRUPC2IY4bM4/FW7zpAjB9rVq01k1mEQwPwKGkd/HuztSOPx8usvPIr+9aOzBAgsbhtyHCteq3Vr/5MhlkkUHmcBTQsMu8EFkx5XBZzMFd//8nYo946a6/qZTEFSU0/f+I+h26T0BlzwG9VuZ/SWnb8kXzfwtg8SsoqJ0b3sz2pOZRH8Cs1dIxeIqGv5n2yZ9tARuO5EUPZ0++4zR4/AuWRPHIJ4y+Ntt0us34nny0zUg4grrBp0DBwYUeYs5PLFJhLu24sCxAsDI8TsHQW5yt3RnkEj4TCxoHhoctlTrhRg09W+VXDra6TK13x5/XeeDd572eu2gk6P8yFyQng6RGiEc7W19JZ5VFRYF6w1iuWv6Ik4V4F25OaQ3kEoc/5VtWlrMV8N5vLfHkUndWM98aWRrMr4a8vTXgylHK7xM+VZcmuYQHSAMEB7Z2p4/1xpxJtZ4dsE3b0nGb0oiTRet4XoG+fbBOUHXF7+BpnmQesO33NcLP9WIa3W58WUHlc+BUI86c80pLilWOpDhcJgEdSyWXDcF/NZnc+88ydpHDrs6ol6K5LlMfHxoP3frBn9vgRKI/kmVa0ffP931fp93JONCqPnFh4PB5/5am3lJM1nQF8d309emvsuIrtZM2UDVm17VWFhSc1h/II3ieOltzd6Gv7bc7Us6QTW/MPTeoPtistvhzVG/d801b5i6Nat3unuZEVZJRNPDI5WZNLxnPTl1/delaZ4u/whky9MEp3XBgwDDUXJTr60cilrqLy6BIuzLxABBZMefzxhu7eh2NP7t3IU3BIgctSWtt+fq9kPccpK0dpt3xcGOVxe3fDF5ZbB9oqjzweT7jnyEPDOulMd6UFWhBczRDlsVFd8wXxuX7Wm2p1A/04lEcyERv39F5Qcj4KcFGZ+Rg/teTyLdrT2uLr015JYBWwl2cJHXdKeYwqajOQf93lOTMODWiPa8PA+W3SGTMzGcR7HqcsfeWRGc7sEs4ojwD81GPUgl3D8S4qLLsQX5fCfsy1VR7Jw5NqX+xAgXuVkdkN2e2lAHz9L11JG+90Xipyex9mXSF/dUnC2FDql5XiIO57EXhrwgydUdstNvecdXNY0BkC4J0SfseF5QSUxzVtFOFM/U7mQeXRSVBuzDZPyiMABO24MEh5Ws/YW8rj2jDUuC9yMT18isu/O7dElcdHLzN3PquZet82+f0aS8WEx+N9HMojj8fzyP5Z6eh9BdeaQeXR3kV39krH4BrTdysApFc325MdeTze7n0Hb60iG0EytdkqjzwezzNt/YODiVavY0yRJZ0ACGqorJjUb69gQVgqI6po7aD3dqQ7rCxrHHdCdqQzUx7Xhs7yLCejAszIBJXHGRFhhg9AYGGUx2UxB3WXvxobG7vZVMMpHS6LObSj5/6lIxZe2Jw53XJwYZRH8BEFWO5Jx6k8AggDAj7A1DvfJKU8SoR7jryY6je+PVOrmP5GpH6oWfLe1s6jcD4nAD+rrGvY0FuzmXuXd9uqpgsswa9b2+E4pTyK11VfMxic9qH20By7bKCkR+cQ0TskovLolPLIzyQLtu/sZptwqOQyF/jwLS0uuZVH4PP9hLaL4SM4QswGr3QtReURQBrU1ZM2PpjUkmdvl0AA8Kqoiz2V+BHM1FIZAmgPKsdcUR7BJ/dkt4GSHt04RlQe3QjTyarmTXkMzm8cpp2oZ+wJ8GXFbQZaepwx88JkAAhLG/zdUnTXJTaPj14mQ/q6kT+0Gf9Y03OCHYblY1IeAfjeARa7QDJrA5VHBsVcEiAUWvnbciqPAJ5iy0eyuTS6qMoCROprlqryOBeS4Lexpt9AS49zqYcpi8ojgwITi4jAAimPqvMX7pE9F2v32bVq/B9JB3/ivn0eHQuUC6M82k4zp/Jom22xHaGVR4Dw2pGr339/3crscanbPEryVhav8nI7cwDt0cu3DNcv7nLa1Zop4PbOfJAKnVMeV5/qpk0eLeRsex0GMZW/r2aDc56tnrnX01omUXl0SnnUHGknC3Z3uHOqLqfyaG/iPoLjS1h5jNoe8/VQ2ngXmjQunnUIEBp4uTPVRRNa6ZZzfQZDd0WOG82KUXlc+FUxX8qjz7a6QcPw1eOZTtzDATwzy64aDEPnd3AYuS88E2LGlfezssn3S1l5BO9dv6gxcpg9fjQ2jw4WBiqPDuDM5RSn8jiXChd52U9XeQTZ3sYbBsPlY2r3OFyj8rjIl/oi7R7oTl4zGO448c9gaC2KcurtnT3U2SmPy2KLI4quFB0scSzwMWd/vLlvaGxs7IFhp9au8shkphPLYvJ/mn22oONn54qtizg4xVTyP7TH4wvba66PdNtsK8m5zyOAeFV5xy3D8PWmgxqPmTGCZQE2UgfpJa080o7hxOxx8vRpVjyZpa480rqqg1mb3SmIyae+QY6qnHgHoExHpwvMrkX3liK+HmK1X0atvPxRbMbMV4Rt67bKI0DUnosDw8M3LldtkVHmwACRB5qHaSNGCoJYW3Dh2i0DtfEjR6MAYXsbhyjnbI6z7D6AV7T/6oGUSyQ291JXHsEr2jvhYHjRA83uWW5Y6YzyGGN65OHYB5ANlkmj8sigWOAE+Ib6FO4O1M5wCTC9omcqbT63cQQQeeo2SvYpmEYxYY8ACSkuS5Po9drxIVdNaCGhuPWWYfjyUTcGBkHl0d5Mzd/xeVIevfKITezg2c+cDFJPCZWGgep18zdSJ2sGflh44Zelr//Y/v2flrTyCCazx/8+ffUY2+xxqSuPPkXPiy6ucTybqDw65jPrs6g8zhrdHAuCt/9nKzOKwp191ppjczweL6O085ZhuLnQPXEa51F5BPD0Up2JPfk8q3Uyt+1NVt1I3IbN9r54APx8Vl5OqCKZV7S/y2n6RXJppzRByt5TwJpdyJ6Ig/dS6idy2yZz2yYya0fituwTec0wEzCfsa3BZ8OKq39z8vUfWozv24x/bJr4v6V911WRfHbPATI1VdfX1hp23PxVzT1DEIBnVsfekX+tf2cucrVdFmB3FCDUapsmyp79vplu4tU/FOvPR1nmNzfx5d4v/rGq74w3gEBxapPhN+ffkq/Plm//rcpwO4HLc43dT8dpEEpkcif/hYstfXsd10yfdVV5XBZTtL7z62fPno2NPe6vqwo+0tdz7/GTsbHHD+6311T9OOZQ1oU7t78eIzLjF7cPmWNYB9XdJWGm713Pcc6qMfjCvWfUv7Gx0QaW8si0TnXA4hStOdJRub/6avTnX41+/WSM6qR1QBtO5dFTW3qZUniJ88nesBnRAVXgDvWPFHBOXXKsPIJEefj01trarc3Xyj8fufjyTcv1QtPOID5Z63tHmife9RmNPa9Hj5WlcfweIozNbBysfTbRYzT2G6e6Xz2u1BfLA+13DITL9zaeuP+s452x32js/fZVvUG/IiuQ44pgtDna7NFo7B3vnt4u14Hy6JO1/uoXF1+/7f3+++vGqe6JpzV9tamR9lcp1aWK0ZedpEv0EIqivRzGtnZ+1PZiW69rbxhptHaIBsi9MdH//ffXmT86rjc9g1YHOVcLP6ei22DoO7dluf0pYBcEVgH2cToN4Bewb2xF+zvmL7d+INhcM1/bndpG7ucr2t/ltr1U2AiF4P9ZaMHd5PoJkqF1IrNuJH77UR8hx1yTfXzW381teZ1x/mn6+Zc55J7PUaFVD8m7dNTR6NLRjKY3uW2TOfWPk/ad8Quwjm1Nh4i5c+eOwTDcX1+YJCQC/upT3Tf1xWpSRfjGiss36MvwRuMeGUf36PzEO3uPzKoPzEfIuZ5lpsHgYidyS6vZPqe0KsdkyK3pFFO/PQAciWsyUaXPJq71J3zijkjXVkm3dCZWj0QneYJHfNCWm5qL35Dvx0svUk9eD02Q2Ps+JV/WqQ1x5Y8zm6nv38Yx9cH6wHA7vkvyS5rmN5kXnqaff5pF5XdGQgWv3OX776XUm/qjLbkSEus3o/IIZP31kAW71dk9NB0rj+Ad7V+0S1K6K6SuUtbdmPigS24OzAJRK6RXW9UPB9PGB7W3q0NWWlvcQFROyKVzyi/7UsaH0p8Pp431a75ojDqVJ7SMdASBmsDSXZLyI1FDrTFHowFAkL0tYuCK9slQ2vhgylf62PNrrIpMLxIQi/Ydkhk6tU+YJi7JLhZIaiqjTihZ2YiHdfrzYQd/qoZ0Jj87ASAWHSqVG7qSx0gTKQ+7EnpLgnTWa0Og2yAp3SU5fjCivSbW0Km9e5wOME0Xj71LIKQ+6oqrJ2MBkEtvUR0e7wxfL/Ytr0746gbB+OXF0PVi8E0Iar1EwI4NqK8X+1FbOgKAd20LwXjPVDO7kzOmyWS1N6pGb1ATMaC51xhVvdrL0snL60wzzUfVkClYkS+73ZMyPpTysDO2NksAItGhyvj7A6njgyn3SSepHxiEws1bqLVxKs5wNjgeIFgd1HiRboUCdTQw0a7PPghC/atPxVFkyEQ/6IxrPyC2zA9AN7Fbeulcwi0Ss5uUOlOjJD0ZShvrVw+elNgsPIaGVRPaLzlGDeDvs2+XpDQ/rP2SsmsHuZmxRpH6qCeh90iAwuqhdIbllGYTv4jpEp0A2uixr/az5Ry3R6vMTn5kK48AwuT8vTdH9ZNT/UZj33dvWkYu6xK5vimonHsG7jd+M0l9vxv7vpu8/Gy09OJW6y9TphsAINm4ufseU+Ta5OvmUUNRQ23B59c/s3qIYmJbM6X++i35Rja+7Xh867M8fzcO329jdfG9sXam/mejJafzvJluWyUAhCklhZ9TiOj+kFHvCBeav46t8hNP25RVl6lRU0hbR2/s3BrjKLY1uwmmyI6Zwg4QUAVNBsOt9iNa2z5wHqGNHm+1Fcfb7zxnQTcepOWq9u//ZO+PHWoZwGv57o61tdfXXhjd/7mx/OnvL4wY6HATwE/QXHpX9eq/WozvWyb/5cilEtst8ACk8sonRx//W9PU+zbj++aJfzne25cQY/9WAyDK69h99x/qviXvdK3vfl8z8mzN5iS2pEijMHtbk2VJmz22ThhXsXZ7tKc8km43TZQ//YF603zf/Oa3lYYvMzO4Hwmomyfp0p6Rf7n47R/NQ+iNC3MU29r5UdNzwQZuGh1AaNPfnnCT8gggjTr88wMPyBDav/8TGcWbfzs98mz1OvsPdWTixkuf/r5p6j15uX77H1T++KDdXxwis/nHusGL7CDIpNuy4+v6/rZmgqwHUxP3J3ZcvLXb8DQz2G13DzdeCA6qcqw8gl/EoTWpVWtTG/Zuvnl8/7PGg1c1pjdEv5jk7oriFy0Vk/qypxVrDoVZfB/xeDy/GHVz0Z5H9Scm9ZXvLp+abC55emZH56oIK3dvCFNUrE2t2rLmdvX+TrUHAD8uJefmqaOv2yon9eWvz+8b2BBpVYQZDngEbt+8ceRsyTdt5iaqd3dtSz2/b2tryvRE0HaO7y6fcvA3vGo6P1M/uSg8Ag9s+2zkXOkE1cREffHIweztodaBv9NSCaWqTSv7D+8g/TmaTD+oU8W3P2ggEN40HRhaG0bCilMe34QJCXQj3Lp5+2hj2aS+/FXd7gaVADxCTx4q+EUzAfusLHez5aMpu2+upmmjx+5Tq+zxZFcIIN/fdIN6pSIxsdmn6PT8KY/KoH2jmbV3ZOsL/SI0ooRjstKx7NbJzNIakc0bPghWhpY+y2l5lrDloI8fAHgKIgsjS8eyW16otqyzvZkSK6f07uRLk5kne6RJMh6JgBjpv7IvuXEy+3SPJIxD/mBG7qryCCD+y/isH2uy/1yd+BNP7uVFVy7IGzz68r9bXv2f7Ue3+/MBhGERB7489uIPLRO/2ro1jHnl2JqjOwAAIABJREFUA9i7bvC70vEfyH3nwe3owy9rvv3Pk4O3MzauC085mKP/7vTb9y0Tf7shm8PREiJq9j75g1UTJaRR49qM6fx0E0dH/63Z+P7c9ZrQgqdVk/9ZbRhdsXsTaaLn7+qn3rc8+krO9dxGjwXA7ydx5lHbz8ZQnUUCBNK/UFNNJMT81ObxwlXl8Ufyfcti8sPr742NPb7Rc3voi+FjhdXy/dd6R8fGvrpd2Xrv3vD1HbtOZlYZfvZkbHS4Sx6TvyymMFN//9mzZ/RHxizRcWJZfHX58GMr5ZEu4uAUU+eymH3Kpp8vMeUxNu/ycOXnn1d+fvf8i7d9RqP+RqEPgEBXV/Xyrf4L/aqNGen60e7vv78+NbJDZjmV4QWHn3zb+/rLgpK8AHJNSGQHWk+//K739d0tWVw/EkB4zrUn3VOvz7SXKMNIAb+0A/vuvbw29brqbJb1dc0ojzweT1JcSswev6ksizZdpJzKo6nb31l36cXb3okH+7dxvTVBeNrl0avGqY7Rwe352dEpusyq9sonbzpG7ta+MfbTwp/V+ndp1LbKI4BQXXhwdLLvgY3ySD3hCSSb8x9M9n3//XV28HEA3xOGjsmRPWu4VFqmh7I9F68bqF0eLWeKyWCVAFYBq1PMRwgolNe8yW2bSNm91SpYMwQdiz8/mVXZHijxZPLTz6mC5DZ1/WT26YFQjZpP7vqRfnlX1fVvsmtvLI+wyMwuSJUVBxf9YkblEcDTO2cgpWUy+9yd6NwNovAUv4waWelY1rlbyqrJ3Esj4WYNEQB8olYVn7vcd4tElbmhL9UFEKPH3poNYrG24GLfMDl8s6/1TEGOlC0OsjtGxaS51VGSwT5oL02rkDMLdn5bo04SqU67ewO7XSIUbriT3fZCtWUD8/3ondMef2wkrXkyt+1xjHZjRMWr7NqbUTlbReEa3+Ra+cnnOW0T2t3bmfxM3wCig/c/ym55qtxS6EM2EPf0iDoYdeJpTsvTuDwV883F5GcnPFbfzm5zwm08qkp5/k3upSfxW+jngYPhBSNpTY8Sjj3KbpuklVN2tUwaQLb74oCB2uWROeg4MYPyKE4LaT0j6zwju3ox4etBWlIhY95zImH0WlzTdr8UdXAnEfVS7xJhiG4LQCQ6Wq16MqDqPhiQHUoHVScmfgdPKB8Oaq7t8mY94UHUhrDOGsXdfqpypU/FBfVoR2zjHnFOjFda3vLujpTxQXXbGq6JCA3Ud6Q8uBReqPYMJM/iEBwrrqxWfj2Y/nzYvpLowj6P4Ju0vK8n9dEV+Zk13oF8AL4gaXVoX1fKWHfsyTR2lzz2HyWUOs/Ib3aljA/R+iBVvFv7s7PSPRqvrUfiHw6ljffKj5KfwQEkgZ09aeOdsvYLqr5DATkxokPV6rEh7WBJaGeHUr/LLyUxoL5ZOz6oasgkz8/U9pTpz4eTh1yL/GOarIeD2ltlwWvItwSZiNJK5deD2tsVgZaammdhtWZ8KOnqqdi7F8L2aLyyt0V/OZj2sDH83BmV4aRkvVK0p0T5cCj17nE/op/6+pZXyAb02rGhtK/rJKs3RH8xoBkql2zTeCUqfAsPye/2p411y0tjbS8KiFoXcbs/dbQ58mi6pzcQW8vVu6IMvSkP9ZH7I5n8piautWjGCFI/UqpPc+uU9ECmd6LC9+Dx+K9J95ZnWL+JEcJUEyl3a6W74wUCAIHYe1exYmQw5W51UNJ0fgBp4IUzsutXtOND2t5d3pn7Yu/3qfpKqVEkik/Wqp44DOkzq21DAbQlHQbDzdaieEcPyY6vXKuz08pjefjhwUvfvb30s84t+XnRaWt1zXf1U8be14Y1VrIg+CU2jXRMvWsx1GflyYhIBwCB8emnDZempi7fLucQHwFAXVP1zdv2kSurTEVEQbqi/DvPe8gjzZOCVeabAN09s/KoXdNUO/Gu/eGNfUc+i05JS6/uv/DXxr63j/db5bcalJMfwT9N/7DDSA2E/JpKRpHRMtJhfFvfvZtj+22A8HKDfmrqyv1r69ct96BHfeFOy1tj92h3TozlEGgsiYdPPJ3qe/eq9lp5SkqKbO2B7d33Wt6+rrr7sN841dBu8y5tamK6S54Reet6SCebbxzhAMuMFEBI/dx5S1/s7G6t4JffaDAMXzuZZ9Nzptq5JAA8fxJNv+Ck/KUTG6TMaDQHIFbUvTz8+XeHP/+udPz3LUaTazZEntv75If6hy/X7t4mr5ysI2LT7/L3WFwjINqy7ot/b/n2HwvOHl9Ovn/FQZt69j/5ofXbf9idz6F5AfjK6v7m/NR/Vd0YSFKRF2ZhzMFVA//YYPyvk1dPWcmabOURhJs2P/hDm/EPJ/X5zK2eU3mku91q1aVHv295+68HynVMWWYKAHyjTr2tnXp/6fnf7Cg5EJ6yTnnEsG/kd03PjCXj79u+/dXGNIshkxXoyqg5lUcAvnhtf/GLH9yiPMLy49sf/J6ahfKoSCKwAvB9tKc3/uy3Ld/96/5izomIyxj41+bvfnuspSZcIiT9WdW258HvW4x/vHj/2camydNT7y89tgh645l35/jEDzV3v0zLjvMkl7U4aG3zjnu/I/IuFyWG8CwSP43M/LEm+8ea7L+wtEyaRVX2isygPIao9MVbbh7ecrMk/xnRwoq7NEQcXLlxx9NLxbe2JKyOVLRWlb27fOpNaWqQ+UoH8Nu5a++rtpKRgrTt4b60buvpF7Jz87ZnreWP9imYnGSOlJkDh3eMXCinKg8s3F/4ur7g+g71tiiJJkF9tbJ0Ul8+sjXE1uINPKKbq09MnN1yJikolHp48w+Undi3+2lLxbvLp+wqia7s8wjBSQPnyiYb9l7NiwolTxdCWVLajbMnJpsLrqZbiHHbtlCUDm+5e5aIjJPHiPJIFT/xvGJdWZJkxfodr4iWWthGBTMAEJwsqZjUH7xRvPdpqW6vQrJi7bYXbZVvjusajpc8OJD8WXj4oYLCibbKR7sj7c2dq8dpP9ehxj1W37mc9Xww5TH+4L200nM+LHEBIDKk+GlO25ukzcSOhOkuQKTk4FhOyyN5ShDH8baX8Xmh7OOkoKJB3cQlYlLHc6ra/FivAUxDdMIl5RHA+yfRafTVS8TH+Jif2qkZIuoLXvx3y4tXaZa7p9HH2yb/92qWHyi5YLLulL993/bin0+/+uXmVRbmBoK8e+Vv37e8eJFieb8A4fbN939offFNumUTAmoLEo78B15fNL6vf/Lrmte/3mYhfYZl3Phti/E/ikq4begAvH4alcoatfx/2Rm1FVvnPwJP/JeUskm38ucxYX/FWhI8Hm8WyuOP5Ptom8Sxrwy70okr9LKYw3t6H1HaYncCFbp6maLq1Ocm92rGUNE15ZEyruRWHu2fYpRHupPOK4+WztPTV4091PPtbV14o4NWHsMPlT57WlFpNnKk5TMr5VGo23N/su/F4Ar2Bm1E+2uqnTT2vujPsbJ8BGF80/2rxhcnii1tyOl6pl4cK7DU1NjKI6UzdhuNvY/aTWGgOZXH8EOlz7/rfXHdoks8Ho863j/5xWdWz+gA8ov3rxqN+pslIRbSj4+q+cFVI5fy6OqoaXSMuSI7wak8Uo9EAt2l82+N/d8Y1kWbLxzS7quaC2nWv6dZLRVaSNQfirM6bu+jSXnUH4ozN2Sbk2gBqwxZbW/S8ndanQXhTnnN19GJNkpixNnE+sms8gZfq3sLdTyn9mqA1XFWvbSh5YzKI1/TSWTHk83+rN9OSFfTu1NaLJRHpm7wCUvefPRc+7WBq6f37Ko8e/xgddfNG11N1cUbEv2m3+2Z/OxEVFHbnTt3rp3MZR+0l3ZWeeTxeOm96Vw7QnpvvJtVdt52VzVJ0evctufJp58m79vDft4CiA45/IucthfK1XHs71MAT79tI9mtj+Vai4ch8FgdefKb3JZHsiSbuWONypmBgN8hRd2b3KY7YVGWFhMhJ+Lr3qxof+eE8qg/HDfz3Y/ul2PlkdV3nteZZlp55OsOxt27KDXbmtG2cmzlka87ohwbSrl9xGq5Agh9L+rTxntiCq3fvanKB1RDLeo7lWw5DLzV0qHraQ8bQjTWI/IoOqt5og/Ls15p/Mx9sV8RFYnTfMn5fR5NW/g90od/ZjnX9NZ+Y90xBzgMS0G6Lvo+rTyGBl6+ktC6gTbYNB2fVh5NdnPawQIRdfFSIZKH0sZvJF7Ko19WgdrYkZYaAUKDr/WmPx+2Ny72TLHTZLJs1F4ej0cdH0oZLvZh3TroxcBoefR8EUvPuyfoaNp0N9IeXlpuNnOg7TfTHnYm3O2MLVNa3PZ9U0JvXU971Ba+3iLWNvhqpIP9qQ/qJCwFkNyoqeNpj1pCdRZzakL3dWvc7c7YakvBN79azRVyh66K6TYDxDTq2yV+lgIKqA4qx4eS715SfmklfQpFZy4lj/fHVXJ7oDu/nJg+UF9JlPJouHJMbb2q2dlcSpuVx96n402vRvK3sswJga+8MtZv/O5ck2q6OQDB/oF2o/Haw2ZrmQCEusHX/caJ0iKbbzFQ7Lo/xVXEP/3Ko6vGt5VllkVo5fHVeNPrZydKWeZ+AD7ld64ajR03iqa75NJ4mczgkXL1aa/xbX3nVgsLR4jfM2rsn3p1bL9llwC8d13jkFZNx409D5qsgXhsLX461T/1pNiCKsDy/KNPpziUR3MTDR0bLX4ABv/0a1RX9TZK5fRwTMrjjZqNzpKhlUcDKeFsEaa5GRMA/P8Vqp1+wVEl/JT1ospZfEblkV1qOrNo++b7vytvNxk5muQzS+URIC5z8Lct3/5qU66FhSNE1he++GPrm1+ut9TsACDg8De1U/9V1rSFrQCa6jH+cPy8hesxW3mk48nUGd+3fvNtjvkt0lZ5BNLtH1rf/HKDVZeo423f/d9d2yy6SlX7qnbqfdODL2N9pucLgC8pmaid4tDUXB618mflRmJUaPvXZvyvuSuPALIcw+/bjD+U1Fg7CkDE5cMT71uePrbdR8K/9O1Fo81EiMv2PX/f+vqvM4NBGJkpkUyzAuG2bQ//2HCvP8RyVQPEZfT9c5Px3/fnT9Njr6hZpP9qufrPKcseympK/Zcit9XM7oxj5ZGds6i4lFYeI3M2jdVsOmI2ciwqLrVSHkNWbnnZVvn6aHKoNSXviqMnJvWFrZY/LvJ4PKryo19VFD8tz1nL8nsAv6TrFyomL2wstLnAt+Yfmmz67KiNMVlMzuYx+4Kd8/s8gke0vrpssmFbhaV3qel4a36D2USGTQniVz5so5RHUvzInY3EyJF8vdLHzcojj8crO0IU0jflmXQwdwBF93ly5NFemamIOONuW+VkeSZtec1uZXZpWnmkNs+beS0ByHad6+ol//RlqyyeNunW58XmkbjONd0JDbV42CL4lC3a5snc0+3+rEdD4cpbWa1vtDtXs5/w6M6BYHP06Ync89eDWQ9VpoP1N0NYDyIMSro29ZZ0K9MbJoOLyqPJ4NEkkNkxewRQrPj8P1un/nn3Vg7Egk1fV719f8GgD2BdSCblcer/7S+Ssd8DqWc4obbvty3GP5Sc1bBPRTX9usn4H8VlFu+NdP7Eq//UbPxjZeu0/Qs5TimPbZO/3GhjPik49Nf1xvenuw56srrEQmQyeJweNevVnck2lwRj8GhqwsbscdbK49jY2OdtdSYjRJMU+FB/oth8pOT48NjYw3sl6/OXhPI4F8jOl3Xsbc2uh1YeBy8WjDw5xtYHhbHa0jPrPmP9vmKSAllGiEw9IEzpHOsxTl1sy7aQyahuXDGUBbOXPbXCBZ91Nr4z9o62Kdjv3mzlkZg9llZMGPuN31SUUKaLtsojhK+/PdE3NV68zebWASDY2F7/1mjdOl3n2y+30vd3ZgikV1ze1rMYNbfN49HDT77ltnmk+wBCdfvjHqNRP1gcSH4fI6Jt+8iFGDYfdm+Z9Hwoj4SGuELZNJlTd5V9lyNyQEZ/WmWDj+V9BgRpEZVvchvvhJoff5nuAYBH9kB624R210b793Di4u1YeQSeJqL8TW7LU3mKtXBmu88j0zqTEMZ9VtHSd6PrXEGuI281Jj+Px5sn5RFgQ3TNm9y6niDWQxKAMvTE66RNSqsrhVwFRa9XtL/LLKn25lk/H0D4+STy/atn/zIHxHV6Mu3AAbZMaRqXlki3OVz6JjNwZ5RH/12PctomtbtW2U6oE97WtM3jfCqPZ/ZFGWrZmhEEJ4oPbfVn+cnSAhZbi2QIUKcGVRfTmCN0gpYvU24f96eci5mztJexrVgJEBjQfpWY2tlYjZHr++i5JDu2gU5KRXQlmvEBZa3FcwXdMfBNC789mPplJa3HMb0ll7ZJeSyXnLkY3zBt8ALA91y/OThf40nrjCZbuWkR1izhsUS9aRFz2kHbJeXR1M/7p4NsNo82D7A/7tT0lqD0xGk6NjLLm1aE406ZXNdt6Zm6PT6QwBosA0SwrTJpfEhzdQtTIYDI56I+1Z5uq9gu/2qIUWNNtGkOY9dszSchbKNsZCjFUMz20QOg5MKxzqjd1k+YACLfhvY0GyWRVh7TbFRmMqEpxcrxITYTZnTk7FxsHudFeex7+7hgo+UjKIBgV1+b0dhtKJm+y5n2KDT2PtZb/65m3r6wXp87nZ8etai6esrYc7vM+jhBod7z4O2Zs5ZfUqKa08QW8nVluaUxAY/HC66rMXK1zsY7YxqAl6evnzL2Pu9Nt/o2FxadeE32e7E2SBQXnXhl7H11Q2eVn5rNyKYHvca3Z2pZvQVYXn+/12jsuHnIQkak8nN7W3tsPfycq0s8Hi/gSNlrY9/bL6zd0pmRmm0eF4/yaDJ4NL/gzGz2OC0mWj7JMGNkJ8yZH2y88Y+l9dP6IHHmLexaWbiO/drlU/RNnaURIl0VsXmqNtYb35+/2WBxK5CcO/Dy/aWH9xWWVwSZu9juIxMmzYvpj5XySItfxOyxZTudx0p5BPBVXP6HFuN/Hq221uBIEzFEhrNq3VTn1P/bs3NaZTOPgtvb2uVRU8qjlbc1gDik4GHlpFuUR6qfxh+O1+kYdBZDmPzlOstfCgES1375h7a3f7cp2+LWASBW9f5Lm/HfC4tsaCgMZVPvzw+csmqCgBXl73j8H0UlHL/82WZ25ghj8Egv8nkye3RVeexel3evet0eljztuVx2bK1qHUvhoetkW0Ey46VOlX++dtq/kz5Fy5cvj6cnWzrUAvCPHiq1FSsBwpqrKyZrVq21uZzJN0vBoWcF1jIL3ZCTyiNdyaS+5LrlG66pkuCMuy0VjGjIjI4sA5PymF1xpOgWS7ADEK7MTj2hCaJVRVp5nNSXDpjXnrlje2rN9moA2lttlZxjZLfofNol5XHGaudLeUzevZZDSYSN0TUTuW0j4eEmURJgbdTpidyWO6FmXlY99tkyYmUm6ZF3M7N1MnXfdtvXGDJzgiJF/WTu+f4gG5GbrtlF5dEpm0dYM1L19n3L/dsSm3VMugQbNo3+oW3qN1uypu9EJuXxwW225TAzdloZbBm5yRiFgfBk/os/tk28zeV0CN0xXjtl3QFaeTx3vcbWLsbBKarDS9jmkW1OSGuLbPvEZTFOKY/LYoslaytkFn/lfkrajpJsKMmuk7FntG2OOcVOBJNw2o/7nYswwyyJeU24qDx2T3zT1F9gYfRh2z3hniMvpvonbq+Tcl0U27tbpoy99xtZuxAIM3tf9BonKsukFl/kdM2wvfj5VP/U/d1KVm1WyiNAQtujHqNZoLRVHle1XXxr2Si725Cx+8Hb/qnR/dnmRzrz9pEdt8us3/fIZcKlPLo6ah6PZ6s8UtegYE9v630ub2umz5IDx55/10+ZghIz0lcjO9LMPWfy2CZYztMcnG3zO+NtTXU4fPmx11ZKH4B/0IEx1Ua1VbX8jP70tsmMgwe57+HCnfLaydz6myGsxxF2Dc7YPPKVl5PbJrNr9FbOR1RXrfd5ZCpnbB4Hr+sriivPuGjzaDC429ua6hml3D2LTRVN93N5rarpbjjXdwFl8/g4hstQEWB1VNVEbtsjWYJJjQXwDCp8mtP2PDZjuvLpVmCv/Pyb3JY7UjsTQWBSm1c6cBsHj8LY829y276M4Oqt08pj39nN1kaFTD+tErTY5IyeRYlQN7RfdcqPRltVYvURfJMkl6ojjluYp9F56OZsXaEZg0qrqni8aVtL9ikAX/9LV9K4bB4J56AMSeVKRu2yLOiUtzV4a8IMg5zKJnVRgNeZ5lQbAYucomWyRz1JQ9aGdY67YZLwWFqqWcQkGzsCxEiHiBe5MzPFNETMQs3+2sxBJkHXn3qvQmxesbazYzUvtkKbbbeZ+gkNShlMe3AuONZ0/4SoLTFfmfy12TnptKn+sc7IbdPfmGwOVkU4T0FQXuS9obSfVzLjYpfibypTUY7VbOGJVh452To4Ra0Ep5YTuwNUqfn0traRBc3mkNaKof+OPTcNh6ttNmYxK4/Wmh25GE9UTnKZSVKDEhU27Nltozwajb1P2hOsCPB4PLMjNscp28z2joAwZ+BVv/GdteJJfsbL2zf6tu/di2NFrC96k4xoI0cy9QfXnCY6ZlcKc4Sfd2DM2D/14vBO1tMUfZYTlMmcc6qtdyfHMwN4rTNM9hPjUFavmLYojIvL23phbB5b3vznuZGbjg2OTFFf3v7DtjVcYGMGSt++b331MsUMFgBC6v62yfj/Ven3sgmb547Swoz/tn8/601Tcu7Ao5fJrImmLPWmBUpr5TGspXjColF2QwBhaYO/azP++8Gj0xoZvX2klVuxuUscyqOroyZLiEt5pJZWkLrvH91h8wgBhSMHhx/maKbRORgC1TQ1tNff2D51hzT9mtMSE6gJtbV5pGqDoKN31m2epsrGPov0orR5PP6Li4WdMwVHhkBlc/Gm5uwg26cdWpS8s45DeaQNKm1BMbaW7FMAQQ2VFZw2j2QuopIvrVrOzs+kzQLf9grWBcWcZRIgTrvTwq1sUnMtKDtSNqk/3GWpZZNTtPLYUPL4qNbxraPsCPG2bjdv2GrbsXlSHp30tmZQ2EvMi/KY2zYmT7H0q6LaB4gL/f/bexegKLJs77fjxplz73z3fOf2fOdEfDEzsap4I6KILxQFQZQ3CAKKtuBbsBUfiKAiCAgKIu93FQ9BBHlL2TTqYCsqhdqIIjRKnuOdnpgzp2fO9EzPo8evQ4mY796dWZVkZWZlFQgIsgyie1fmfqz921mVWf9ae63EZyHKL10CSUR8Anp1oVfpUEhqodBBQ1NhfYVv6VBIUjbzUAVgtuh4H7cHphr7X4DFS+Kf6jOAXvUgh7SBEGXnMu2zKdtWtGBMnEfaG3E0rXwX1/ud29vayt+VUqMpJRtYFxVp5VG7F7uf3XAN2++mvyBxIUWVSk39/mcbOBFqJeRFiVOM2QbjPL57hhnW7fFfBA6P77LbmivqCaVAY5XHwEuXvujuuqfW5pNRf/FFV9YxVB41Mhl3ky/3OueWwysKX1AN+vYLM1pnf+tmNhsJhEf3vGig7hzk7XfWXJC0LEj1n4njXOE85ZHn9shTHjXeiFRBhdjPUPQng0dFzxWKyi1Zr/1KaR9+/XkDNZKVpw0IyJ2gqPI43lnrUx5JKrGibGGGGR0DYGFCGwl31ftZ8j0j9lkzbTkJY0Qedrn9M2XpDDNs/bEN10cPsXoiWJ5wze7kOTZqdcOnbqGL2ebcAgATxrHfNZjvrqgxiU5rI+HzCCC32tsVohwKOHaU27O2uYjyaOESHk/Heezo6Lh2JTtqnXxlTGndua1mxsV5BCZJjaq56IizcEThEYOCHbcJ46sYEBPDgiVbrRPThU9mjM8jifMopjyyHpHs7maAPatJgM6OpZwtKuzQACEriVKpdvbmP+qN1TGoPHpUkb3tmVXz6fQ4bEOmYITyOMkZZrgGMG6JPH80bgV9ZRLFz91/wYmDS4vOOTVX+/S2vrvyKJPJTPYlu6tbfe+UrIgPMKfjPOozgHtcqJ1xz7Jl8D7upm6VCKoo35ywrrfVu/Eg+7s601ajhYk53LGd05+ffMVKKOFxZTXGbKI8Ckbkdssta2d62TFyTMXTrUB2cPv3Vq/Yoflte/KVRzqXDjf1MzOEh3KL8Ld2xjaz+Czv3laPko1jj38c30+u/QSj2CnN0ujbbk9vrPa/mcTdSyQhL0qcEl1HnoWiL2FBeEadStWQE6Gr04lWNvKgPnmRNlK+r66M0uOryPYPC5f4R27Nyopu+Cytu1/EW5B0tSBc9byBelHRVbd9Nx0akm0uWpCQFyVOiXYletD8QHwf1TDy4GiI5Jdbti0s2ntzRFxGZOpo9mj3xmynOwSAtcW5FHX1K5XOtlxNZRDxedTsVRdsPNc0MfWte9xAjRRf2i7+RDGBDDOmHgmVKhUJDGkcBJaGkYVJj/PIHVcjkw1/ExHGl7G41ci1R+/k5bnysXWIu+KTUa5XHdld1/G9Us+2XK0s+ENK8S6dTnSVR57bI095pL0RRwtUpVxHS7Y3mUxmm/KSeGK2ZGsCaICFc+VvldRoztWz3GpMGUBMeRznrAkoPcojbc/gyUnKMKNjv73PqqhyOl/Qv50fEN0w7r3j9lvu6minDMvL/lNJ/U3owAjgF3bztZL6IfPG3aAwEudRZ8TJfsG6PU6Rw6NMJhuXz+OLynMP49bzdpobnDSYWLo6uSSGBSqO7bmenjBYnvruyiMJYrTv8IAydeDi3ly/ZUycR4OW0PedleWZZ4fKDSiPZqERA8rUh3ocJ2Uy2fLtB4fKUx8cEmx4ZZRHRVSW7h5toW3Trzwu3Z/XqFKRfDGTcd1OkfLY4+wl4kNB9iMc7ydxncI1/gsQ2LhRORSceF70SxRZacd8z5KhkOzahfTPPlqPxQdO7uL9y2Qyu5gvQ5RD7jvGonpzl03bg7HKI7etvrJ/8/dK6m1S7lp9FRzyf1VMjea05LCf5gaUR5erCUOPtWW3AAAgAElEQVSjXA9HxguS2wN3LE1v1K93ciQSCXlR4hS3W4ky43nbYcQ/FR0YQKIr0VPvsNt6zJ3QkPJIMtI8evRIX27rjwPLK76g81Dnnf9XbfJrYZ+sP6PEKbbOeOM8isKZ9IPj9HkkGWakbQAwiWu7RFEVrXHzRGsyI3J1RvO4MwNUA1eL5DZkHBIpKruIs2lIqM1p9yAz+7Kdi+5ksvWZrND6ZET6prIq/3Yt12bNoH2Jx3TjSzKGCZXHCcxaQnm0D90St1Wv4qOxYf3eG89JYvE7Jc5chxcuOl4Z1h0va1WpKuPdjbt/AKcBryveS7BOpjdc19ppg2mYhl4LSLzAFzKAFv4UfWt0AxixvQFY2R56EKIc8Nq7mT3ILWi1S725rbUVBrz2BnEbMmXhbmuwDkyqaqcTsakai08ELiDhUj85V9tSTD87GJXb2j4it1Glqk0JNuppcnzKIyxdcuppSHHbYs1N0G1Z0pduoeI+gBI+j+TmePRhsHLIY49mmzaYnllL315Fo2oyyqOBOIwGlUe6Ai9tN7soBpVHmUy2Loa+YE+PbaFlm4sWGCVI1NuLV5/n/sY7K3wJJstsTp6mE0+3+N6pWdeU5ZgfvaS4xHuSlEdtHhtNVmvPtkyH5FBLQxKkVo+rdhBznGFnwWDxqovU90EB62PWkrQnOgIW+WAU08LYbtmC0AxDyiPZXT6u3NaaDtVVDlvE32WaHeu9V9ckOTGGTYHyuHJxY5N/75j6SV9FItvtWTKmB8956Eq6EkhFT2ny5HC0S7ZzskCM8sjxLWUPir4LpkR5dDpS1Kxqr4yfRKlowsqjtc/GnNoM9bOaEerKQH9B1/WkmsLIlh5x5ZHkUd0W1TXAJMKuG+zLVVXvPeyrE2CRS1tCXpQ4xe1Buszs5h6+Hi5djT1L74OWUirBanfnSAP14lya5vbBiLbibpviPo+LIruohhGtdskOzRSAUR4lVWDr7ReuqlQtF/fo+6LH65Op35huLARe80l/qd1ArUlXLd2/8ZXB61YqNVp8p8NR7GFMozxydEaATXu7dbRIriWM8ljx6u/c/by83db0gy7YpbzMpzRujzzlkfbXE5cRmbGsovuzOTZr5U7xLc/iyuM4Z01s1q88mofV74z14HIQlo1cEZIXLChnB5N4euSHgr5vElVP9ud/HvdYVHlkAm7qpOshppJ902+ZOI8iljB5bJis1gPfJrV9Ebo/cKolSKEZk3VkXMqjPrdEUWPAfNmxvdtvZp5+qkx5WhDXlbivNnJDUXzcZCmPAPOPHI5ms1rfSQ4vCSJ5YESNYQ8KXQvZU9zCJwdihspTuw+QzHui/2Dz3gFl6lCiH6sIMdW0u601ua1F2zIHp1959DpR3qZqLz2md1IS1gpPvWflkd5MrXfrNP0pedylcIh1UQTQeSmcDwl2SzZo6+1z0pVHzWZq6ruj0eJfBcksmJCLHI9FA8ojZEUPjCo5SiLjVikMr8s9wq3PDjqB3daiVKf54DQojz9xPmIaf+2mWpNwhisOMmWNg6S6uzCOeDtqD+Jua2OUR+eiOyTbtfQfV3lktEgD9Q0pjyRXzNlUEu2RyIW6yiPjNalHRmQub97G5/Erj+OetYTyaMw7DsDk8FXlCCWSG0dfc5BvTL7crmrKP2CccwpwGujrkzkOYLf45NMQxZcugcRXEcBhyemHQsdGknMmSzzBC9u/6fZOEqzw+HH2CLegFRYnT3kEx6j8xva2q4qzO1fTkWIA6FTV9ee2al7aeuw/V97YrrqavU80GoD1xpQalaoxN0LsLNd4pjwu5VEmk5mSaMhPGbURlmS5F1zTtxVdWnlklD52czQT5HFzxQvpP9ZHcgITYWb6LsqjPJC5YA9yE1UJLWGPTIXySMKP7j5F8g6rSf7reW4koygzolDbYo5LyJoSp8gbZ57j/OQUl5uNfr1EgvS7f3lt+cF52ojs7DTZglDyY09xC4yDp9A3k62j0bx0BSxiz9Qoj2Sja3qJX2+r/xcZC5cZeOJnjNRnITsFZic7Nw+4cHV48IX0hIIpt39t/fo1iWSHPu8ltyZb1iiDN8kec+agBFLRU8zabXjcLvHH20cvIS9KnOLMyICQzc6OKTAuj5PlEKGhBHodG/WJkgAOJxuLhikmZbP3am1AZ1FBjTsFgHlBsYfauiuGqYZXr5ooqravOyEjVER/lJAXJU5xx5Iuj1d5NFhfowxqt2Nr0Y1DeWTETUPPZvyd79xpwqLDRe2q9pozgdq3APcsrwzAuDy2Fh3hBA7nVZrel0ZKV4xRxldmHAy5X+KEZa6HI6NFCuvwjkgrj+Q9TqtjzI5grvIoLSNyZ8f6aUo3EVUexztrYrB+5dGYC8GYFQGr7aHX/lBKMem5Dy/QxiIUnYIGBaz0qPxNISe3tXQubG0rue3W0ojrv817QXLmKKm3hY+/PnRWJ/qnMZOaCXWmQnkEkPtu26suPTtUSvJfb15oyj5rMcNNis8jQ8/MxjHpQGR3UfJQeSpJ2FIco4pc565ffzRSeWTSv+hLkE2uZ8a3URBocsYqjwCMy2N1ykYDXkdGXpbvWXmUBTcHKoc2nkrSt08ZFl9Yr+PzuJne/3Vn1RrxjXgk4PGRR8HT6PMIYB7Q9jcl9cPpDL377OwvvCoal8+jryppeFTJ2T0t7fMoutgSjo0Sp0S7mv6D06M8fhxQdfmeWt3zRdaRMW2RIzLSQSFReeQsP5vbmnNMpGjQ+0/YRtrnUVhf335kMN9Q+7COompvF20q4fo8moe2DTRQwxkZK8S/5QIsybhRM6U+j6Kz4MmdonX0HTTfGf1gIPdm9yVKkBtHXxMA6y1pte2q2vRPRIJXirYaa2Doa4Np6LWNyqHAk2fIw4LtWbcckViNAKuWJw+FlD108ta3EGbzDtydTp9H4azBbmdmvUpFOz0KzwqPmHqdrlSpmvIOLDeEiGk7XuWRiZa48SS5UVru7AygC0IzDO62XnS8P0Q5tH6HJpyQtM+jaP+8gwYn8u7KI1hvTbtCLthttuIXDM+kqVAeTQ+f81S3+t0Zy3/NDirUtphTPIWLra8vziO3Ai0Agdx18+LSfI97JBiiX3fJ8u3ib1it+GVAKmL85vTlFSEjuhxyuTd9Po8kbh0doNBfvw8jw8Qk7OCSSHLFksRK7a3+PYplejyLNbEyp9bnkYSnZDd0a/MFNbtlefFWkH2picPI2VQuKi8y9UVPSfs8sgNxCxLyosQpGjJ/1zy3W9EygHVIWq1KVZe5U++v76INpQ9qNTIRSUv0FMCS9M5LFFX/9EbERm1oPGYIg8ojawkscoktSe7uv0L0x5GqrmJPno+whLwocYrt32DBoJLI64HZnf3yTpS+TQyaOIxT5vPIs0f0JchXHy9tV7WVRnP2rIjWJFegfHWcUmVkZX2dTO5xY6QrdkTjK0v7PLIdsgVpn0e2Grcg9Hmk3+Ow+OKrQmq0rO9JSPKzNG3OEwBmp/DbzJqT3E64ZfN9jzKn0ueROxZbnmrlEcx37Oh6raTeZF2rXM7/6BDZMM4YBlZ7wz7/Y2bX02Nd3xbQMmLZ8F8zuh59Es5PJc9OhFsAufOahC9O9Py1lLhAvsnuaFqtOzS38swsT4XyGLT38FNl6uDFsfzX7NwnXXlkegYwWermXX76WH8ZnTA6Z1e8ns3ORiqPO6Jih8pTu/YuYi3nFSBw15NZ5fMINjszG1Sqy2khWkWeN6PxvpxW5VEb53EsCiTohnEUWg9rSOZNNhCkEWEczezj+iUDQY4vzqPQJOERYRhHXp3Vpb8poXQCQRrwedx0M3V4VNmrdrPS/khO55DRF+eRNxzzUkJelDgl2tX0H5wm5dHpzImWB2q1uq04kxUc2QL6PArX3UjlUSaT0Tlk9MZ5FPbM5JDhekEK6/COCHdbMxXWZ2Y8pxqoRxmfPeDutuaHceT1BrC25N4VihMIEtbsuTHUwAsuybYS7raewKyN8XkEsIlK3eYjeCiht5ZfIvmsmT3Xku6crNnEK5yVHo2UyTgNuP0Iy8yGazo5jNxyz60AWoLkVTMmjKPdUXWIUiIQpIHc1gBS2qVwtzXPQvJoTrs8qlTE6VF4lneEJMuIVbTTwiPvlL6XBgU7YUPbqAfBJNnLumVJX67dJBJGmWki4fMIYLb45LMQ5VO2OTA5ZPTEeRTaIDxicCLgW7uhbCjkTKboPjtjdlsDR3oUGiA8MunKoyY3S6/GzY034mQpjwBykyVjrpTsKGBiP+98npe6lZs4hT1rvFSkL4wj2xWT8lgYCFJUC2NbsQWhACp0HuR1pXnZ28hmmmZ7YwsAtraKUqdjRNIC4IdxZKsxBQD7hdVXuFuhhavDU4SNMZs7ilD9FIZx5NaXyWQa3ZATCJLHgVtf9JRoDhluK2FZQl6UOGX85cQdEeQ+CVXttPBo1G8D3LYSZVF5kakvesr86Ol+qoEaSE0RuPNLKI9Wy23FspCZrToWc49EeS67vE9nUhLyosQpiWnyTjEJrCWURF59XhhH3lmyoMxeaW0+GQDZxvICiqrvvSSyR1UU1FgOGeMeGERs4EiPwrO8I4yDJK1S6pDnVZvOl8aLiQQ47aBXfNvw1mwm5QjrP2hwRpp8ypz914abCDLMME3ANinq4Vsl9Trls//3vFZ5FIZxFPZvc+p5DjUWCFKbylknuCTbStRhcLyzZpEaD4o1QDNZQyvCZN0p63viz4kjr2krFqqS/py0XV/zX2ViGWZ4o7MvwWa1jUC4AQBzz9JDPST+I5twnG0ywwuTrjyCjXdb0Vl9+7InS3kEMF8630TIFiwXJx2PG1CmDp7ZIJrgxUjlUV8YR3ZEs237h8pFAkHOWJ9H+ea0Oo3wODmfydOsPB50ziG5MtlM1gD0keK2xWIR7ol3QHhHkHLI+9PNbHB94RF2OemPAwMdTvpuazIoLQsW36gXDb0J4L2NhJX9r4O7xmLeSSuPjI9kXnuxtfZOD/ZlsQM6XpDcWdMTt7FcoPMlWUJelDjF6/Z9vZwe5fEnzkcsktp/oVY/6Ljqo43k+A7KY9zuGvG012yfcyTOI5vsRV/cRnLFWlstoLeyMtcY2G9TDVzVJ/PRV7j5ggU616M+5ZFxe6T3TOnEhaTF0NobGXY6vWhfaHTGh3G7tQ8HAIxYKZ6Uxj459TnV0Nccwiagn8CsjVIe10d03YlmM25rcIHJzoqCATqfNYDJppLcYaq+t9ZX+CVKO7+x/4PcL6HyGu31aNRdBDgNxnoRK2k2XCufum35ZEXKY2bbtbAi7Ro56H/4U+EpstCmW1alD4UUdyxbLG6ewd3WJFlHUGMA7U0vFLxA5rUi1cB2bxLlUaVSGZcxBkw948vbVXXp4cZlLSNzFAuPCOBp66GJwCgkA+vKfcsGPQ5XexZoAj4K60j7PGp0xrKxpNjARJCUzCEjt7Rld7sIRxSdCLca2KStKxkKyWuwMxNZTSKnKockdnMzXcn9TtMX7DbROyx3OLIz/XC6pyDVL68O85InQonWIYvFBEAUbENm6gu1LYOdi44L62NcVafmie30AbCyzi/36xX3ahRqZ6ITAdvglZ1SW5vNk/N9ekV890S1MOEQQjMMK49EVawmSWaaj1pqH3V4PYNLpHP7WK5qfUYyrYRzFK4OD74xZnNNYjxDuSowc8RXFceL2aQxiUlZ3nuFEU81B/VvYBelzaTPFobgZA0DMJdb6z7+0cEfJzHOo9zNf56LzhDs6NbBKTXt7dXJQfoWka05roKovMj0IDwFIN9ZU/LqVZNohERRQY2+13jW9OaV6ok4bBub1C9IYy0hL0qcMn7iTMYYyVTRS/I7z6ZoY0+D3Ln8QQP1MrvYXeQDlnyHIsm7rw40b2JtYMTNF7f2Cj30AZYVd/MDYmrTZ0vlkFmwQGRnOjsiQW23P6+FcWQUt5NdWdo9sjknQtzFm9vntJVFxUQAO+f9R4VPXKKVRU3VJHsZ/vWuIHEmAHLLBWO/MgJYOJV/U0aJy3yaIRbYc+MGivo8kuUAjdsjPy4knX+57OED0YCtWp3xdXz6mGzN5JwRTUoD5pH7e/hBEsc7a2LtVO62Bljq2/QdjwO7XqLiKQ2QzjDz1a/37g+1tzeQSoiuv9S36XcJmRvYnrkFcKo8OTBqjFrNbfXey5OvPAbs+lKZOpQVHin2uDhpyuPmvX0nPPXcr+dfTE7Wl0PGSOURlgd3KVOHzoV46XmqOX48Yag8sVHwrp+ZyiOAzfb0elV7ebyH6WRdclOkPD5127Jc+HUF3Mq8S4c2xp/lfjJabu8IVOipD57Lk5+FFFxfumzsiQdMopyzBkMyKriJ/MZw+NX6lw36HopklcqxU3RpSpRHCAy7+TfF8KuwNSL3D3BvTvxqtLCrbQXHa0mjPPZ0O3MOMqYCBIZ1/S8l9e2hyLFbL4C599Xvyqi/xiW7CsGSn6oSnqe1jSmV5JOODi6JcR7VnO3S3NzWjBr4sXtudqda3XOn8FQcVx/8ifMRPT6PJC+NWn2/5nwCv74mI41OXEhenfEqjwC2W1MuXVO1NxUf9xJLDiu4vHUa8M7qeznpGWbI5WceWN9XTz1LTV4l9qYgeZnz2xI0Oe7pG7NJVL1iRP+uYYeEM/fbti7hfJTrUx5lMtn6rMwhqoGXkQZo38DhW/tcOJ2wTOgmNcSFkHN2qzJ/mGLy1ejMAsAhq6vm1asmnvI43lkbVB4BbGIaynpqvdgfIRiD6X3WGRnavUua1DrD2SWbjLo3LN17sb69pSjaWfTDhGXCFoDTgD0oWmAkv6Cch/45Y6lmeDXBJHzV+cFgPRXkbpU+ykH/Y8eFoiHTjzHKI1geW5M7RHtf6iwc2eNJ+jegPIJjVO7Va+0N+VHO/Oa8uZAEBZvSLqtaFXHe+pLbCpuQ1GqKITbeomZeziXucYn6OgHwckgZ2FzxgpvkWtgz7fP42DVIbKPHhvoNZUPMlu2xhvRB/5gYUdpgl7T2/BVR0VBjs5iEOtY5+YZDp8dRPlrjx08Kx2whl85goxkFlu4hF2xxtIvh5Zh85VEsgwc7R662ZbIpdJ6jxkKewsXW17fbmkhONyscdomH0aFHeTflEcAiOd+7t251rGavPdckAOfFTU1+d7IXreUTFtXCuG2ZsjESnrAreUCM671W/57KFWJCA8CyhZUVLufGkguB3eaVnS2+18UlWpOIVI/exnX5QeybiLs6jJ28ddFr9r2SpYFjj53aOYJFKtFn1+X4sp+cALbzS6r8esqXh/Lrk/uaXejKm62+1xNsOD9LCDmwPEVP0Y6f1f560osDgNmx9LVloeysybgTVx5J5h9u8m767gwWF3JW056nrKlaJvYkMkVT0WE9uiRbX756/8Xa1vZrjWXxG204N1m2Aq8glBfZCsJTzBFjlEcA+93RHozoRiuS4hEPyayt9t6cfuURrFM6aijqyq0s8a3rC5LOPr6+nSsaLkhKfU7V3SsV2eMJTG/DBeVbx97XYB7c2E9HnhE4h8pDY9QUX3mUyWQLU9KGqPrH9Ru4T0djy+EZeetB3D7JNQUw9UmobG+vTdsq9YgCpj5nqlTXLp0JNPS4K3c+nN/YrlI1V54Ns5ccmrVzwgVwUSWP8IUhsM+O7hJR6MahPAIszvllMcXPUsLaabb1VtLtW86c2YFbS+LwaMm92y6Cb470FXtgb9ev9oZy1lqPzyOpbJt85DEJNagTFxLsPOu/LRv5Y9SnImoa06T04WNfjm8gLC+LG9Dkq2EtZwqWB77MpATK40Rm/XkKNTpFPo+imXnYiXCVRzAPdD8UyShWALAg7kkmvcm64tXfFS9e5z75fUrny9grN8LSs13XLhdGkFtc/B/6tEVmFN5Z+eqIi3XXVO3NVen7mPjjrFUzpDD5ymPQrv5yo5RHT5+1QdqPiNi4RH1ukqKniMBXFHF2wdjbhMuTzg8jnr3aWOURTGhtMbpU9MuvqUdT0dnBC1vCOO9rxoAZqjw6HMhvUjXkRHBvOlxiEyhPifK4ueJF8Hmlje6v9wArF8c9DC7rcnDUufGAyZYVZ5+GFHQsW6F7HMzm7e3aqHiyPtyHJyP+//dNIi8eOcj7sgQLT7lkDwZnXl6o9VoSEpkK5ZG42IR+njw0Wth1fZXu/QDMI3fffq0Y+npnkE6aWo3ySL1OKtzNnQWAuXPxrwqp0eyWHN6PabCiILrvjXLo691b7dmnXmaCZmG3Uvp/ud1f51aByqMw2bSI8uh0eF582+c96gc3W3dv0In2+HFQReVdNVe4ZGREkxNtN9TqO81Vyzhukh+vSYi43NXZdV+tvl+ZekooOLJHFuXdVKvHEnCzx3/ifETZ9sB+yTLuRWvmnVipUtFZd1uLDi3nnhItA92gg/5HGgg+2kRbTYXySJK9nEh8/LJhqCtqm/b3eWZ0APOw0ux+2l+Paw84bGl+XEcNZZVss+Zd4dZhh+/0Z+b563jISyiPGgVQNyMN8Q0szhqiarqKXHkJl803Rd0eujrUdTDEQuduBPabGmiTikLGPp0ATNYkJd3vUw5TDQPXw5fqQh7vrCXiPAKYeKed7XvJT+nD7LO+kbGYS8k+LrFvxNhUMyB3P17a0n45bYtxsfOA04C7ZMIyWJ5wzR8KUQ76Hz3E+9xmKwOAiW+tb9mg//FT3F+hyNOwTZRz5mBwduMiPY8FpA4Y2G1N15FbhF0PVPKHAMtgh8R7/rlDIaX3V63TWWvWvHEVwNQ9tqz12uW0LRxlwWAPJEtM6VBwci7rJQSwdNHxLmeBPMftynJnZ7CYhMetYx/7lNx/M6sX6G4jALvTrjmDIcUdyx109BGAVfaxj4KVfeu2+3OVC8LQYodj2kO3T8R/62IGNejzSPpxLvQqGeKZBGAz/0CXfw4Jyszm2uZOhFeWu8fQF+xWg26PjNgk6u3F65MnQvHOsi8Z8chfbLc1LPK0r6n2o3Nbk5B/F9LZEIQSnYueYiQn3+tnbAXJZBifR99fpItmYhFqZ6zlvALM81ra0uB3J8feg3cNWFlfKPJW1zknruF+pDDNRbUwXs/0O44fH9CgzyPdyso6o9Bb3erbmW7Ht8p23sUij7oDlpwnSaKyRad7qhvXFW7ifbUDx12rbrX4Xj8z327sfT1x5bG3xUt3aPKjxabjrvdafTuTbDlDkFmIDU3PbtnCymq/++UOe8Z+RSbHx+nzyA7hdydnsa/uYx6AybY415t8yXjCyqNMJqMdSxtcU13YVSYGt6TYin3EWQcmVF5rqzgdwH6Usa24BQCShKaD/sfkwOaeFS0L5UW2mugpWh0T2W0NAPa7DneRrdOFFVsBzDfUXdNERdT4Qg4XVO8TcdkjPo8jFQ1Hxy4nmUwm4dgocYq13JgCeO698byBGsjM2zj21ME0nP9pnPp5drGukybAiswbl6jhgoqdOvUBwJNEnrnyoEInWiUArEk//5yqf3p9uxPn6QWsnfJvFT/pb6BGlPWf6sxaM8RI5fXzDjzxEZZsvPpQqUrU3ZAiNk+w3X6hXtVSdJQ7KLcigNzxcFFL+9XM3TrvF24dpgxgHny2toP+p2qvS+NobcLK734EbOKjHuqIawAWjgWvksoihZ0brzyS97UV+YaofPmHo/EevA80mUtpzKPfH47W+aEIYB79DfFNZlOhHe/Lptw7qO0PGVcvcJ259Pk80p9OjO45ylUeyfGVBcf63pY+erJBV5gGcA1s+a7s5R+Oxulo3DSKrwupN5mNOl9aYVH03q5vcwZGlcPfRGzTvZzGO+up9XnUcBDutgaQ2x2+lzqkEU9hSeGRplo77VsGFu0KuvIfuX3/kdD1TdbTv+QOvmFT/SiptwX37vvoAqTzhr9OKj7Ie+glzInP45uMKp2cip6nq+gLvEOlqssIN/z+El6KU31k8pVHh8DO0lRRGdFsiWvluaSh8tSOcAsAefyxXUnaYHSi8iIzd9FTjMD3ZbyfJ+fRgqkPQHweB88Gi7orGqk8kgVd5H2t8Ozgha27dYcAmJ98KmFIcazCXefLrGZ0JvPM6RmU2xrAZmva5WutpbHrdW4u0pcWwOoD2Zfryb/y5K0iH+ZTojyGZDWtiu0JSKte7OZKUg2AmcnKYysT1UEl3WuCPYVfR2Hhp6tS+kMKutZsi7SkLyb5wvAlMXcDS/vW7Rz7+ZqdKoCZ1Set/iWD/qcLF61ZSRzHTeytAkrXZw8EZdQslPwuDeYHnDIHQpQ9a/wdhA/Z7BATKNh+eid54G3hg2fhh4Ot5UC+HodfPvrgdenAL3cJtEKtz+NXR7v/nNbS4uO5XEYmsT+08ZuCkbcFXSqegsnYYxLaEv/kjfLFX86rujcf3OXgu8VhV+6uhl9lD357JHY1dzoA5vYZVAGJBHzLRfc7vMSpCcx6ipoId1t/7HRkSfpnt9Vq9d3PooM1maa5st3HTtFeZV1qtbpdkftTWhP8eM2ZY406UuDHnllZn6vVPV0ZUWM9fOwUvfbCZ7/oUXffbD8dfdbU5fDHTjF2ByoLPrt3o7np9MXaAxG6iuTa82da76vVDz5vath/4OzqsPNb0horOu6qLimjqu8+evRI3fPg9hddWcd0WjGmfuwUu0FJjLxRU7bIhV/hvSiPQNwPy0eohuGuSE/O9mfhygIsTPu8mqLq71d5cLcYC2syR4jSl3P+ycuGF08LVJd2RgWt8vVdtSvuYMPt8sGHp2MddJ5FmCbmmyI7n9RRLyofqGLSolx8fVf57tpc1JDVN1jSELtQ9wpfePb6pZ4aT32W0D6MOrut6YethfvLswZGah60Rh72siFvU2u7sLTTDwbrBgQKqdakg10D9SMD+S1FW3YG0Pa0FDx7eDo2JYkk0aauDD6tuHc5kBVExjVrMF+S3ln96lXTs892ruXABzBfGbbt0k0ibvKy4pjbu11QKV9S+QpvHfDApNChah407GSGeKkAACAASURBVAjRlXp16mlfyH3iy9tay+P9ed6U2vP8/wOnAf8c57UmjKP+BDJMXQAzy+B6n9JB/8QKe7eVZCFgkYV3rlvWQFBWw2J7vQnE6EVcvfjklyQFzf4wnljGMURGgr4duhesGPBPrFziHWLlsGHBJoVb1kOPPZHLk4aIPFfctyHr+vKVItchtx+JMonIHpHTcK32XNj4ngtpnZHofV5HLy508bFyPrgs9v6GhHRLmZQx4FHlmyPlgajdba12O3rdP7vdYUOImRm5E1kGlK7PGQgpubvKS+QhAEw/WZ74MFg54J/W5Bi8z8rBy8phx6K9Vzxz+r0PRvK/DnFwAJhZ7CDhUDYmZlvpfgvi1CJFs5Am/9KhoKw2pv95Pmmrz6j948/bRX4RpBwKKesPyH24NnRsWxmvOb3ocu9T5W1t5acDxL0CmSYAVvOySnx6W32vn56nq73y+iQ1Cyv8e1s8K8LNdJ8OBTUZtavVr7t0xdG1JiYAYGXmE0rSv9wuWZl30aO31bvx6LygCFadIX5wxRX+vc3rSz7hda7vFKPTbXjc7nunZEV8oKUjiflIgj+6+S/MzffqqRWVBQkZE7elLU3+vbWrovk/SfImQiovDVneWu/bXboyPsB8IXnbyVf72ysV3j21TmfcRN9NsPaA891W/3tFS4N1NC9e50TCrqvnmgGLNq74vNWf4zwI7gfX3G31v31uAUe5I7pqSrZHT6vfvUtriqJsg50s1q+ff/K0U0e9tyqBKyMyIwJYWcWnu/c0utceXxBgR+ZgYmt5IG7NL5q9VTq6LQmhlZjj3dvqWbWLWQUt/Ma1GR7M3QRMnO2vErMdozRvDY1g2l3iWFXqcS150bZVZMVN7OclprrdbfG9ncXTbRmr5H77V99o9u3MWhq13tSSXjiPT5Zdvex7T+EQyV8XDYe7+Ut0ZUSyQAwisVPywCNrulpIrvOK43bb3SzWO1ls2bGkNN/zjoKvbAKY7Eha39vq25nME7IJLT2n2AUlOuOtFr/u0pXJoVbrnawijq66Xi16+YHc9UhRc1vlmWAxUZLtkH7/TkB5tE1QVVJUfU8NP4oIgMgpjTpG1T+7HXPSlyiJsHBJWOyhtgcVfV2x9V01FHXp86x12/Myui/7aq8lkj6bBGZ5UdFVt32Ptz3ze7+Vw8pP00/fG7jyRKWrzYF5QHkeRV0d6NizXvcTj6Sa1HOKy8HI8vz90STK5IuKe81HUg67+fqu8o/cVtFW8GxYqUoR8YUEm/XFXZdGXpSpCjZuXEK+IlqtcEu+kjvwsra7kk+PXg7LT2uKhqkr/V0nM0n/TpGJ0R2PL3WX++XcpLN7D196+iSrOGTsfgTz/cvvXaKzficqTvmSZzN/v8SK5AfPLnWX6yib+uZI3MQicprar17cJzIFYhWRJunTWnFHX1dEHw8+U9XG/Cp/rTxuvUTNdz/FimvZN++FHoxwCDgeVPnL7Id8bY4ZyCz8fgY1qng2vNlJ6gOTtQpWZh/qea0ceZ3Z9eXO2BjytS4oLbTmZcbAXxLz9wrvvwCu/nW/LaRzIh8pzHbz3eLgu9s77f7J3u9zu1S8LCVmYXfPD7wM1WMJ48PIUx7J/Tqg+vijN6V9r/YnkCzPAHJr74t7b/6pZPj3R4QKKfkx2DWg8Q+l1A+ZN2g+xJ4HCX1/TszP2NtN3CrLhv+W+/jlNi/O5WT0rMntdrc6gyIK5v7dUg8JLFJugW1e1vcsSB8HRgml3mTfuOXrTg9hH+iW8MVJ9Z8zO3uOdv+gHPkuJvWgp+KXrNZM67M/8PRfANsFnru9k68duPmnUmq0oPPKYs6VzCT1VhJKd4N2BjPps8HGdeXR1uM9r0sefsmTei39Tyma2zvof5cSdB/3uTN8T2UAm8QTpwbLU58m+q/mTFNoDoDNucSkofKUrojl0t7uAPItTIaZ3P25nvOtyO3K0tXNs/TUsS+zIhTRhwfKU3uOuQf4bL51JsiTfloGkwUXSOdnOncv43Wu7xSA9zUlSWY9cHFvrp/DOjrmI4D5ahfX3FNxA6XRSjFZkHxAWXq1kjCUhwqXi+iGvImbrQ64npc8mLM312/ZMvLQaLJ0lXt5yqmB0ugKT/FPBjO/HY+UqUO5O49qRVVen8xLgPm5Z88OlZ9qDNT0A5ZuDbnEsDxtbhyzZcE3lalDeTuPiu1bF+1W9KDc+4Silezo4v3gJFqZPQjgfLS4mXaZqksPE/nSMRXK4x1nXzvyncQ33zXtUWAp8x3voVds4cIVIgHUGVvJg92WWo/MLzcqtPVPKezph292MryC3OHYihNd/gUDIcqhEOVAYEbnmp06/oNsfYDjLoWkW9G/EGWPsxd/IxjbdlwFIh3Wf5357IcykqzqbXH/N6dqKlbrCn9Mh2NxHs29vYu/Sn3KNHlT8PCXB8/ulfj1GKyD/IoHkh/+tXiE/kD/6vuMrp5NITqPtkzn7M8vFa/+nlK4jjuu6KlxzXSqK7PKI+Ng+EjPP/UXrWGMyOhE8lCztbrbLzt7FRZ1jR35xaXCj4NrG9SaIzyvw4+dDst3Fp+r+0XnXVJBrVZ33ezMPZvGKJhcfVMjIPpkn6n7xc17dOWe+zeuq9IS037qFLv9Uldb3dWjx9JXh6XYuI0JixKz4PpUCpXHKd1tDeBcdKf21asm7h8lSFTCpFLh1mHLFMV3xxNeGNaeIcUtWQ+f1Y4Qna7+q4HirsvbJaQxsF5xrDjp9sOq4RHyBDzy1aWHXXEpIWNekEKzeVueNZe6/ebmvqwi7X5k1jDyJTJ0Z31XybPhejp/ZW3/g/M1Ka76FEzyjLsmsEiV/5SuP/JVRTct7cGx032PM6/mEznSc6UFVxUlWVyMmDXjasrC1FcYuX3Qjb6v8ybOhc84TrI98LaZs3PnFgDkLlH5jc2KE35SUg63yVgDyecMk6DGDZnlPJdtbj9MmRCzi1ge2+VXQDYRhygGAjNvuuw+aKFHBjLd3in6AU7alnQ5rB57qGXHAphvFVy+PuNJsHKI7l+10tdFBkuXJX7pdbKUliNdTfQMx3YiUWB0x+q0TxZIAhHtAUw3LD5605e+fwUXqT0OHbeQlB1lMtn8A/f9ow8Lf7rj9s9mmJE7n3VOeaC5/xapPY9nzdevDtDqZKFryv2AEnKjJFJgxnXHIF9xKcqZpH3Ttxb6gjZy7QkquLt25w4TgHkRXazcaS4pFJLHPnL9NTQrT/qJ7WlgXP82PG7n/vkLgjMyvmDcOmxZ1KuRYUseG4MiVjRWetGZpv3VjV43ixzTP7EgGtOyhcoKH3Wr791yxxPEZ5Dxs+N0O7ZLWuIUEbwaK9YURdunnFrVqPBkBupt8b1Ts64+wW6Tzi2e0KD95thRuAWJiZCGJvbz4hPXdNb5qFuJ0Hmvem3NiYXrdR6FRWGyQ/jfPDNP94LnGeNeuIHLmbGHO3feZl5ilWPw4tL89Xca/Xpb/XtbvG8VrUoK4Im27HVOvgq7hi6tUXh2N2943E6WoyN/pW593hRom52XXiNTZv6IV6wuQ/dCEoRLozySK0dutu/4atVlHzUxyfeL8jV5Oyz0X6Uwz9H2Qqbbrau+9BRI/dKD83Q9WJnOWRtIjMv6A8wzvcSpsYnPc7RNP+c6tnaX19XH89dOd1IbHrcz8xK9ZthT7BBMQe63d0VjlXcPsxb5DgdX8m5wNChad2wtP73RKDlAs9u6vbnq3B6DmweZFM9jdzTaXZGxTeIUgM2u3OTuvkvDlEY+e9SdmL+fuOmB556O/isUVTfYc/qU9qmA+E7W5Ks/jy3Miqppy1I/JymtyVPB8KX+B+cupbhx72Km+04+prvV1KHGkm5LnOKBNf4l2Hum12aon5K5UNTVl0MVDz6PSQkV8c1k+gSYF5R07Ka6aoh+cKKGLz3oOpkhVd/cN+HYTTXTf93g48zKWAdzMMvsrFZ/fpzIkT7Ll/DVVTLEZ92K58M03pc1Tx+cU5BWIjdf0ZkC2Gw+W3OtLnO39hsyWw0Y3VHsFFuHV4AFgfFlLSpVa+5+kS+3vMrv+BJgpXvxi/P9/6uMGlW8+D6jo9Od49HG7JblfrHilnm7aIWWgNzZ5XxP/IPvmBTJihevs+8N7jgo8ILUtgSQ24ZdPtj5TTbtZ6ek3hT0/eZ4QQrXC5LRuVgzlF/9aqeuqyz9FrZwLP51FifDjHYEGdj4+Za8ON/3ms68PFo68G1Si8pLj3JHd7XUObU38SFT/01B78s9xH6/XV1/TVN9QeRabx9r3uVkxKwZB1J2FhWv/i46EdZstsCbPrcH0snTJz66Fy3I13lp50tLpSRL9bbdZAnMQjsSn71RUm/yujVujAB2nlf/qByktmg/SdhxmYImwKXuKNaxT87f+2p/fsve+uEUGhSxZOSHgr7fxCoKV4o91cgX+R0raKADjjvxhniPLwGWFZ5LflF5jvsnDM4I9NZpbh22LOrVqEEHclff4LZzp57QmaaHFGe+vLC/etuqpeQhbEVBcsKAMnUgL6rUh3znYpwuOd0euKDFKHEKwLs593BDhN/5iPDrqXFMSuuh8pT+/Liu40GRy/iqIuMjyY7CLQyVH69w0/vpB5aLT0RE3slLHGCEzoJjnUf8t+o+QjB+lNw+ueUhgf8jK5sy1e4fXMkzr30rQGjEUDmRVl9UnpO2UPoqAlp3bC6N9dR950q3oj8Npl15NGgTViALs7EjZXh0XLmq5xQ3VnkUqn4f8BGh8jinFh0nO80EAGw3J1c10X6PRg7NNjCy/gdcDSy8YkubG4ui13GcVaduvgA7VmXed/KQ8gbV+jw+MFht6uyc0p7JBVvZRPwedb82TOmg2PmcIsBRHvV+o5hTQPRN1mZjQnlLffb+1aK/T+hrhcfnOAGQOx8uaiR+j5zPcGCOtipPeI9rT59FaFqtqrXoyDtsXJjjy4HTnwABTfBH/YmttRX4+uZ4xwKQ+5ypVl1TxE1GaKDxjo715zIBALttadWttenbBb8SGYNFk5emIWsPJyYs23DyfR7ZrrEgQQCVRwk4MpkMlUdpPngWCUwKAdqP7Gpt5h4jQ4IynpJMg0kxYJZ2ArBkR/qV5qqzn4i5tE/WpMB0w8JPkhY4EJcis0+uB3LiQuobgvV51Fdhth8njo+aCxaFodm+mDPRflQejVkV+er9OXVNitNG5YoxpkOsM3cIEMfH6maiMtLiIwkIsvlsdeuV9N3iu7D1kWG8JEnOGo6Iqa8yHkcCk0WA+DzWf1tGvU4qENkOT57WSOKHt1mN2dyYmxMYnbwxLrfXZuzgyvQT6AebIIFxEQCQr4suamwsOq5nY7jB3oDkpaHDQ4p9OKPyaBDglFQw+1Sd8WJU2fc80Ekn1vuUDDYLO0XlcRYuGpo8KwkQ8TFHcT7czkjrafGRbiB2RzGyk9lezdI7rqA4cdNUyo4ymWzB4Ydkn3hJj8fJDt+CLxxdDDg8guna5YkDIcqn63fw08XMduBc++UuB3MU58LFfkrlVsMyEpgAAU14yp7KlQf4O9wn0NsH2QTANjixKD/OnxdX64OcLE5qKgiAzeZkRVHMWvLrEchdD+eVpYWNU3ZctCVR0dhcGuetTXE7FXZin0hAlABY7Q37/E+lI39La7nuH67ZSE7iPPocDyp/mTHwpqDrF9z9+KKdSB+UL9oYV9zQpEjYqD9OjnQPeBYJTIwA2IelleYedtcJwjOurtbHKVuqSZg00VaoPIpimcKDAFnRAyREI/un7Ov3neJvsFM4n6npGpXHqeGKvSIBJDBrCJj6V/sUk0ThgZnXV/iSQDcSps+LINlauOEX9YVclOgETyGBOUuAFxqSRJDsHYvROWex4MSRwEwjAKZ+Z8pr809tcUDZcaatzZyxh2S+3t9yqPObrAES/ZMEbaTeFg/8KeP2wN74cGEC63GBATPvuOLLxYnhjniFjwscVp4NBFB5nA2rNPdsROVx7q05zhgJIAEkgASQABJAArObAIBZJp0kmk2SY7AwfD18ds8ZrUcCSAAJIAEkYIgAKo+GCOH590EAlcf3QR3HRAJIAAkgASSABJAAEkACSAAJIAEkgASQwGQS+MgZ/yGBmUegsv3B/ODk/7kudk79VbSrff0DZt5qoEVIAAkgASSABJAAEkACSAAJIAEkgASQABKYCIGPPPAfEph5BKpUPQtCzv7U/cSc+qtQ9QZvCp15q4EWIQEkgASQABJAAkgACSABJIAEkAASQAJIYCIEUHmcCDVsM9UEUHmcasLYPxJAAkgACSABJIAEkAASQAJIAAkgASSABKaaACqPU00Y+58IgSpVT1hizcYYxZz6u9zZhz6PE7lcsA0SQAJIAAkgASSABJAAEkACSAAJIAEkMCMJfGSO/5DAzCNwJP7cyfPFc+3v1PlCu0X2M2810CIkgASQABJAAkgACSABJIAEkAASQAJIAAlMhADmtp7MfD3YFxJAAkgACSABJIAEkAASQAJIAAkgASSABJAAEkACDAFUHvFKQAJIAAkgASSABJAAEkACSAAJIAEkgASQABJAAkhg8gmg8jj5TLFHJIAEkAASmFME/rfVR/g36QTm1CWEk0UCSAAJIAEkgASQABJAAh8qAVQeZQBguzWtoijaBeCDWeYl+y8q0sKXfEAz+mCWBieCBJDAh0dg0kU37PB/W+HzyYf3RsEZIQEkgASQABJAAkgACcxFAnP9yZ6RHS83lZ3wsfyQ1h+sN6VUN5fHB1i/D/ERLF12JeRXNbapWjN3vQ8DPqSlxLkgASQw8wmgUDgVBGb+uqOFSAAJIAEkgASQABJAAkgACRgkMNeVR1PXo0VNzUWHVhskNesqyJ2i8htbFSd9TKdX+wNwOJDX2FadeSBgyXvRPWfdSqHBSAAJzHYCU6G7YZ+z/apA+5EAEkACSAAJIAEkgASQABKQyWRzWnkku6wvX6vL3G0/vdrctF15tvuyG9urkzeaTtuIMpkMHGMV7dWJAR/O1vXppIdjIQEkgASQABJAAkgACSABJIAEkAASQAJI4IMhMLXKo5lrUUf+yLDy+fWdG4z0vAMwX+uvaMsYeFr+aqT662Hl8MOMjlzP5TDZ4iCJ7nj+iqoxJ8L+g9XIAGjtse7CzgXTN0frfdlNl5M3TvZ6fTBvOZwIEkACSAAJIAEkgASQABJAAkgACSABJIAE5giBqVUegyN6BqtoATGrbrupYfELYFVMzOPnxerLW8MdzUh9mxWZrYX/PlzxpMbHenKXxHpz2hVVa9GRD3CfNRcUOMaUtrfXpW0xUvnltp1Y2Tqq6Fr5CXdUHieGD1shASSABJAAEkACSAAJIAEkgASQABJAAkjgQyEwtcqjmWvFbeWr4aqROwd3WhghRXnu+uJZ5fPm4KWshyPA5uJ0aqT6695jh6yM6MHIdQHTdScU7e21aVuN0EON7HNmVgMw33quTkVrgdNjISqP08MZR0ECSAAJIAEkgASQABJAAkgACSABJIAEkMAMJzC1yqNMJjOzWedtv4hVEiVwAOxWXvy34dym/bS3I1MTYN35pK+Gq4Y7tnvKJ095tAnPuKq6VhnvLWHPB3NK7h5fqWq/mrl7weQBlICDyqMEHDyFBJAAEkACSAAJIAEkgASQABJAAkgACSCBuUNgypVH41HCkrwbylfDZ/OnOt8LgP2B/BZ6p7XhDeDG2z9jawK941rVVhztOB3zReVxxl4JaBgSQAJIAAkgASSABJAAEkACSAAJIAEkgASmk8BMUh6dy78onxblcenRonZVmyJ23bT4AE7ncoqOBUDSTato6VG0wuQeROVxcnlib0gACSABJIAEkAASQAJIAAkgASSABJAAEpilBOai8mi7P69Fda0qwX+WrtkEzDYNSK5WqVrzD0zDhmtUHiewQNgECSABJIAEkAASQAJIAAkgASSABJAAEkACHx6BKVQeAWwcHfYcj1DdzWjkhm7UBxGmxecRwHrr+TqVqilzp6k+Sz6842C9L7tFpWq+sH3q3TxRefzwrh+cERJAAkgACSABJIAEkAASQAJIAAkgASSABCZAYPKVRyYb9VdlQ48Ln39ZSg1XveIljeFayaiNI9Vf6/sbrrqbZaM3OiGA/GerNv6rV9C/eG74n7Z6q+mMCMtjSlWqtvI4D8P1Lbc1He76bcHwaMWrvytHXuf1/PuBc4ctdcU7CMgMy2oKK7ofd+9PJ9MBwM4l61lq3+tSapRpEnlyk4luE649pp65+1S/yRp6o6DrZ3cP7IoK5tXXDFH+OKn3m093AoDFsriu+J7vS6hRJfW2qO8/Yy5G8Jpwh5DJZMA4PV5TxK0zPGtSH2x+6sqAXf9Tc6OaMCMCkHw29DjjaMWzFl8iASSABJAAEkACSAAJIAEkgASQABJAAkgACXwABCZfeeRCgfkZqjIp5VGn8jh9HgFkP1/q9a9eQczfv3i4/9TSsNoF1pvTrqiYKI/c0XllAIt1Zb8uoN5md3zuF2Avk8lMl+4OqvlV7su3eTdVThZjA8GnnXGffZ1Jq5Px6T6hn/2l5NmvD2dlrvHd4hBRfeDmd6XU27yOWtG0OYsSnme95A1BD9qu5Nanh/j38wOjSurbgzu9g9r+WPLsm5jyYnd6iOgHPyiot0n5PrwpcF8CWEcVqVTt9WlbxyznVuCWASx+5ug3Bnat889NDLdieqCz2VyrT9vK7RDLSAAJIAEkgASQABJAAkgACSABJIAEkAASQAJzkMAUK49wuql06pRHjcOjRnk0zu1Rozw2pofp90OUyWSLzo3kU28zauLNdKvRx0cL2ot5x11qfq+gRjN7/yu3s3E5V5cEi3WXf6+g3mZUx4BuV6a776e/HM2s0xmCKJ41vysVqx/6+Vsl9Ze07u9yu3SlT4fLJwdHlU++9NLtn3s1a5RHVWvmLsMaIuvwqAVrlNsjANg4BB9IU1ytvbBnieFRuOZhGQkgASSABJAAEkACSAAJIAEkgASQABJAAkjgwyMwq5XHd/B5lFQeYU1b0svRsu5bjgItD8DCu+E7BfWno0fnca8GRnks6+1xt+KLbmBeGjs4qhwaDuacAjh84OGo8km/L+cg0yGYX4zuH1WOfB2+Sqer0M/fVrz6e0En330SwOKTG2+V1H/u9dWpzzVvnMrjRHwezYJSLrfXFZ3e7W6t1wyuSVhGAkgACSABJIAEkAASQAJIAAkgASSABJAAEviwCcxi5ZEORzj+OI9G7Lb2qP9OQb2NT7cRXXsIu59BjZZ1tS7k6JKM8hifLiK6aZXBt6fSxs6aJnxVQI3mNmXwHCGZEQPbXgsNoH0evz24c6wT1jyJU0ydce22nnCcR7BdF55QjD6P7LpgAQkgASSABJAAEkACSAAJIAEkgASQABJAAnOZwOxWHiewcmAow4zGG5H61U5dl0N2LIBzR/pHldSrMI5zn4TyKJPJNHuxa8Y2XHs3/FlBjYoqlWP16+K5uqSEvChxijGbzvuiUl0rP+EuIlyyU3v3AsZ5fHeG2AMSQAJIAAkgASSABJAAEkACSAAJIAEkgAQ+DAJzUHm02ZXZoFI1Ze40FV1CgOqTI6PKkZehHJdGbk2AyP3qUSX1x0P7xlQ8aeVxeelvFBwPR60XpE4P3CGY3pSdtZOmPFqEZ1xVqZovbNczKe7o71LG3NbvQg/bIgEkgASQABJAAkgACSABJIAEkAASQAJI4EMiMAeVR1h6tKhdda0qwV90IZnN1MqHPW76RTom5CLXY1FaeYS0kTJqlFUSGbfKild/l/5j6zN2Sjg2Spxi2srd4ytVqrbiaGHkSlEI73LQOqqI9q0ck2XfpTdsiwSQABJAAkgACSABJIAEkAASQAJIAAkgASQwSwnMOeVRJpPJXeIU7arWoiOrxbRFMK8/PTKqHBoKEjtLx0DctPfe+HwenSt/RzJfa3dPG/R5FL2YJORFiVO0weAYq1CprpXFOIn2PLkHUXmcXJ7YGxJAAkgACSABJIAEkAASQAJIAAkgASSABGYpgbmoPAJHehQum2gYR241gLiDj0aVuoEgpX0e113+g4IaTVNsYfuhc8jojfPIVuMWJORFiVO08rgginh5lsU4TYcfIiqP3FXDMhJAAkgACSABJIAEkAASQAJIAAkgASSABOYsgTmpPALYH8hvob0eRReelgVfxyaI63TgdTOVGlV233LgOEVKKI8AjI/kn44cHOvQNuuXpRwvSKEZYGtvyelfJpNJyIsSp4jy6BhT2q5qztu/QLdD4aCTcgSVx0nBiJ0gASSABJAAEkACSAAJIAEkgASQABJAAkhgthOYi8ojEePMAxIr29svp2wyHVMD2bWEgFupL0eLVEozManOsfwbBfX9qTRXtj6bjTql2I97kClDQFcaNap8cIcbYxHMS2MHR5VP+n2txAwAr09u/BdXqZyw8ghg6p1YpWqvTt4onlFHaPA7HkHl8R0BYnMkgASQABJAAkgACSABJIAEkAASQAJIAAl8GATmqvIIYLcr86qquejQauFCAlisq/ldKfV9fLoP76zp7vvpL0cLOmvtdUVJTTbqgX/bslZHSQTzuAPqNwrq20P75vG6WnRuJJ8aLehsXG6h2wTsPC7/LrejmueiKOHYKHEKVkYVtLRfzdzN641nzCS+ROVxEmFiV0gACSABJIAEkAASQAJIAAkgASSABJAAEpi9BKZWeTRbktehfDVcdrfAeT7oSnVCZDYbrz2ueDWcUb3JUkeJE9aclCMA9vvzmtrrMnfbiwwH4OVX/00J9X3K1cvuTvbETdJ2vXvWcObwm7wOvlY45vPY8iT96X8cPp9gtwAALGx2NcU9+kEx8tdTAgWTDr9osa7s1wXUaEn/f8aUF7v7bnHw3eIe3xVz7y+FPffcdX0hwTxo951RJfU6IWeTiS5JqVNgE55e196QHbFEZI6TglHYCSqPQiZ4BAkgASSABJAAEkACc8aT4gAABRtJREFUSAAJIAEkgASQABJAAnOQwOQrjwCbi9OpkeqvRf+Gz+bzvAWDI3oGq16JV85t2m82hZIZ2G5Nu9xWm76TZxJzHTDS4bF7fywYHq149XflyOvs7hcRJ/nCH1OZjfNo6pm7r/O3mibDfzt/406gl5XEhWXpXxyh+k3mwA8KalRJvS169tvTFQU8L0im84pXf2f+lNS/bdGKjxKnZDIZrTvWZe5ZImHApJ+y3pfdXJ+2VWvhpPePHSIBJIAEkAASQAJIAAkgASSABJAAEkACSAAJzAoCk688zopps0aauh4taiR+j+yRiRVY5XFizaeildwpKr+xVXHSx3R6RUBwjFVMY1jJqUCHfSIBJIAEkAASQAJIAAkgASSABJAAEkACSAAJvDuBua48AtCOj01lcZ7vlIBlpimPYL0ppbq19sKeJdMrO9K7yB0O5DW21+cdCVhiPe2jv/tbAntAAkgACSABJIAEkAASQAJIAAkgASSABJAAEpgUAnNdeaSVMrDdkqIoiHaZqEwGYBfQ+mcFNZp5Ndlyop1MynKynbgczlWkhU+/7MgYAJYuuxLyqxrbVK2Zu2YGEJYMFpAAEkACSAAJIAEkgASQABJAAkgACSABJIAEpocAKo/vyhnSRsooEgiS/cusiTGYTuddR8X2SAAJIAEkgASQABJAAkgACSABJIAEkAASQAJIYGYTQOVxZq8PWocEkAASQAJIAAkgASSABJAAEkACSAAJIAEkgARmJwFUHmfnuqHVSAAJIAEkgASQABJAAkgACSABJIAEkAASQAJIYGYTQOVxZq8PWocEkAASQAJIAAkgASSABJAAEkACSAAJIAEkgARmJwFUHmfnuqHVSAAJIAEkgASQABJAAkgACSABJIAEkAASQAJIYGYTQOVxZq8PWocEkAASQAJIAAkgASSABJAAEkACSAAJIAEkgARmJwFUHmfnur1Xq//1J//PP/+3H03p3z/9+B9//vOfv9dZ4uAfDoH/+8f/55Rerv/833708T//04fDC2eCBJAAEkACSAAJIAEkgASQABJAAkhgkgig8jhJIOdSN//jv//YzfQftiz80dT9/V8/+j9+9rOfzSWoONcpJPDRRx9N3bW6ZeGP3Ez/4Z9+/I9TOAHsGgkgASSABJAAEkACSAAJIAEkgASQwOwkgMrj7Fy392r1//jvP/az+od9S/9x6v5+jMrje13iD2zwjz76aOqu1X1L/9HPCpXHD+ySwekgASSABJAAEkACSAAJIAEkgASQwOQQQOVxcjjOqV5QeZxTy/0BTBaVxw9gEXEKSAAJIAEkgASQABJAAkgACSABJDAbCUyt8rh9+/bIyMjZyAVtliCAyqMEHDw1Awmg8jgDFwVNQgJIAAlMLgGQr4zILL+4bznTrf3Oc8XpEU5ymNxRsDckgASQABJAAkgACSCB8RKYWuUxMjIyOjp6vDZh/RlOAJXHGb5AaB6PACqPPCD4EgkgASTwgREgsuPFuvq8qLVmGqkRrAPiFY2VyVvtUXz8wBYbp4MEkAASQAJIAAnMNgKoPM62FZsB9qLyOAMWAU0YBwFUHscBC6siASSABGYbAaBVxua6zN32Oh6OtBrZWnkmxBZ0js+2+aG9SAAJIAEkgASQABKY3QRQeZzd6/derEfl8b1gx0EnTACVxwmjw4ZIAAkggRlOABh3x9aq5M22QlPtws5dab+StlXklLAyHkECSAAJIAEkgASQABKYCgL/H8byfpnqGuKiAAAAAElFTkSuQmCC&quot;&gt;&lt;/div&gt;&lt;div&gt;&lt;br&gt;&lt;/div&gt;&lt;div&gt;2、&lt;/div&gt;" style="shape=note;whiteSpace=wrap;html=1;backgroundOutline=1;fontColor=#FF0000;darkOpacity=0.05;fillColor=#FFF9B2;strokeColor=none;fillStyle=solid;direction=west;gradientDirection=north;gradientColor=#FFF2A1;shadow=1;size=20;pointerEvents=1;labelPosition=center;verticalLabelPosition=middle;align=left;verticalAlign=top;fontSize=20;" vertex="1" parent="oQZ1bZ7hL0mkDEgHOyI8-3">
          <mxGeometry width="2690" height="2948" as="geometry" />
        </mxCell>
        <mxCell id="oQZ1bZ7hL0mkDEgHOyI8-2" value="&lt;font style=&quot;--darkreader-inline-color: var(--darkreader-text-ff0000, #ff1a1a); color: rgb(255, 0, 0);&quot; data-darkreader-inline-color=&quot;&quot; face=&quot;Open Sans&quot;&gt;&lt;span data-darkreader-inline-bgcolor=&quot;&quot; style=&quot;font-size: 18px; letter-spacing: 0.25px; background-color: rgb(15, 17, 17); --darkreader-inline-bgcolor: var(--darkreader-background-0f1111, #0c0d0e);&quot;&gt;&lt;b style=&quot;&quot;&gt;问题列表！！！&lt;/b&gt;&lt;/span&gt;&lt;/font&gt;" style="rounded=0;whiteSpace=wrap;html=1;" vertex="1" parent="oQZ1bZ7hL0mkDEgHOyI8-3">
          <mxGeometry width="240" height="108" as="geometry" />
        </mxCell>
      </root>
    </mxGraphModel>
  </diagram>
</mxfile>
